M48
; DRILL file {KiCad 9.0.4} date 2025-11-25T13:51:55-0600
; FORMAT={-:-/ absolute / metric / decimal}
; #@! TF.CreationDate,2025-11-25T13:51:55-06:00
; #@! TF.GenerationSoftware,Kicad,Pcbnew,9.0.4
; #@! TF.FileFunction,Plated,1,2,PTH
FMAT,2
METRIC
; #@! TA.AperFunction,Plated,PTH,ViaDrill
T1C0.300
; #@! TA.AperFunction,Plated,PTH,ComponentDrill
T2C0.500
; #@! TA.AperFunction,Plated,PTH,ComponentDrill
T3C0.550
; #@! TA.AperFunction,Plated,PTH,ComponentDrill
T4C0.991
; #@! TA.AperFunction,Plated,PTH,ComponentDrill
T5C1.020
; #@! TA.AperFunction,Plated,PTH,ComponentDrill
T6C1.200
%
G90
G05
T1
X145.0Y-88.375
X150.05Y-92.0
X151.018Y-71.768
X154.5Y-90.25
X155.0Y-84.5
X155.0Y-87.453
X155.039Y-73.905
X160.0Y-84.5
X160.461Y-73.905
X163.361Y-95.75
X163.5Y-76.25
X163.75Y-79.5
X163.974Y-87.495
X165.5Y-87.0
X165.65Y-73.547
X166.0Y-76.453
X167.27Y-87.25
X168.539Y-77.405
X172.464Y-65.365
X173.961Y-77.405
X176.3Y-66.75
X176.3Y-70.56
X176.5Y-73.797
X176.5Y-76.703
X178.5Y-82.703
X180.5Y-76.5
X181.1Y-81.962
X181.492Y-93.335
X181.7Y-64.21
X181.745Y-79.995
X181.766Y-83.175
X182.784Y-76.233
X183.65Y-76.25
X183.75Y-80.75
X185.0Y-88.25
X185.0Y-91.25
X185.0Y-94.312
X185.234Y-83.516
X185.35Y-76.392
X185.9Y-77.538
X187.25Y-81.25
X187.562Y-63.0
X188.0Y-78.25
X188.75Y-84.0
X189.5Y-60.25
X189.901Y-74.5
X190.5Y-83.35
X192.638Y-78.8
X192.75Y-80.75
X192.894Y-83.117
X193.347Y-80.217
X195.0Y-93.25
X195.231Y-80.415
X195.562Y-79.0
X195.75Y-82.0
X197.35Y-72.75
X201.375Y-82.75
X201.438Y-88.5
X201.5Y-94.0
X201.727Y-78.289
X201.75Y-98.25
X202.25Y-80.5
X205.188Y-67.75
X205.25Y-72.25
X209.012Y-81.812
X209.012Y-87.263
X209.012Y-92.862
X209.1Y-76.912
X212.75Y-87.1
X212.8Y-92.4
X212.812Y-67.062
X212.812Y-71.412
X212.912Y-61.062
X213.25Y-58.25
X214.75Y-62.0
X216.06Y-55.899
T2
X192.5Y-96.0
X195.0Y-96.0
X201.5Y-54.2
X204.0Y-54.25
X206.5Y-54.25
X209.0Y-54.25
X211.5Y-54.25
X214.0Y-54.25
X216.5Y-54.25
X219.0Y-54.25
T4
X192.94Y-57.88
X192.94Y-60.42
X192.94Y-62.96
X192.94Y-65.5
X192.94Y-68.04
X192.94Y-70.58
X192.94Y-73.12
X200.56Y-57.88
X200.56Y-60.42
X200.56Y-62.96
X200.56Y-65.5
X200.56Y-68.04
X200.56Y-70.58
X200.56Y-73.12
T5
X153.65Y-59.1
X156.65Y-59.1
X159.65Y-59.1
X162.65Y-59.1
T6
X133.667Y-80.5
X133.667Y-84.0
X225.332Y-61.75
X225.332Y-65.25
X225.332Y-69.75
X225.332Y-73.25
X225.332Y-77.75
X225.332Y-81.25
X225.332Y-85.75
X225.332Y-89.25
T2
G00X145.0Y-97.975
M15
G01X145.0Y-98.625
M16
G05
G00X152.0Y-97.975
M15
G01X152.0Y-98.625
M16
G05
T3
G00X145.85Y-95.6
M15
G01X146.15Y-95.6
M16
G05
G00X150.85Y-95.6
M15
G01X151.15Y-95.6
M16
G05
M30
