%TF.GenerationSoftware,KiCad,Pcbnew,9.0.4*%
%TF.CreationDate,2025-11-25T13:51:46-06:00*%
%TF.ProjectId,LV Sensor,4c562053-656e-4736-9f72-2e6b69636164,rev?*%
%TF.SameCoordinates,Original*%
%TF.FileFunction,Legend,Top*%
%TF.FilePolarity,Positive*%
%FSLAX46Y46*%
G04 Gerber Fmt 4.6, Leading zero omitted, Abs format (unit mm)*
G04 Created by KiCad (PCBNEW 9.0.4) date 2025-11-25 13:51:46*
%MOMM*%
%LPD*%
G01*
G04 APERTURE LIST*
%ADD10C,0.275000*%
%ADD11C,0.150000*%
%ADD12C,0.125000*%
%ADD13C,0.098425*%
%ADD14C,0.254000*%
%ADD15C,0.112500*%
%ADD16C,0.100000*%
%ADD17C,0.120000*%
%ADD18C,0.127000*%
%ADD19C,0.200000*%
%ADD20C,0.152400*%
%ADD21C,0.000000*%
G04 APERTURE END LIST*
D10*
X156442825Y-98601080D02*
X156442825Y-97501080D01*
X156442825Y-97501080D02*
X156809492Y-98286795D01*
X156809492Y-98286795D02*
X157176159Y-97501080D01*
X157176159Y-97501080D02*
X157176159Y-98601080D01*
X158171397Y-98601080D02*
X158171397Y-98024890D01*
X158171397Y-98024890D02*
X158119016Y-97920128D01*
X158119016Y-97920128D02*
X158014254Y-97867747D01*
X158014254Y-97867747D02*
X157804730Y-97867747D01*
X157804730Y-97867747D02*
X157699968Y-97920128D01*
X158171397Y-98548700D02*
X158066635Y-98601080D01*
X158066635Y-98601080D02*
X157804730Y-98601080D01*
X157804730Y-98601080D02*
X157699968Y-98548700D01*
X157699968Y-98548700D02*
X157647587Y-98443938D01*
X157647587Y-98443938D02*
X157647587Y-98339176D01*
X157647587Y-98339176D02*
X157699968Y-98234414D01*
X157699968Y-98234414D02*
X157804730Y-98182033D01*
X157804730Y-98182033D02*
X158066635Y-98182033D01*
X158066635Y-98182033D02*
X158171397Y-98129652D01*
X158695206Y-97867747D02*
X158695206Y-98601080D01*
X158695206Y-97972509D02*
X158747587Y-97920128D01*
X158747587Y-97920128D02*
X158852349Y-97867747D01*
X158852349Y-97867747D02*
X159009492Y-97867747D01*
X159009492Y-97867747D02*
X159114254Y-97920128D01*
X159114254Y-97920128D02*
X159166635Y-98024890D01*
X159166635Y-98024890D02*
X159166635Y-98601080D01*
X159690444Y-98601080D02*
X159690444Y-97867747D01*
X159690444Y-97501080D02*
X159638063Y-97553461D01*
X159638063Y-97553461D02*
X159690444Y-97605842D01*
X159690444Y-97605842D02*
X159742825Y-97553461D01*
X159742825Y-97553461D02*
X159690444Y-97501080D01*
X159690444Y-97501080D02*
X159690444Y-97605842D01*
X160161873Y-98548700D02*
X160266635Y-98601080D01*
X160266635Y-98601080D02*
X160476159Y-98601080D01*
X160476159Y-98601080D02*
X160580921Y-98548700D01*
X160580921Y-98548700D02*
X160633302Y-98443938D01*
X160633302Y-98443938D02*
X160633302Y-98391557D01*
X160633302Y-98391557D02*
X160580921Y-98286795D01*
X160580921Y-98286795D02*
X160476159Y-98234414D01*
X160476159Y-98234414D02*
X160319016Y-98234414D01*
X160319016Y-98234414D02*
X160214254Y-98182033D01*
X160214254Y-98182033D02*
X160161873Y-98077271D01*
X160161873Y-98077271D02*
X160161873Y-98024890D01*
X160161873Y-98024890D02*
X160214254Y-97920128D01*
X160214254Y-97920128D02*
X160319016Y-97867747D01*
X160319016Y-97867747D02*
X160476159Y-97867747D01*
X160476159Y-97867747D02*
X160580921Y-97920128D01*
X161104730Y-98601080D02*
X161104730Y-97501080D01*
X161576159Y-98601080D02*
X161576159Y-98024890D01*
X161576159Y-98024890D02*
X161523778Y-97920128D01*
X161523778Y-97920128D02*
X161419016Y-97867747D01*
X161419016Y-97867747D02*
X161261873Y-97867747D01*
X161261873Y-97867747D02*
X161157111Y-97920128D01*
X161157111Y-97920128D02*
X161104730Y-97972509D01*
X162885682Y-98548700D02*
X163042825Y-98601080D01*
X163042825Y-98601080D02*
X163304730Y-98601080D01*
X163304730Y-98601080D02*
X163409492Y-98548700D01*
X163409492Y-98548700D02*
X163461873Y-98496319D01*
X163461873Y-98496319D02*
X163514254Y-98391557D01*
X163514254Y-98391557D02*
X163514254Y-98286795D01*
X163514254Y-98286795D02*
X163461873Y-98182033D01*
X163461873Y-98182033D02*
X163409492Y-98129652D01*
X163409492Y-98129652D02*
X163304730Y-98077271D01*
X163304730Y-98077271D02*
X163095206Y-98024890D01*
X163095206Y-98024890D02*
X162990444Y-97972509D01*
X162990444Y-97972509D02*
X162938063Y-97920128D01*
X162938063Y-97920128D02*
X162885682Y-97815366D01*
X162885682Y-97815366D02*
X162885682Y-97710604D01*
X162885682Y-97710604D02*
X162938063Y-97605842D01*
X162938063Y-97605842D02*
X162990444Y-97553461D01*
X162990444Y-97553461D02*
X163095206Y-97501080D01*
X163095206Y-97501080D02*
X163357111Y-97501080D01*
X163357111Y-97501080D02*
X163514254Y-97553461D01*
X163985682Y-98601080D02*
X163985682Y-97501080D01*
X164457111Y-98601080D02*
X164457111Y-98024890D01*
X164457111Y-98024890D02*
X164404730Y-97920128D01*
X164404730Y-97920128D02*
X164299968Y-97867747D01*
X164299968Y-97867747D02*
X164142825Y-97867747D01*
X164142825Y-97867747D02*
X164038063Y-97920128D01*
X164038063Y-97920128D02*
X163985682Y-97972509D01*
X164980920Y-98601080D02*
X164980920Y-97867747D01*
X164980920Y-98077271D02*
X165033301Y-97972509D01*
X165033301Y-97972509D02*
X165085682Y-97920128D01*
X165085682Y-97920128D02*
X165190444Y-97867747D01*
X165190444Y-97867747D02*
X165295206Y-97867747D01*
X166080920Y-98548700D02*
X165976158Y-98601080D01*
X165976158Y-98601080D02*
X165766634Y-98601080D01*
X165766634Y-98601080D02*
X165661872Y-98548700D01*
X165661872Y-98548700D02*
X165609491Y-98443938D01*
X165609491Y-98443938D02*
X165609491Y-98024890D01*
X165609491Y-98024890D02*
X165661872Y-97920128D01*
X165661872Y-97920128D02*
X165766634Y-97867747D01*
X165766634Y-97867747D02*
X165976158Y-97867747D01*
X165976158Y-97867747D02*
X166080920Y-97920128D01*
X166080920Y-97920128D02*
X166133301Y-98024890D01*
X166133301Y-98024890D02*
X166133301Y-98129652D01*
X166133301Y-98129652D02*
X165609491Y-98234414D01*
X166552348Y-98548700D02*
X166657110Y-98601080D01*
X166657110Y-98601080D02*
X166866634Y-98601080D01*
X166866634Y-98601080D02*
X166971396Y-98548700D01*
X166971396Y-98548700D02*
X167023777Y-98443938D01*
X167023777Y-98443938D02*
X167023777Y-98391557D01*
X167023777Y-98391557D02*
X166971396Y-98286795D01*
X166971396Y-98286795D02*
X166866634Y-98234414D01*
X166866634Y-98234414D02*
X166709491Y-98234414D01*
X166709491Y-98234414D02*
X166604729Y-98182033D01*
X166604729Y-98182033D02*
X166552348Y-98077271D01*
X166552348Y-98077271D02*
X166552348Y-98024890D01*
X166552348Y-98024890D02*
X166604729Y-97920128D01*
X166604729Y-97920128D02*
X166709491Y-97867747D01*
X166709491Y-97867747D02*
X166866634Y-97867747D01*
X166866634Y-97867747D02*
X166971396Y-97920128D01*
X167338062Y-97867747D02*
X167757110Y-97867747D01*
X167495205Y-97501080D02*
X167495205Y-98443938D01*
X167495205Y-98443938D02*
X167547586Y-98548700D01*
X167547586Y-98548700D02*
X167652348Y-98601080D01*
X167652348Y-98601080D02*
X167757110Y-98601080D01*
X168123776Y-98601080D02*
X168123776Y-97501080D01*
X168595205Y-98601080D02*
X168595205Y-98024890D01*
X168595205Y-98024890D02*
X168542824Y-97920128D01*
X168542824Y-97920128D02*
X168438062Y-97867747D01*
X168438062Y-97867747D02*
X168280919Y-97867747D01*
X168280919Y-97867747D02*
X168176157Y-97920128D01*
X168176157Y-97920128D02*
X168123776Y-97972509D01*
X169590443Y-98601080D02*
X169590443Y-98024890D01*
X169590443Y-98024890D02*
X169538062Y-97920128D01*
X169538062Y-97920128D02*
X169433300Y-97867747D01*
X169433300Y-97867747D02*
X169223776Y-97867747D01*
X169223776Y-97867747D02*
X169119014Y-97920128D01*
X169590443Y-98548700D02*
X169485681Y-98601080D01*
X169485681Y-98601080D02*
X169223776Y-98601080D01*
X169223776Y-98601080D02*
X169119014Y-98548700D01*
X169119014Y-98548700D02*
X169066633Y-98443938D01*
X169066633Y-98443938D02*
X169066633Y-98339176D01*
X169066633Y-98339176D02*
X169119014Y-98234414D01*
X169119014Y-98234414D02*
X169223776Y-98182033D01*
X169223776Y-98182033D02*
X169485681Y-98182033D01*
X169485681Y-98182033D02*
X169590443Y-98129652D01*
X171738062Y-97448700D02*
X170795204Y-98862985D01*
X172942823Y-98601080D02*
X172942823Y-97501080D01*
X172942823Y-97501080D02*
X173571395Y-98601080D01*
X173571395Y-98601080D02*
X173571395Y-97501080D01*
X174252347Y-98601080D02*
X174147585Y-98548700D01*
X174147585Y-98548700D02*
X174095204Y-98496319D01*
X174095204Y-98496319D02*
X174042823Y-98391557D01*
X174042823Y-98391557D02*
X174042823Y-98077271D01*
X174042823Y-98077271D02*
X174095204Y-97972509D01*
X174095204Y-97972509D02*
X174147585Y-97920128D01*
X174147585Y-97920128D02*
X174252347Y-97867747D01*
X174252347Y-97867747D02*
X174409490Y-97867747D01*
X174409490Y-97867747D02*
X174514252Y-97920128D01*
X174514252Y-97920128D02*
X174566633Y-97972509D01*
X174566633Y-97972509D02*
X174619014Y-98077271D01*
X174619014Y-98077271D02*
X174619014Y-98391557D01*
X174619014Y-98391557D02*
X174566633Y-98496319D01*
X174566633Y-98496319D02*
X174514252Y-98548700D01*
X174514252Y-98548700D02*
X174409490Y-98601080D01*
X174409490Y-98601080D02*
X174252347Y-98601080D01*
X174985680Y-97867747D02*
X175247585Y-98601080D01*
X175247585Y-98601080D02*
X175509490Y-97867747D01*
X176714251Y-97605842D02*
X176766632Y-97553461D01*
X176766632Y-97553461D02*
X176871394Y-97501080D01*
X176871394Y-97501080D02*
X177133299Y-97501080D01*
X177133299Y-97501080D02*
X177238061Y-97553461D01*
X177238061Y-97553461D02*
X177290442Y-97605842D01*
X177290442Y-97605842D02*
X177342823Y-97710604D01*
X177342823Y-97710604D02*
X177342823Y-97815366D01*
X177342823Y-97815366D02*
X177290442Y-97972509D01*
X177290442Y-97972509D02*
X176661870Y-98601080D01*
X176661870Y-98601080D02*
X177342823Y-98601080D01*
X178023775Y-97501080D02*
X178128537Y-97501080D01*
X178128537Y-97501080D02*
X178233299Y-97553461D01*
X178233299Y-97553461D02*
X178285680Y-97605842D01*
X178285680Y-97605842D02*
X178338061Y-97710604D01*
X178338061Y-97710604D02*
X178390442Y-97920128D01*
X178390442Y-97920128D02*
X178390442Y-98182033D01*
X178390442Y-98182033D02*
X178338061Y-98391557D01*
X178338061Y-98391557D02*
X178285680Y-98496319D01*
X178285680Y-98496319D02*
X178233299Y-98548700D01*
X178233299Y-98548700D02*
X178128537Y-98601080D01*
X178128537Y-98601080D02*
X178023775Y-98601080D01*
X178023775Y-98601080D02*
X177919013Y-98548700D01*
X177919013Y-98548700D02*
X177866632Y-98496319D01*
X177866632Y-98496319D02*
X177814251Y-98391557D01*
X177814251Y-98391557D02*
X177761870Y-98182033D01*
X177761870Y-98182033D02*
X177761870Y-97920128D01*
X177761870Y-97920128D02*
X177814251Y-97710604D01*
X177814251Y-97710604D02*
X177866632Y-97605842D01*
X177866632Y-97605842D02*
X177919013Y-97553461D01*
X177919013Y-97553461D02*
X178023775Y-97501080D01*
X178809489Y-97605842D02*
X178861870Y-97553461D01*
X178861870Y-97553461D02*
X178966632Y-97501080D01*
X178966632Y-97501080D02*
X179228537Y-97501080D01*
X179228537Y-97501080D02*
X179333299Y-97553461D01*
X179333299Y-97553461D02*
X179385680Y-97605842D01*
X179385680Y-97605842D02*
X179438061Y-97710604D01*
X179438061Y-97710604D02*
X179438061Y-97815366D01*
X179438061Y-97815366D02*
X179385680Y-97972509D01*
X179385680Y-97972509D02*
X178757108Y-98601080D01*
X178757108Y-98601080D02*
X179438061Y-98601080D01*
X180433299Y-97501080D02*
X179909489Y-97501080D01*
X179909489Y-97501080D02*
X179857108Y-98024890D01*
X179857108Y-98024890D02*
X179909489Y-97972509D01*
X179909489Y-97972509D02*
X180014251Y-97920128D01*
X180014251Y-97920128D02*
X180276156Y-97920128D01*
X180276156Y-97920128D02*
X180380918Y-97972509D01*
X180380918Y-97972509D02*
X180433299Y-98024890D01*
X180433299Y-98024890D02*
X180485680Y-98129652D01*
X180485680Y-98129652D02*
X180485680Y-98391557D01*
X180485680Y-98391557D02*
X180433299Y-98496319D01*
X180433299Y-98496319D02*
X180380918Y-98548700D01*
X180380918Y-98548700D02*
X180276156Y-98601080D01*
X180276156Y-98601080D02*
X180014251Y-98601080D01*
X180014251Y-98601080D02*
X179909489Y-98548700D01*
X179909489Y-98548700D02*
X179857108Y-98496319D01*
D11*
X218435714Y-52862295D02*
X218435714Y-52062295D01*
X218435714Y-52062295D02*
X218892857Y-52862295D01*
X218892857Y-52862295D02*
X218892857Y-52062295D01*
X219730952Y-52862295D02*
X219464285Y-52481342D01*
X219273809Y-52862295D02*
X219273809Y-52062295D01*
X219273809Y-52062295D02*
X219578571Y-52062295D01*
X219578571Y-52062295D02*
X219654761Y-52100390D01*
X219654761Y-52100390D02*
X219692856Y-52138485D01*
X219692856Y-52138485D02*
X219730952Y-52214676D01*
X219730952Y-52214676D02*
X219730952Y-52328961D01*
X219730952Y-52328961D02*
X219692856Y-52405152D01*
X219692856Y-52405152D02*
X219654761Y-52443247D01*
X219654761Y-52443247D02*
X219578571Y-52481342D01*
X219578571Y-52481342D02*
X219273809Y-52481342D01*
X220035713Y-52824200D02*
X220149999Y-52862295D01*
X220149999Y-52862295D02*
X220340475Y-52862295D01*
X220340475Y-52862295D02*
X220416666Y-52824200D01*
X220416666Y-52824200D02*
X220454761Y-52786104D01*
X220454761Y-52786104D02*
X220492856Y-52709914D01*
X220492856Y-52709914D02*
X220492856Y-52633723D01*
X220492856Y-52633723D02*
X220454761Y-52557533D01*
X220454761Y-52557533D02*
X220416666Y-52519438D01*
X220416666Y-52519438D02*
X220340475Y-52481342D01*
X220340475Y-52481342D02*
X220188094Y-52443247D01*
X220188094Y-52443247D02*
X220111904Y-52405152D01*
X220111904Y-52405152D02*
X220073809Y-52367057D01*
X220073809Y-52367057D02*
X220035713Y-52290866D01*
X220035713Y-52290866D02*
X220035713Y-52214676D01*
X220035713Y-52214676D02*
X220073809Y-52138485D01*
X220073809Y-52138485D02*
X220111904Y-52100390D01*
X220111904Y-52100390D02*
X220188094Y-52062295D01*
X220188094Y-52062295D02*
X220378571Y-52062295D01*
X220378571Y-52062295D02*
X220492856Y-52100390D01*
X220721428Y-52062295D02*
X221178571Y-52062295D01*
X220949999Y-52862295D02*
X220949999Y-52062295D01*
D12*
X210440476Y-52701000D02*
X210511904Y-52724809D01*
X210511904Y-52724809D02*
X210630952Y-52724809D01*
X210630952Y-52724809D02*
X210678571Y-52701000D01*
X210678571Y-52701000D02*
X210702380Y-52677190D01*
X210702380Y-52677190D02*
X210726190Y-52629571D01*
X210726190Y-52629571D02*
X210726190Y-52581952D01*
X210726190Y-52581952D02*
X210702380Y-52534333D01*
X210702380Y-52534333D02*
X210678571Y-52510523D01*
X210678571Y-52510523D02*
X210630952Y-52486714D01*
X210630952Y-52486714D02*
X210535714Y-52462904D01*
X210535714Y-52462904D02*
X210488095Y-52439095D01*
X210488095Y-52439095D02*
X210464285Y-52415285D01*
X210464285Y-52415285D02*
X210440476Y-52367666D01*
X210440476Y-52367666D02*
X210440476Y-52320047D01*
X210440476Y-52320047D02*
X210464285Y-52272428D01*
X210464285Y-52272428D02*
X210488095Y-52248619D01*
X210488095Y-52248619D02*
X210535714Y-52224809D01*
X210535714Y-52224809D02*
X210654761Y-52224809D01*
X210654761Y-52224809D02*
X210726190Y-52248619D01*
X210892856Y-52224809D02*
X211011904Y-52724809D01*
X211011904Y-52724809D02*
X211107142Y-52367666D01*
X211107142Y-52367666D02*
X211202380Y-52724809D01*
X211202380Y-52724809D02*
X211321428Y-52224809D01*
X211511904Y-52724809D02*
X211511904Y-52224809D01*
X211511904Y-52224809D02*
X211630952Y-52224809D01*
X211630952Y-52224809D02*
X211702380Y-52248619D01*
X211702380Y-52248619D02*
X211749999Y-52296238D01*
X211749999Y-52296238D02*
X211773809Y-52343857D01*
X211773809Y-52343857D02*
X211797618Y-52439095D01*
X211797618Y-52439095D02*
X211797618Y-52510523D01*
X211797618Y-52510523D02*
X211773809Y-52605761D01*
X211773809Y-52605761D02*
X211749999Y-52653380D01*
X211749999Y-52653380D02*
X211702380Y-52701000D01*
X211702380Y-52701000D02*
X211630952Y-52724809D01*
X211630952Y-52724809D02*
X211511904Y-52724809D01*
X212011904Y-52724809D02*
X212011904Y-52224809D01*
X212345237Y-52224809D02*
X212440475Y-52224809D01*
X212440475Y-52224809D02*
X212488094Y-52248619D01*
X212488094Y-52248619D02*
X212535713Y-52296238D01*
X212535713Y-52296238D02*
X212559523Y-52391476D01*
X212559523Y-52391476D02*
X212559523Y-52558142D01*
X212559523Y-52558142D02*
X212535713Y-52653380D01*
X212535713Y-52653380D02*
X212488094Y-52701000D01*
X212488094Y-52701000D02*
X212440475Y-52724809D01*
X212440475Y-52724809D02*
X212345237Y-52724809D01*
X212345237Y-52724809D02*
X212297618Y-52701000D01*
X212297618Y-52701000D02*
X212249999Y-52653380D01*
X212249999Y-52653380D02*
X212226190Y-52558142D01*
X212226190Y-52558142D02*
X212226190Y-52391476D01*
X212226190Y-52391476D02*
X212249999Y-52296238D01*
X212249999Y-52296238D02*
X212297618Y-52248619D01*
X212297618Y-52248619D02*
X212345237Y-52224809D01*
D11*
X205680952Y-52824200D02*
X205795238Y-52862295D01*
X205795238Y-52862295D02*
X205985714Y-52862295D01*
X205985714Y-52862295D02*
X206061905Y-52824200D01*
X206061905Y-52824200D02*
X206100000Y-52786104D01*
X206100000Y-52786104D02*
X206138095Y-52709914D01*
X206138095Y-52709914D02*
X206138095Y-52633723D01*
X206138095Y-52633723D02*
X206100000Y-52557533D01*
X206100000Y-52557533D02*
X206061905Y-52519438D01*
X206061905Y-52519438D02*
X205985714Y-52481342D01*
X205985714Y-52481342D02*
X205833333Y-52443247D01*
X205833333Y-52443247D02*
X205757143Y-52405152D01*
X205757143Y-52405152D02*
X205719048Y-52367057D01*
X205719048Y-52367057D02*
X205680952Y-52290866D01*
X205680952Y-52290866D02*
X205680952Y-52214676D01*
X205680952Y-52214676D02*
X205719048Y-52138485D01*
X205719048Y-52138485D02*
X205757143Y-52100390D01*
X205757143Y-52100390D02*
X205833333Y-52062295D01*
X205833333Y-52062295D02*
X206023810Y-52062295D01*
X206023810Y-52062295D02*
X206138095Y-52100390D01*
X206480953Y-52862295D02*
X206480953Y-52062295D01*
X206480953Y-52062295D02*
X206671429Y-52062295D01*
X206671429Y-52062295D02*
X206785715Y-52100390D01*
X206785715Y-52100390D02*
X206861905Y-52176580D01*
X206861905Y-52176580D02*
X206900000Y-52252771D01*
X206900000Y-52252771D02*
X206938096Y-52405152D01*
X206938096Y-52405152D02*
X206938096Y-52519438D01*
X206938096Y-52519438D02*
X206900000Y-52671819D01*
X206900000Y-52671819D02*
X206861905Y-52748009D01*
X206861905Y-52748009D02*
X206785715Y-52824200D01*
X206785715Y-52824200D02*
X206671429Y-52862295D01*
X206671429Y-52862295D02*
X206480953Y-52862295D01*
X207280953Y-52862295D02*
X207280953Y-52062295D01*
D12*
X200119048Y-52701000D02*
X200190476Y-52724809D01*
X200190476Y-52724809D02*
X200309524Y-52724809D01*
X200309524Y-52724809D02*
X200357143Y-52701000D01*
X200357143Y-52701000D02*
X200380952Y-52677190D01*
X200380952Y-52677190D02*
X200404762Y-52629571D01*
X200404762Y-52629571D02*
X200404762Y-52581952D01*
X200404762Y-52581952D02*
X200380952Y-52534333D01*
X200380952Y-52534333D02*
X200357143Y-52510523D01*
X200357143Y-52510523D02*
X200309524Y-52486714D01*
X200309524Y-52486714D02*
X200214286Y-52462904D01*
X200214286Y-52462904D02*
X200166667Y-52439095D01*
X200166667Y-52439095D02*
X200142857Y-52415285D01*
X200142857Y-52415285D02*
X200119048Y-52367666D01*
X200119048Y-52367666D02*
X200119048Y-52320047D01*
X200119048Y-52320047D02*
X200142857Y-52272428D01*
X200142857Y-52272428D02*
X200166667Y-52248619D01*
X200166667Y-52248619D02*
X200214286Y-52224809D01*
X200214286Y-52224809D02*
X200333333Y-52224809D01*
X200333333Y-52224809D02*
X200404762Y-52248619D01*
X200571428Y-52224809D02*
X200690476Y-52724809D01*
X200690476Y-52724809D02*
X200785714Y-52367666D01*
X200785714Y-52367666D02*
X200880952Y-52724809D01*
X200880952Y-52724809D02*
X201000000Y-52224809D01*
X201476190Y-52677190D02*
X201452381Y-52701000D01*
X201452381Y-52701000D02*
X201380952Y-52724809D01*
X201380952Y-52724809D02*
X201333333Y-52724809D01*
X201333333Y-52724809D02*
X201261905Y-52701000D01*
X201261905Y-52701000D02*
X201214286Y-52653380D01*
X201214286Y-52653380D02*
X201190476Y-52605761D01*
X201190476Y-52605761D02*
X201166667Y-52510523D01*
X201166667Y-52510523D02*
X201166667Y-52439095D01*
X201166667Y-52439095D02*
X201190476Y-52343857D01*
X201190476Y-52343857D02*
X201214286Y-52296238D01*
X201214286Y-52296238D02*
X201261905Y-52248619D01*
X201261905Y-52248619D02*
X201333333Y-52224809D01*
X201333333Y-52224809D02*
X201380952Y-52224809D01*
X201380952Y-52224809D02*
X201452381Y-52248619D01*
X201452381Y-52248619D02*
X201476190Y-52272428D01*
X201928571Y-52724809D02*
X201690476Y-52724809D01*
X201690476Y-52724809D02*
X201690476Y-52224809D01*
X202095238Y-52724809D02*
X202095238Y-52224809D01*
X202380952Y-52724809D02*
X202166667Y-52439095D01*
X202380952Y-52224809D02*
X202095238Y-52510523D01*
D11*
X213221428Y-52824200D02*
X213335714Y-52862295D01*
X213335714Y-52862295D02*
X213526190Y-52862295D01*
X213526190Y-52862295D02*
X213602381Y-52824200D01*
X213602381Y-52824200D02*
X213640476Y-52786104D01*
X213640476Y-52786104D02*
X213678571Y-52709914D01*
X213678571Y-52709914D02*
X213678571Y-52633723D01*
X213678571Y-52633723D02*
X213640476Y-52557533D01*
X213640476Y-52557533D02*
X213602381Y-52519438D01*
X213602381Y-52519438D02*
X213526190Y-52481342D01*
X213526190Y-52481342D02*
X213373809Y-52443247D01*
X213373809Y-52443247D02*
X213297619Y-52405152D01*
X213297619Y-52405152D02*
X213259524Y-52367057D01*
X213259524Y-52367057D02*
X213221428Y-52290866D01*
X213221428Y-52290866D02*
X213221428Y-52214676D01*
X213221428Y-52214676D02*
X213259524Y-52138485D01*
X213259524Y-52138485D02*
X213297619Y-52100390D01*
X213297619Y-52100390D02*
X213373809Y-52062295D01*
X213373809Y-52062295D02*
X213564286Y-52062295D01*
X213564286Y-52062295D02*
X213678571Y-52100390D01*
X214478572Y-52786104D02*
X214440476Y-52824200D01*
X214440476Y-52824200D02*
X214326191Y-52862295D01*
X214326191Y-52862295D02*
X214250000Y-52862295D01*
X214250000Y-52862295D02*
X214135714Y-52824200D01*
X214135714Y-52824200D02*
X214059524Y-52748009D01*
X214059524Y-52748009D02*
X214021429Y-52671819D01*
X214021429Y-52671819D02*
X213983333Y-52519438D01*
X213983333Y-52519438D02*
X213983333Y-52405152D01*
X213983333Y-52405152D02*
X214021429Y-52252771D01*
X214021429Y-52252771D02*
X214059524Y-52176580D01*
X214059524Y-52176580D02*
X214135714Y-52100390D01*
X214135714Y-52100390D02*
X214250000Y-52062295D01*
X214250000Y-52062295D02*
X214326191Y-52062295D01*
X214326191Y-52062295D02*
X214440476Y-52100390D01*
X214440476Y-52100390D02*
X214478572Y-52138485D01*
X214821429Y-52862295D02*
X214821429Y-52062295D01*
X215278572Y-52862295D02*
X214935714Y-52405152D01*
X215278572Y-52062295D02*
X214821429Y-52519438D01*
X216616667Y-52786104D02*
X216578571Y-52824200D01*
X216578571Y-52824200D02*
X216464286Y-52862295D01*
X216464286Y-52862295D02*
X216388095Y-52862295D01*
X216388095Y-52862295D02*
X216273809Y-52824200D01*
X216273809Y-52824200D02*
X216197619Y-52748009D01*
X216197619Y-52748009D02*
X216159524Y-52671819D01*
X216159524Y-52671819D02*
X216121428Y-52519438D01*
X216121428Y-52519438D02*
X216121428Y-52405152D01*
X216121428Y-52405152D02*
X216159524Y-52252771D01*
X216159524Y-52252771D02*
X216197619Y-52176580D01*
X216197619Y-52176580D02*
X216273809Y-52100390D01*
X216273809Y-52100390D02*
X216388095Y-52062295D01*
X216388095Y-52062295D02*
X216464286Y-52062295D01*
X216464286Y-52062295D02*
X216578571Y-52100390D01*
X216578571Y-52100390D02*
X216616667Y-52138485D01*
X216921428Y-52824200D02*
X217035714Y-52862295D01*
X217035714Y-52862295D02*
X217226190Y-52862295D01*
X217226190Y-52862295D02*
X217302381Y-52824200D01*
X217302381Y-52824200D02*
X217340476Y-52786104D01*
X217340476Y-52786104D02*
X217378571Y-52709914D01*
X217378571Y-52709914D02*
X217378571Y-52633723D01*
X217378571Y-52633723D02*
X217340476Y-52557533D01*
X217340476Y-52557533D02*
X217302381Y-52519438D01*
X217302381Y-52519438D02*
X217226190Y-52481342D01*
X217226190Y-52481342D02*
X217073809Y-52443247D01*
X217073809Y-52443247D02*
X216997619Y-52405152D01*
X216997619Y-52405152D02*
X216959524Y-52367057D01*
X216959524Y-52367057D02*
X216921428Y-52290866D01*
X216921428Y-52290866D02*
X216921428Y-52214676D01*
X216921428Y-52214676D02*
X216959524Y-52138485D01*
X216959524Y-52138485D02*
X216997619Y-52100390D01*
X216997619Y-52100390D02*
X217073809Y-52062295D01*
X217073809Y-52062295D02*
X217264286Y-52062295D01*
X217264286Y-52062295D02*
X217378571Y-52100390D01*
X208390476Y-52100390D02*
X208314286Y-52062295D01*
X208314286Y-52062295D02*
X208200000Y-52062295D01*
X208200000Y-52062295D02*
X208085714Y-52100390D01*
X208085714Y-52100390D02*
X208009524Y-52176580D01*
X208009524Y-52176580D02*
X207971429Y-52252771D01*
X207971429Y-52252771D02*
X207933333Y-52405152D01*
X207933333Y-52405152D02*
X207933333Y-52519438D01*
X207933333Y-52519438D02*
X207971429Y-52671819D01*
X207971429Y-52671819D02*
X208009524Y-52748009D01*
X208009524Y-52748009D02*
X208085714Y-52824200D01*
X208085714Y-52824200D02*
X208200000Y-52862295D01*
X208200000Y-52862295D02*
X208276191Y-52862295D01*
X208276191Y-52862295D02*
X208390476Y-52824200D01*
X208390476Y-52824200D02*
X208428572Y-52786104D01*
X208428572Y-52786104D02*
X208428572Y-52519438D01*
X208428572Y-52519438D02*
X208276191Y-52519438D01*
X208771429Y-52862295D02*
X208771429Y-52062295D01*
X208771429Y-52062295D02*
X209228572Y-52862295D01*
X209228572Y-52862295D02*
X209228572Y-52062295D01*
X209609524Y-52862295D02*
X209609524Y-52062295D01*
X209609524Y-52062295D02*
X209800000Y-52062295D01*
X209800000Y-52062295D02*
X209914286Y-52100390D01*
X209914286Y-52100390D02*
X209990476Y-52176580D01*
X209990476Y-52176580D02*
X210028571Y-52252771D01*
X210028571Y-52252771D02*
X210066667Y-52405152D01*
X210066667Y-52405152D02*
X210066667Y-52519438D01*
X210066667Y-52519438D02*
X210028571Y-52671819D01*
X210028571Y-52671819D02*
X209990476Y-52748009D01*
X209990476Y-52748009D02*
X209914286Y-52824200D01*
X209914286Y-52824200D02*
X209800000Y-52862295D01*
X209800000Y-52862295D02*
X209609524Y-52862295D01*
X202990476Y-52062295D02*
X203447619Y-52062295D01*
X203219047Y-52862295D02*
X203219047Y-52062295D01*
X203714286Y-52862295D02*
X203714286Y-52062295D01*
X203714286Y-52062295D02*
X204019048Y-52062295D01*
X204019048Y-52062295D02*
X204095238Y-52100390D01*
X204095238Y-52100390D02*
X204133333Y-52138485D01*
X204133333Y-52138485D02*
X204171429Y-52214676D01*
X204171429Y-52214676D02*
X204171429Y-52328961D01*
X204171429Y-52328961D02*
X204133333Y-52405152D01*
X204133333Y-52405152D02*
X204095238Y-52443247D01*
X204095238Y-52443247D02*
X204019048Y-52481342D01*
X204019048Y-52481342D02*
X203714286Y-52481342D01*
X204628571Y-52405152D02*
X204552381Y-52367057D01*
X204552381Y-52367057D02*
X204514286Y-52328961D01*
X204514286Y-52328961D02*
X204476190Y-52252771D01*
X204476190Y-52252771D02*
X204476190Y-52214676D01*
X204476190Y-52214676D02*
X204514286Y-52138485D01*
X204514286Y-52138485D02*
X204552381Y-52100390D01*
X204552381Y-52100390D02*
X204628571Y-52062295D01*
X204628571Y-52062295D02*
X204780952Y-52062295D01*
X204780952Y-52062295D02*
X204857143Y-52100390D01*
X204857143Y-52100390D02*
X204895238Y-52138485D01*
X204895238Y-52138485D02*
X204933333Y-52214676D01*
X204933333Y-52214676D02*
X204933333Y-52252771D01*
X204933333Y-52252771D02*
X204895238Y-52328961D01*
X204895238Y-52328961D02*
X204857143Y-52367057D01*
X204857143Y-52367057D02*
X204780952Y-52405152D01*
X204780952Y-52405152D02*
X204628571Y-52405152D01*
X204628571Y-52405152D02*
X204552381Y-52443247D01*
X204552381Y-52443247D02*
X204514286Y-52481342D01*
X204514286Y-52481342D02*
X204476190Y-52557533D01*
X204476190Y-52557533D02*
X204476190Y-52709914D01*
X204476190Y-52709914D02*
X204514286Y-52786104D01*
X204514286Y-52786104D02*
X204552381Y-52824200D01*
X204552381Y-52824200D02*
X204628571Y-52862295D01*
X204628571Y-52862295D02*
X204780952Y-52862295D01*
X204780952Y-52862295D02*
X204857143Y-52824200D01*
X204857143Y-52824200D02*
X204895238Y-52786104D01*
X204895238Y-52786104D02*
X204933333Y-52709914D01*
X204933333Y-52709914D02*
X204933333Y-52557533D01*
X204933333Y-52557533D02*
X204895238Y-52481342D01*
X204895238Y-52481342D02*
X204857143Y-52443247D01*
X204857143Y-52443247D02*
X204780952Y-52405152D01*
X217157142Y-96054819D02*
X216823809Y-95578628D01*
X216585714Y-96054819D02*
X216585714Y-95054819D01*
X216585714Y-95054819D02*
X216966666Y-95054819D01*
X216966666Y-95054819D02*
X217061904Y-95102438D01*
X217061904Y-95102438D02*
X217109523Y-95150057D01*
X217109523Y-95150057D02*
X217157142Y-95245295D01*
X217157142Y-95245295D02*
X217157142Y-95388152D01*
X217157142Y-95388152D02*
X217109523Y-95483390D01*
X217109523Y-95483390D02*
X217061904Y-95531009D01*
X217061904Y-95531009D02*
X216966666Y-95578628D01*
X216966666Y-95578628D02*
X216585714Y-95578628D01*
X217538095Y-95150057D02*
X217585714Y-95102438D01*
X217585714Y-95102438D02*
X217680952Y-95054819D01*
X217680952Y-95054819D02*
X217919047Y-95054819D01*
X217919047Y-95054819D02*
X218014285Y-95102438D01*
X218014285Y-95102438D02*
X218061904Y-95150057D01*
X218061904Y-95150057D02*
X218109523Y-95245295D01*
X218109523Y-95245295D02*
X218109523Y-95340533D01*
X218109523Y-95340533D02*
X218061904Y-95483390D01*
X218061904Y-95483390D02*
X217490476Y-96054819D01*
X217490476Y-96054819D02*
X218109523Y-96054819D01*
X218442857Y-95054819D02*
X219061904Y-95054819D01*
X219061904Y-95054819D02*
X218728571Y-95435771D01*
X218728571Y-95435771D02*
X218871428Y-95435771D01*
X218871428Y-95435771D02*
X218966666Y-95483390D01*
X218966666Y-95483390D02*
X219014285Y-95531009D01*
X219014285Y-95531009D02*
X219061904Y-95626247D01*
X219061904Y-95626247D02*
X219061904Y-95864342D01*
X219061904Y-95864342D02*
X219014285Y-95959580D01*
X219014285Y-95959580D02*
X218966666Y-96007200D01*
X218966666Y-96007200D02*
X218871428Y-96054819D01*
X218871428Y-96054819D02*
X218585714Y-96054819D01*
X218585714Y-96054819D02*
X218490476Y-96007200D01*
X218490476Y-96007200D02*
X218442857Y-95959580D01*
X185833333Y-65209580D02*
X185785714Y-65257200D01*
X185785714Y-65257200D02*
X185642857Y-65304819D01*
X185642857Y-65304819D02*
X185547619Y-65304819D01*
X185547619Y-65304819D02*
X185404762Y-65257200D01*
X185404762Y-65257200D02*
X185309524Y-65161961D01*
X185309524Y-65161961D02*
X185261905Y-65066723D01*
X185261905Y-65066723D02*
X185214286Y-64876247D01*
X185214286Y-64876247D02*
X185214286Y-64733390D01*
X185214286Y-64733390D02*
X185261905Y-64542914D01*
X185261905Y-64542914D02*
X185309524Y-64447676D01*
X185309524Y-64447676D02*
X185404762Y-64352438D01*
X185404762Y-64352438D02*
X185547619Y-64304819D01*
X185547619Y-64304819D02*
X185642857Y-64304819D01*
X185642857Y-64304819D02*
X185785714Y-64352438D01*
X185785714Y-64352438D02*
X185833333Y-64400057D01*
X186785714Y-65304819D02*
X186214286Y-65304819D01*
X186500000Y-65304819D02*
X186500000Y-64304819D01*
X186500000Y-64304819D02*
X186404762Y-64447676D01*
X186404762Y-64447676D02*
X186309524Y-64542914D01*
X186309524Y-64542914D02*
X186214286Y-64590533D01*
D13*
X192996907Y-91389519D02*
X192978159Y-91408267D01*
X192978159Y-91408267D02*
X192921916Y-91427014D01*
X192921916Y-91427014D02*
X192884421Y-91427014D01*
X192884421Y-91427014D02*
X192828178Y-91408267D01*
X192828178Y-91408267D02*
X192790683Y-91370771D01*
X192790683Y-91370771D02*
X192771935Y-91333276D01*
X192771935Y-91333276D02*
X192753187Y-91258285D01*
X192753187Y-91258285D02*
X192753187Y-91202042D01*
X192753187Y-91202042D02*
X192771935Y-91127052D01*
X192771935Y-91127052D02*
X192790683Y-91089556D01*
X192790683Y-91089556D02*
X192828178Y-91052061D01*
X192828178Y-91052061D02*
X192884421Y-91033313D01*
X192884421Y-91033313D02*
X192921916Y-91033313D01*
X192921916Y-91033313D02*
X192978159Y-91052061D01*
X192978159Y-91052061D02*
X192996907Y-91070809D01*
X193371860Y-91427014D02*
X193146888Y-91427014D01*
X193259374Y-91427014D02*
X193259374Y-91033313D01*
X193259374Y-91033313D02*
X193221879Y-91089556D01*
X193221879Y-91089556D02*
X193184384Y-91127052D01*
X193184384Y-91127052D02*
X193146888Y-91145799D01*
X193503094Y-91033313D02*
X193765561Y-91033313D01*
X193765561Y-91033313D02*
X193596832Y-91427014D01*
D11*
X174709580Y-93642857D02*
X174757200Y-93690476D01*
X174757200Y-93690476D02*
X174804819Y-93833333D01*
X174804819Y-93833333D02*
X174804819Y-93928571D01*
X174804819Y-93928571D02*
X174757200Y-94071428D01*
X174757200Y-94071428D02*
X174661961Y-94166666D01*
X174661961Y-94166666D02*
X174566723Y-94214285D01*
X174566723Y-94214285D02*
X174376247Y-94261904D01*
X174376247Y-94261904D02*
X174233390Y-94261904D01*
X174233390Y-94261904D02*
X174042914Y-94214285D01*
X174042914Y-94214285D02*
X173947676Y-94166666D01*
X173947676Y-94166666D02*
X173852438Y-94071428D01*
X173852438Y-94071428D02*
X173804819Y-93928571D01*
X173804819Y-93928571D02*
X173804819Y-93833333D01*
X173804819Y-93833333D02*
X173852438Y-93690476D01*
X173852438Y-93690476D02*
X173900057Y-93642857D01*
X174804819Y-92690476D02*
X174804819Y-93261904D01*
X174804819Y-92976190D02*
X173804819Y-92976190D01*
X173804819Y-92976190D02*
X173947676Y-93071428D01*
X173947676Y-93071428D02*
X174042914Y-93166666D01*
X174042914Y-93166666D02*
X174090533Y-93261904D01*
X174233390Y-92119047D02*
X174185771Y-92214285D01*
X174185771Y-92214285D02*
X174138152Y-92261904D01*
X174138152Y-92261904D02*
X174042914Y-92309523D01*
X174042914Y-92309523D02*
X173995295Y-92309523D01*
X173995295Y-92309523D02*
X173900057Y-92261904D01*
X173900057Y-92261904D02*
X173852438Y-92214285D01*
X173852438Y-92214285D02*
X173804819Y-92119047D01*
X173804819Y-92119047D02*
X173804819Y-91928571D01*
X173804819Y-91928571D02*
X173852438Y-91833333D01*
X173852438Y-91833333D02*
X173900057Y-91785714D01*
X173900057Y-91785714D02*
X173995295Y-91738095D01*
X173995295Y-91738095D02*
X174042914Y-91738095D01*
X174042914Y-91738095D02*
X174138152Y-91785714D01*
X174138152Y-91785714D02*
X174185771Y-91833333D01*
X174185771Y-91833333D02*
X174233390Y-91928571D01*
X174233390Y-91928571D02*
X174233390Y-92119047D01*
X174233390Y-92119047D02*
X174281009Y-92214285D01*
X174281009Y-92214285D02*
X174328628Y-92261904D01*
X174328628Y-92261904D02*
X174423866Y-92309523D01*
X174423866Y-92309523D02*
X174614342Y-92309523D01*
X174614342Y-92309523D02*
X174709580Y-92261904D01*
X174709580Y-92261904D02*
X174757200Y-92214285D01*
X174757200Y-92214285D02*
X174804819Y-92119047D01*
X174804819Y-92119047D02*
X174804819Y-91928571D01*
X174804819Y-91928571D02*
X174757200Y-91833333D01*
X174757200Y-91833333D02*
X174709580Y-91785714D01*
X174709580Y-91785714D02*
X174614342Y-91738095D01*
X174614342Y-91738095D02*
X174423866Y-91738095D01*
X174423866Y-91738095D02*
X174328628Y-91785714D01*
X174328628Y-91785714D02*
X174281009Y-91833333D01*
X174281009Y-91833333D02*
X174233390Y-91928571D01*
X221954819Y-61333333D02*
X222669104Y-61333333D01*
X222669104Y-61333333D02*
X222811961Y-61380952D01*
X222811961Y-61380952D02*
X222907200Y-61476190D01*
X222907200Y-61476190D02*
X222954819Y-61619047D01*
X222954819Y-61619047D02*
X222954819Y-61714285D01*
X222050057Y-60904761D02*
X222002438Y-60857142D01*
X222002438Y-60857142D02*
X221954819Y-60761904D01*
X221954819Y-60761904D02*
X221954819Y-60523809D01*
X221954819Y-60523809D02*
X222002438Y-60428571D01*
X222002438Y-60428571D02*
X222050057Y-60380952D01*
X222050057Y-60380952D02*
X222145295Y-60333333D01*
X222145295Y-60333333D02*
X222240533Y-60333333D01*
X222240533Y-60333333D02*
X222383390Y-60380952D01*
X222383390Y-60380952D02*
X222954819Y-60952380D01*
X222954819Y-60952380D02*
X222954819Y-60333333D01*
X193857142Y-51509580D02*
X193809523Y-51557200D01*
X193809523Y-51557200D02*
X193666666Y-51604819D01*
X193666666Y-51604819D02*
X193571428Y-51604819D01*
X193571428Y-51604819D02*
X193428571Y-51557200D01*
X193428571Y-51557200D02*
X193333333Y-51461961D01*
X193333333Y-51461961D02*
X193285714Y-51366723D01*
X193285714Y-51366723D02*
X193238095Y-51176247D01*
X193238095Y-51176247D02*
X193238095Y-51033390D01*
X193238095Y-51033390D02*
X193285714Y-50842914D01*
X193285714Y-50842914D02*
X193333333Y-50747676D01*
X193333333Y-50747676D02*
X193428571Y-50652438D01*
X193428571Y-50652438D02*
X193571428Y-50604819D01*
X193571428Y-50604819D02*
X193666666Y-50604819D01*
X193666666Y-50604819D02*
X193809523Y-50652438D01*
X193809523Y-50652438D02*
X193857142Y-50700057D01*
X194238095Y-50700057D02*
X194285714Y-50652438D01*
X194285714Y-50652438D02*
X194380952Y-50604819D01*
X194380952Y-50604819D02*
X194619047Y-50604819D01*
X194619047Y-50604819D02*
X194714285Y-50652438D01*
X194714285Y-50652438D02*
X194761904Y-50700057D01*
X194761904Y-50700057D02*
X194809523Y-50795295D01*
X194809523Y-50795295D02*
X194809523Y-50890533D01*
X194809523Y-50890533D02*
X194761904Y-51033390D01*
X194761904Y-51033390D02*
X194190476Y-51604819D01*
X194190476Y-51604819D02*
X194809523Y-51604819D01*
X195761904Y-51604819D02*
X195190476Y-51604819D01*
X195476190Y-51604819D02*
X195476190Y-50604819D01*
X195476190Y-50604819D02*
X195380952Y-50747676D01*
X195380952Y-50747676D02*
X195285714Y-50842914D01*
X195285714Y-50842914D02*
X195190476Y-50890533D01*
D14*
X170010237Y-76074318D02*
X170010237Y-74804318D01*
X171340714Y-75953365D02*
X171280238Y-76013842D01*
X171280238Y-76013842D02*
X171098809Y-76074318D01*
X171098809Y-76074318D02*
X170977857Y-76074318D01*
X170977857Y-76074318D02*
X170796428Y-76013842D01*
X170796428Y-76013842D02*
X170675476Y-75892889D01*
X170675476Y-75892889D02*
X170614999Y-75771937D01*
X170614999Y-75771937D02*
X170554523Y-75530032D01*
X170554523Y-75530032D02*
X170554523Y-75348603D01*
X170554523Y-75348603D02*
X170614999Y-75106699D01*
X170614999Y-75106699D02*
X170675476Y-74985746D01*
X170675476Y-74985746D02*
X170796428Y-74864794D01*
X170796428Y-74864794D02*
X170977857Y-74804318D01*
X170977857Y-74804318D02*
X171098809Y-74804318D01*
X171098809Y-74804318D02*
X171280238Y-74864794D01*
X171280238Y-74864794D02*
X171340714Y-74925270D01*
X172429285Y-74804318D02*
X172187380Y-74804318D01*
X172187380Y-74804318D02*
X172066428Y-74864794D01*
X172066428Y-74864794D02*
X172005952Y-74925270D01*
X172005952Y-74925270D02*
X171884999Y-75106699D01*
X171884999Y-75106699D02*
X171824523Y-75348603D01*
X171824523Y-75348603D02*
X171824523Y-75832413D01*
X171824523Y-75832413D02*
X171884999Y-75953365D01*
X171884999Y-75953365D02*
X171945476Y-76013842D01*
X171945476Y-76013842D02*
X172066428Y-76074318D01*
X172066428Y-76074318D02*
X172308333Y-76074318D01*
X172308333Y-76074318D02*
X172429285Y-76013842D01*
X172429285Y-76013842D02*
X172489761Y-75953365D01*
X172489761Y-75953365D02*
X172550238Y-75832413D01*
X172550238Y-75832413D02*
X172550238Y-75530032D01*
X172550238Y-75530032D02*
X172489761Y-75409080D01*
X172489761Y-75409080D02*
X172429285Y-75348603D01*
X172429285Y-75348603D02*
X172308333Y-75288127D01*
X172308333Y-75288127D02*
X172066428Y-75288127D01*
X172066428Y-75288127D02*
X171945476Y-75348603D01*
X171945476Y-75348603D02*
X171884999Y-75409080D01*
X171884999Y-75409080D02*
X171824523Y-75530032D01*
D12*
X134678571Y-72177190D02*
X134654762Y-72201000D01*
X134654762Y-72201000D02*
X134583333Y-72224809D01*
X134583333Y-72224809D02*
X134535714Y-72224809D01*
X134535714Y-72224809D02*
X134464286Y-72201000D01*
X134464286Y-72201000D02*
X134416667Y-72153380D01*
X134416667Y-72153380D02*
X134392857Y-72105761D01*
X134392857Y-72105761D02*
X134369048Y-72010523D01*
X134369048Y-72010523D02*
X134369048Y-71939095D01*
X134369048Y-71939095D02*
X134392857Y-71843857D01*
X134392857Y-71843857D02*
X134416667Y-71796238D01*
X134416667Y-71796238D02*
X134464286Y-71748619D01*
X134464286Y-71748619D02*
X134535714Y-71724809D01*
X134535714Y-71724809D02*
X134583333Y-71724809D01*
X134583333Y-71724809D02*
X134654762Y-71748619D01*
X134654762Y-71748619D02*
X134678571Y-71772428D01*
X134869048Y-71772428D02*
X134892857Y-71748619D01*
X134892857Y-71748619D02*
X134940476Y-71724809D01*
X134940476Y-71724809D02*
X135059524Y-71724809D01*
X135059524Y-71724809D02*
X135107143Y-71748619D01*
X135107143Y-71748619D02*
X135130952Y-71772428D01*
X135130952Y-71772428D02*
X135154762Y-71820047D01*
X135154762Y-71820047D02*
X135154762Y-71867666D01*
X135154762Y-71867666D02*
X135130952Y-71939095D01*
X135130952Y-71939095D02*
X134845238Y-72224809D01*
X134845238Y-72224809D02*
X135154762Y-72224809D01*
X135345238Y-71772428D02*
X135369047Y-71748619D01*
X135369047Y-71748619D02*
X135416666Y-71724809D01*
X135416666Y-71724809D02*
X135535714Y-71724809D01*
X135535714Y-71724809D02*
X135583333Y-71748619D01*
X135583333Y-71748619D02*
X135607142Y-71772428D01*
X135607142Y-71772428D02*
X135630952Y-71820047D01*
X135630952Y-71820047D02*
X135630952Y-71867666D01*
X135630952Y-71867666D02*
X135607142Y-71939095D01*
X135607142Y-71939095D02*
X135321428Y-72224809D01*
X135321428Y-72224809D02*
X135630952Y-72224809D01*
D11*
X187209580Y-93392857D02*
X187257200Y-93440476D01*
X187257200Y-93440476D02*
X187304819Y-93583333D01*
X187304819Y-93583333D02*
X187304819Y-93678571D01*
X187304819Y-93678571D02*
X187257200Y-93821428D01*
X187257200Y-93821428D02*
X187161961Y-93916666D01*
X187161961Y-93916666D02*
X187066723Y-93964285D01*
X187066723Y-93964285D02*
X186876247Y-94011904D01*
X186876247Y-94011904D02*
X186733390Y-94011904D01*
X186733390Y-94011904D02*
X186542914Y-93964285D01*
X186542914Y-93964285D02*
X186447676Y-93916666D01*
X186447676Y-93916666D02*
X186352438Y-93821428D01*
X186352438Y-93821428D02*
X186304819Y-93678571D01*
X186304819Y-93678571D02*
X186304819Y-93583333D01*
X186304819Y-93583333D02*
X186352438Y-93440476D01*
X186352438Y-93440476D02*
X186400057Y-93392857D01*
X187304819Y-92440476D02*
X187304819Y-93011904D01*
X187304819Y-92726190D02*
X186304819Y-92726190D01*
X186304819Y-92726190D02*
X186447676Y-92821428D01*
X186447676Y-92821428D02*
X186542914Y-92916666D01*
X186542914Y-92916666D02*
X186590533Y-93011904D01*
X187304819Y-91964285D02*
X187304819Y-91773809D01*
X187304819Y-91773809D02*
X187257200Y-91678571D01*
X187257200Y-91678571D02*
X187209580Y-91630952D01*
X187209580Y-91630952D02*
X187066723Y-91535714D01*
X187066723Y-91535714D02*
X186876247Y-91488095D01*
X186876247Y-91488095D02*
X186495295Y-91488095D01*
X186495295Y-91488095D02*
X186400057Y-91535714D01*
X186400057Y-91535714D02*
X186352438Y-91583333D01*
X186352438Y-91583333D02*
X186304819Y-91678571D01*
X186304819Y-91678571D02*
X186304819Y-91869047D01*
X186304819Y-91869047D02*
X186352438Y-91964285D01*
X186352438Y-91964285D02*
X186400057Y-92011904D01*
X186400057Y-92011904D02*
X186495295Y-92059523D01*
X186495295Y-92059523D02*
X186733390Y-92059523D01*
X186733390Y-92059523D02*
X186828628Y-92011904D01*
X186828628Y-92011904D02*
X186876247Y-91964285D01*
X186876247Y-91964285D02*
X186923866Y-91869047D01*
X186923866Y-91869047D02*
X186923866Y-91678571D01*
X186923866Y-91678571D02*
X186876247Y-91583333D01*
X186876247Y-91583333D02*
X186828628Y-91535714D01*
X186828628Y-91535714D02*
X186733390Y-91488095D01*
X156583333Y-95454819D02*
X156250000Y-94978628D01*
X156011905Y-95454819D02*
X156011905Y-94454819D01*
X156011905Y-94454819D02*
X156392857Y-94454819D01*
X156392857Y-94454819D02*
X156488095Y-94502438D01*
X156488095Y-94502438D02*
X156535714Y-94550057D01*
X156535714Y-94550057D02*
X156583333Y-94645295D01*
X156583333Y-94645295D02*
X156583333Y-94788152D01*
X156583333Y-94788152D02*
X156535714Y-94883390D01*
X156535714Y-94883390D02*
X156488095Y-94931009D01*
X156488095Y-94931009D02*
X156392857Y-94978628D01*
X156392857Y-94978628D02*
X156011905Y-94978628D01*
X156964286Y-94550057D02*
X157011905Y-94502438D01*
X157011905Y-94502438D02*
X157107143Y-94454819D01*
X157107143Y-94454819D02*
X157345238Y-94454819D01*
X157345238Y-94454819D02*
X157440476Y-94502438D01*
X157440476Y-94502438D02*
X157488095Y-94550057D01*
X157488095Y-94550057D02*
X157535714Y-94645295D01*
X157535714Y-94645295D02*
X157535714Y-94740533D01*
X157535714Y-94740533D02*
X157488095Y-94883390D01*
X157488095Y-94883390D02*
X156916667Y-95454819D01*
X156916667Y-95454819D02*
X157535714Y-95454819D01*
X160488095Y-85954819D02*
X160488095Y-86764342D01*
X160488095Y-86764342D02*
X160535714Y-86859580D01*
X160535714Y-86859580D02*
X160583333Y-86907200D01*
X160583333Y-86907200D02*
X160678571Y-86954819D01*
X160678571Y-86954819D02*
X160869047Y-86954819D01*
X160869047Y-86954819D02*
X160964285Y-86907200D01*
X160964285Y-86907200D02*
X161011904Y-86859580D01*
X161011904Y-86859580D02*
X161059523Y-86764342D01*
X161059523Y-86764342D02*
X161059523Y-85954819D01*
X161440476Y-85954819D02*
X162059523Y-85954819D01*
X162059523Y-85954819D02*
X161726190Y-86335771D01*
X161726190Y-86335771D02*
X161869047Y-86335771D01*
X161869047Y-86335771D02*
X161964285Y-86383390D01*
X161964285Y-86383390D02*
X162011904Y-86431009D01*
X162011904Y-86431009D02*
X162059523Y-86526247D01*
X162059523Y-86526247D02*
X162059523Y-86764342D01*
X162059523Y-86764342D02*
X162011904Y-86859580D01*
X162011904Y-86859580D02*
X161964285Y-86907200D01*
X161964285Y-86907200D02*
X161869047Y-86954819D01*
X161869047Y-86954819D02*
X161583333Y-86954819D01*
X161583333Y-86954819D02*
X161488095Y-86907200D01*
X161488095Y-86907200D02*
X161440476Y-86859580D01*
X139045180Y-73738095D02*
X138235657Y-73738095D01*
X138235657Y-73738095D02*
X138140419Y-73785714D01*
X138140419Y-73785714D02*
X138092800Y-73833333D01*
X138092800Y-73833333D02*
X138045180Y-73928571D01*
X138045180Y-73928571D02*
X138045180Y-74119047D01*
X138045180Y-74119047D02*
X138092800Y-74214285D01*
X138092800Y-74214285D02*
X138140419Y-74261904D01*
X138140419Y-74261904D02*
X138235657Y-74309523D01*
X138235657Y-74309523D02*
X139045180Y-74309523D01*
X139045180Y-74976190D02*
X139045180Y-75071428D01*
X139045180Y-75071428D02*
X138997561Y-75166666D01*
X138997561Y-75166666D02*
X138949942Y-75214285D01*
X138949942Y-75214285D02*
X138854704Y-75261904D01*
X138854704Y-75261904D02*
X138664228Y-75309523D01*
X138664228Y-75309523D02*
X138426133Y-75309523D01*
X138426133Y-75309523D02*
X138235657Y-75261904D01*
X138235657Y-75261904D02*
X138140419Y-75214285D01*
X138140419Y-75214285D02*
X138092800Y-75166666D01*
X138092800Y-75166666D02*
X138045180Y-75071428D01*
X138045180Y-75071428D02*
X138045180Y-74976190D01*
X138045180Y-74976190D02*
X138092800Y-74880952D01*
X138092800Y-74880952D02*
X138140419Y-74833333D01*
X138140419Y-74833333D02*
X138235657Y-74785714D01*
X138235657Y-74785714D02*
X138426133Y-74738095D01*
X138426133Y-74738095D02*
X138664228Y-74738095D01*
X138664228Y-74738095D02*
X138854704Y-74785714D01*
X138854704Y-74785714D02*
X138949942Y-74833333D01*
X138949942Y-74833333D02*
X138997561Y-74880952D01*
X138997561Y-74880952D02*
X139045180Y-74976190D01*
X214817319Y-62938094D02*
X213817319Y-62938094D01*
X213817319Y-62938094D02*
X213817319Y-62699999D01*
X213817319Y-62699999D02*
X213864938Y-62557142D01*
X213864938Y-62557142D02*
X213960176Y-62461904D01*
X213960176Y-62461904D02*
X214055414Y-62414285D01*
X214055414Y-62414285D02*
X214245890Y-62366666D01*
X214245890Y-62366666D02*
X214388747Y-62366666D01*
X214388747Y-62366666D02*
X214579223Y-62414285D01*
X214579223Y-62414285D02*
X214674461Y-62461904D01*
X214674461Y-62461904D02*
X214769700Y-62557142D01*
X214769700Y-62557142D02*
X214817319Y-62699999D01*
X214817319Y-62699999D02*
X214817319Y-62938094D01*
X213817319Y-61461904D02*
X213817319Y-61938094D01*
X213817319Y-61938094D02*
X214293509Y-61985713D01*
X214293509Y-61985713D02*
X214245890Y-61938094D01*
X214245890Y-61938094D02*
X214198271Y-61842856D01*
X214198271Y-61842856D02*
X214198271Y-61604761D01*
X214198271Y-61604761D02*
X214245890Y-61509523D01*
X214245890Y-61509523D02*
X214293509Y-61461904D01*
X214293509Y-61461904D02*
X214388747Y-61414285D01*
X214388747Y-61414285D02*
X214626842Y-61414285D01*
X214626842Y-61414285D02*
X214722080Y-61461904D01*
X214722080Y-61461904D02*
X214769700Y-61509523D01*
X214769700Y-61509523D02*
X214817319Y-61604761D01*
X214817319Y-61604761D02*
X214817319Y-61842856D01*
X214817319Y-61842856D02*
X214769700Y-61938094D01*
X214769700Y-61938094D02*
X214722080Y-61985713D01*
X217407142Y-56774819D02*
X217073809Y-56298628D01*
X216835714Y-56774819D02*
X216835714Y-55774819D01*
X216835714Y-55774819D02*
X217216666Y-55774819D01*
X217216666Y-55774819D02*
X217311904Y-55822438D01*
X217311904Y-55822438D02*
X217359523Y-55870057D01*
X217359523Y-55870057D02*
X217407142Y-55965295D01*
X217407142Y-55965295D02*
X217407142Y-56108152D01*
X217407142Y-56108152D02*
X217359523Y-56203390D01*
X217359523Y-56203390D02*
X217311904Y-56251009D01*
X217311904Y-56251009D02*
X217216666Y-56298628D01*
X217216666Y-56298628D02*
X216835714Y-56298628D01*
X218359523Y-56774819D02*
X217788095Y-56774819D01*
X218073809Y-56774819D02*
X218073809Y-55774819D01*
X218073809Y-55774819D02*
X217978571Y-55917676D01*
X217978571Y-55917676D02*
X217883333Y-56012914D01*
X217883333Y-56012914D02*
X217788095Y-56060533D01*
X218978571Y-55774819D02*
X219073809Y-55774819D01*
X219073809Y-55774819D02*
X219169047Y-55822438D01*
X219169047Y-55822438D02*
X219216666Y-55870057D01*
X219216666Y-55870057D02*
X219264285Y-55965295D01*
X219264285Y-55965295D02*
X219311904Y-56155771D01*
X219311904Y-56155771D02*
X219311904Y-56393866D01*
X219311904Y-56393866D02*
X219264285Y-56584342D01*
X219264285Y-56584342D02*
X219216666Y-56679580D01*
X219216666Y-56679580D02*
X219169047Y-56727200D01*
X219169047Y-56727200D02*
X219073809Y-56774819D01*
X219073809Y-56774819D02*
X218978571Y-56774819D01*
X218978571Y-56774819D02*
X218883333Y-56727200D01*
X218883333Y-56727200D02*
X218835714Y-56679580D01*
X218835714Y-56679580D02*
X218788095Y-56584342D01*
X218788095Y-56584342D02*
X218740476Y-56393866D01*
X218740476Y-56393866D02*
X218740476Y-56155771D01*
X218740476Y-56155771D02*
X218788095Y-55965295D01*
X218788095Y-55965295D02*
X218835714Y-55870057D01*
X218835714Y-55870057D02*
X218883333Y-55822438D01*
X218883333Y-55822438D02*
X218978571Y-55774819D01*
X214804819Y-58738094D02*
X213804819Y-58738094D01*
X213804819Y-58738094D02*
X213804819Y-58499999D01*
X213804819Y-58499999D02*
X213852438Y-58357142D01*
X213852438Y-58357142D02*
X213947676Y-58261904D01*
X213947676Y-58261904D02*
X214042914Y-58214285D01*
X214042914Y-58214285D02*
X214233390Y-58166666D01*
X214233390Y-58166666D02*
X214376247Y-58166666D01*
X214376247Y-58166666D02*
X214566723Y-58214285D01*
X214566723Y-58214285D02*
X214661961Y-58261904D01*
X214661961Y-58261904D02*
X214757200Y-58357142D01*
X214757200Y-58357142D02*
X214804819Y-58499999D01*
X214804819Y-58499999D02*
X214804819Y-58738094D01*
X213804819Y-57309523D02*
X213804819Y-57499999D01*
X213804819Y-57499999D02*
X213852438Y-57595237D01*
X213852438Y-57595237D02*
X213900057Y-57642856D01*
X213900057Y-57642856D02*
X214042914Y-57738094D01*
X214042914Y-57738094D02*
X214233390Y-57785713D01*
X214233390Y-57785713D02*
X214614342Y-57785713D01*
X214614342Y-57785713D02*
X214709580Y-57738094D01*
X214709580Y-57738094D02*
X214757200Y-57690475D01*
X214757200Y-57690475D02*
X214804819Y-57595237D01*
X214804819Y-57595237D02*
X214804819Y-57404761D01*
X214804819Y-57404761D02*
X214757200Y-57309523D01*
X214757200Y-57309523D02*
X214709580Y-57261904D01*
X214709580Y-57261904D02*
X214614342Y-57214285D01*
X214614342Y-57214285D02*
X214376247Y-57214285D01*
X214376247Y-57214285D02*
X214281009Y-57261904D01*
X214281009Y-57261904D02*
X214233390Y-57309523D01*
X214233390Y-57309523D02*
X214185771Y-57404761D01*
X214185771Y-57404761D02*
X214185771Y-57595237D01*
X214185771Y-57595237D02*
X214233390Y-57690475D01*
X214233390Y-57690475D02*
X214281009Y-57738094D01*
X214281009Y-57738094D02*
X214376247Y-57785713D01*
D15*
X139909471Y-80789285D02*
X139930900Y-80810713D01*
X139930900Y-80810713D02*
X139952328Y-80874999D01*
X139952328Y-80874999D02*
X139952328Y-80917856D01*
X139952328Y-80917856D02*
X139930900Y-80982142D01*
X139930900Y-80982142D02*
X139888042Y-81024999D01*
X139888042Y-81024999D02*
X139845185Y-81046428D01*
X139845185Y-81046428D02*
X139759471Y-81067856D01*
X139759471Y-81067856D02*
X139695185Y-81067856D01*
X139695185Y-81067856D02*
X139609471Y-81046428D01*
X139609471Y-81046428D02*
X139566614Y-81024999D01*
X139566614Y-81024999D02*
X139523757Y-80982142D01*
X139523757Y-80982142D02*
X139502328Y-80917856D01*
X139502328Y-80917856D02*
X139502328Y-80874999D01*
X139502328Y-80874999D02*
X139523757Y-80810713D01*
X139523757Y-80810713D02*
X139545185Y-80789285D01*
X139545185Y-80617856D02*
X139523757Y-80596428D01*
X139523757Y-80596428D02*
X139502328Y-80553571D01*
X139502328Y-80553571D02*
X139502328Y-80446428D01*
X139502328Y-80446428D02*
X139523757Y-80403571D01*
X139523757Y-80403571D02*
X139545185Y-80382142D01*
X139545185Y-80382142D02*
X139588042Y-80360713D01*
X139588042Y-80360713D02*
X139630900Y-80360713D01*
X139630900Y-80360713D02*
X139695185Y-80382142D01*
X139695185Y-80382142D02*
X139952328Y-80639285D01*
X139952328Y-80639285D02*
X139952328Y-80360713D01*
X139502328Y-80210714D02*
X139502328Y-79932142D01*
X139502328Y-79932142D02*
X139673757Y-80082142D01*
X139673757Y-80082142D02*
X139673757Y-80017857D01*
X139673757Y-80017857D02*
X139695185Y-79975000D01*
X139695185Y-79975000D02*
X139716614Y-79953571D01*
X139716614Y-79953571D02*
X139759471Y-79932142D01*
X139759471Y-79932142D02*
X139866614Y-79932142D01*
X139866614Y-79932142D02*
X139909471Y-79953571D01*
X139909471Y-79953571D02*
X139930900Y-79975000D01*
X139930900Y-79975000D02*
X139952328Y-80017857D01*
X139952328Y-80017857D02*
X139952328Y-80146428D01*
X139952328Y-80146428D02*
X139930900Y-80189285D01*
X139930900Y-80189285D02*
X139909471Y-80210714D01*
D11*
X206154819Y-89138094D02*
X205154819Y-89138094D01*
X205154819Y-89138094D02*
X205154819Y-88899999D01*
X205154819Y-88899999D02*
X205202438Y-88757142D01*
X205202438Y-88757142D02*
X205297676Y-88661904D01*
X205297676Y-88661904D02*
X205392914Y-88614285D01*
X205392914Y-88614285D02*
X205583390Y-88566666D01*
X205583390Y-88566666D02*
X205726247Y-88566666D01*
X205726247Y-88566666D02*
X205916723Y-88614285D01*
X205916723Y-88614285D02*
X206011961Y-88661904D01*
X206011961Y-88661904D02*
X206107200Y-88757142D01*
X206107200Y-88757142D02*
X206154819Y-88899999D01*
X206154819Y-88899999D02*
X206154819Y-89138094D01*
X205154819Y-88233332D02*
X205154819Y-87614285D01*
X205154819Y-87614285D02*
X205535771Y-87947618D01*
X205535771Y-87947618D02*
X205535771Y-87804761D01*
X205535771Y-87804761D02*
X205583390Y-87709523D01*
X205583390Y-87709523D02*
X205631009Y-87661904D01*
X205631009Y-87661904D02*
X205726247Y-87614285D01*
X205726247Y-87614285D02*
X205964342Y-87614285D01*
X205964342Y-87614285D02*
X206059580Y-87661904D01*
X206059580Y-87661904D02*
X206107200Y-87709523D01*
X206107200Y-87709523D02*
X206154819Y-87804761D01*
X206154819Y-87804761D02*
X206154819Y-88090475D01*
X206154819Y-88090475D02*
X206107200Y-88185713D01*
X206107200Y-88185713D02*
X206059580Y-88233332D01*
X205904819Y-83688094D02*
X204904819Y-83688094D01*
X204904819Y-83688094D02*
X204904819Y-83449999D01*
X204904819Y-83449999D02*
X204952438Y-83307142D01*
X204952438Y-83307142D02*
X205047676Y-83211904D01*
X205047676Y-83211904D02*
X205142914Y-83164285D01*
X205142914Y-83164285D02*
X205333390Y-83116666D01*
X205333390Y-83116666D02*
X205476247Y-83116666D01*
X205476247Y-83116666D02*
X205666723Y-83164285D01*
X205666723Y-83164285D02*
X205761961Y-83211904D01*
X205761961Y-83211904D02*
X205857200Y-83307142D01*
X205857200Y-83307142D02*
X205904819Y-83449999D01*
X205904819Y-83449999D02*
X205904819Y-83688094D01*
X205000057Y-82735713D02*
X204952438Y-82688094D01*
X204952438Y-82688094D02*
X204904819Y-82592856D01*
X204904819Y-82592856D02*
X204904819Y-82354761D01*
X204904819Y-82354761D02*
X204952438Y-82259523D01*
X204952438Y-82259523D02*
X205000057Y-82211904D01*
X205000057Y-82211904D02*
X205095295Y-82164285D01*
X205095295Y-82164285D02*
X205190533Y-82164285D01*
X205190533Y-82164285D02*
X205333390Y-82211904D01*
X205333390Y-82211904D02*
X205904819Y-82783332D01*
X205904819Y-82783332D02*
X205904819Y-82164285D01*
X132416666Y-85954819D02*
X132416666Y-86669104D01*
X132416666Y-86669104D02*
X132369047Y-86811961D01*
X132369047Y-86811961D02*
X132273809Y-86907200D01*
X132273809Y-86907200D02*
X132130952Y-86954819D01*
X132130952Y-86954819D02*
X132035714Y-86954819D01*
X133369047Y-85954819D02*
X132892857Y-85954819D01*
X132892857Y-85954819D02*
X132845238Y-86431009D01*
X132845238Y-86431009D02*
X132892857Y-86383390D01*
X132892857Y-86383390D02*
X132988095Y-86335771D01*
X132988095Y-86335771D02*
X133226190Y-86335771D01*
X133226190Y-86335771D02*
X133321428Y-86383390D01*
X133321428Y-86383390D02*
X133369047Y-86431009D01*
X133369047Y-86431009D02*
X133416666Y-86526247D01*
X133416666Y-86526247D02*
X133416666Y-86764342D01*
X133416666Y-86764342D02*
X133369047Y-86859580D01*
X133369047Y-86859580D02*
X133321428Y-86907200D01*
X133321428Y-86907200D02*
X133226190Y-86954819D01*
X133226190Y-86954819D02*
X132988095Y-86954819D01*
X132988095Y-86954819D02*
X132892857Y-86907200D01*
X132892857Y-86907200D02*
X132845238Y-86859580D01*
X221954819Y-77333333D02*
X222669104Y-77333333D01*
X222669104Y-77333333D02*
X222811961Y-77380952D01*
X222811961Y-77380952D02*
X222907200Y-77476190D01*
X222907200Y-77476190D02*
X222954819Y-77619047D01*
X222954819Y-77619047D02*
X222954819Y-77714285D01*
X222288152Y-76428571D02*
X222954819Y-76428571D01*
X221907200Y-76666666D02*
X222621485Y-76904761D01*
X222621485Y-76904761D02*
X222621485Y-76285714D01*
D13*
X178689519Y-81365616D02*
X178708267Y-81384364D01*
X178708267Y-81384364D02*
X178727014Y-81440607D01*
X178727014Y-81440607D02*
X178727014Y-81478102D01*
X178727014Y-81478102D02*
X178708267Y-81534345D01*
X178708267Y-81534345D02*
X178670771Y-81571841D01*
X178670771Y-81571841D02*
X178633276Y-81590588D01*
X178633276Y-81590588D02*
X178558285Y-81609336D01*
X178558285Y-81609336D02*
X178502042Y-81609336D01*
X178502042Y-81609336D02*
X178427052Y-81590588D01*
X178427052Y-81590588D02*
X178389556Y-81571841D01*
X178389556Y-81571841D02*
X178352061Y-81534345D01*
X178352061Y-81534345D02*
X178333313Y-81478102D01*
X178333313Y-81478102D02*
X178333313Y-81440607D01*
X178333313Y-81440607D02*
X178352061Y-81384364D01*
X178352061Y-81384364D02*
X178370809Y-81365616D01*
X178464547Y-81028158D02*
X178727014Y-81028158D01*
X178314566Y-81121897D02*
X178595781Y-81215635D01*
X178595781Y-81215635D02*
X178595781Y-80971915D01*
D11*
X157209580Y-86166666D02*
X157257200Y-86214285D01*
X157257200Y-86214285D02*
X157304819Y-86357142D01*
X157304819Y-86357142D02*
X157304819Y-86452380D01*
X157304819Y-86452380D02*
X157257200Y-86595237D01*
X157257200Y-86595237D02*
X157161961Y-86690475D01*
X157161961Y-86690475D02*
X157066723Y-86738094D01*
X157066723Y-86738094D02*
X156876247Y-86785713D01*
X156876247Y-86785713D02*
X156733390Y-86785713D01*
X156733390Y-86785713D02*
X156542914Y-86738094D01*
X156542914Y-86738094D02*
X156447676Y-86690475D01*
X156447676Y-86690475D02*
X156352438Y-86595237D01*
X156352438Y-86595237D02*
X156304819Y-86452380D01*
X156304819Y-86452380D02*
X156304819Y-86357142D01*
X156304819Y-86357142D02*
X156352438Y-86214285D01*
X156352438Y-86214285D02*
X156400057Y-86166666D01*
X157304819Y-85690475D02*
X157304819Y-85499999D01*
X157304819Y-85499999D02*
X157257200Y-85404761D01*
X157257200Y-85404761D02*
X157209580Y-85357142D01*
X157209580Y-85357142D02*
X157066723Y-85261904D01*
X157066723Y-85261904D02*
X156876247Y-85214285D01*
X156876247Y-85214285D02*
X156495295Y-85214285D01*
X156495295Y-85214285D02*
X156400057Y-85261904D01*
X156400057Y-85261904D02*
X156352438Y-85309523D01*
X156352438Y-85309523D02*
X156304819Y-85404761D01*
X156304819Y-85404761D02*
X156304819Y-85595237D01*
X156304819Y-85595237D02*
X156352438Y-85690475D01*
X156352438Y-85690475D02*
X156400057Y-85738094D01*
X156400057Y-85738094D02*
X156495295Y-85785713D01*
X156495295Y-85785713D02*
X156733390Y-85785713D01*
X156733390Y-85785713D02*
X156828628Y-85738094D01*
X156828628Y-85738094D02*
X156876247Y-85690475D01*
X156876247Y-85690475D02*
X156923866Y-85595237D01*
X156923866Y-85595237D02*
X156923866Y-85404761D01*
X156923866Y-85404761D02*
X156876247Y-85309523D01*
X156876247Y-85309523D02*
X156828628Y-85261904D01*
X156828628Y-85261904D02*
X156733390Y-85214285D01*
X214717319Y-73288094D02*
X213717319Y-73288094D01*
X213717319Y-73288094D02*
X213717319Y-73049999D01*
X213717319Y-73049999D02*
X213764938Y-72907142D01*
X213764938Y-72907142D02*
X213860176Y-72811904D01*
X213860176Y-72811904D02*
X213955414Y-72764285D01*
X213955414Y-72764285D02*
X214145890Y-72716666D01*
X214145890Y-72716666D02*
X214288747Y-72716666D01*
X214288747Y-72716666D02*
X214479223Y-72764285D01*
X214479223Y-72764285D02*
X214574461Y-72811904D01*
X214574461Y-72811904D02*
X214669700Y-72907142D01*
X214669700Y-72907142D02*
X214717319Y-73049999D01*
X214717319Y-73049999D02*
X214717319Y-73288094D01*
X213717319Y-72383332D02*
X213717319Y-71716666D01*
X213717319Y-71716666D02*
X214717319Y-72145237D01*
X170761904Y-66545180D02*
X170761904Y-65735657D01*
X170761904Y-65735657D02*
X170714285Y-65640419D01*
X170714285Y-65640419D02*
X170666666Y-65592800D01*
X170666666Y-65592800D02*
X170571428Y-65545180D01*
X170571428Y-65545180D02*
X170380952Y-65545180D01*
X170380952Y-65545180D02*
X170285714Y-65592800D01*
X170285714Y-65592800D02*
X170238095Y-65640419D01*
X170238095Y-65640419D02*
X170190476Y-65735657D01*
X170190476Y-65735657D02*
X170190476Y-66545180D01*
X169666666Y-65545180D02*
X169476190Y-65545180D01*
X169476190Y-65545180D02*
X169380952Y-65592800D01*
X169380952Y-65592800D02*
X169333333Y-65640419D01*
X169333333Y-65640419D02*
X169238095Y-65783276D01*
X169238095Y-65783276D02*
X169190476Y-65973752D01*
X169190476Y-65973752D02*
X169190476Y-66354704D01*
X169190476Y-66354704D02*
X169238095Y-66449942D01*
X169238095Y-66449942D02*
X169285714Y-66497561D01*
X169285714Y-66497561D02*
X169380952Y-66545180D01*
X169380952Y-66545180D02*
X169571428Y-66545180D01*
X169571428Y-66545180D02*
X169666666Y-66497561D01*
X169666666Y-66497561D02*
X169714285Y-66449942D01*
X169714285Y-66449942D02*
X169761904Y-66354704D01*
X169761904Y-66354704D02*
X169761904Y-66116609D01*
X169761904Y-66116609D02*
X169714285Y-66021371D01*
X169714285Y-66021371D02*
X169666666Y-65973752D01*
X169666666Y-65973752D02*
X169571428Y-65926133D01*
X169571428Y-65926133D02*
X169380952Y-65926133D01*
X169380952Y-65926133D02*
X169285714Y-65973752D01*
X169285714Y-65973752D02*
X169238095Y-66021371D01*
X169238095Y-66021371D02*
X169190476Y-66116609D01*
D12*
X142428571Y-71927190D02*
X142404762Y-71951000D01*
X142404762Y-71951000D02*
X142333333Y-71974809D01*
X142333333Y-71974809D02*
X142285714Y-71974809D01*
X142285714Y-71974809D02*
X142214286Y-71951000D01*
X142214286Y-71951000D02*
X142166667Y-71903380D01*
X142166667Y-71903380D02*
X142142857Y-71855761D01*
X142142857Y-71855761D02*
X142119048Y-71760523D01*
X142119048Y-71760523D02*
X142119048Y-71689095D01*
X142119048Y-71689095D02*
X142142857Y-71593857D01*
X142142857Y-71593857D02*
X142166667Y-71546238D01*
X142166667Y-71546238D02*
X142214286Y-71498619D01*
X142214286Y-71498619D02*
X142285714Y-71474809D01*
X142285714Y-71474809D02*
X142333333Y-71474809D01*
X142333333Y-71474809D02*
X142404762Y-71498619D01*
X142404762Y-71498619D02*
X142428571Y-71522428D01*
X142904762Y-71974809D02*
X142619048Y-71974809D01*
X142761905Y-71974809D02*
X142761905Y-71474809D01*
X142761905Y-71474809D02*
X142714286Y-71546238D01*
X142714286Y-71546238D02*
X142666667Y-71593857D01*
X142666667Y-71593857D02*
X142619048Y-71617666D01*
X143214285Y-71474809D02*
X143261904Y-71474809D01*
X143261904Y-71474809D02*
X143309523Y-71498619D01*
X143309523Y-71498619D02*
X143333333Y-71522428D01*
X143333333Y-71522428D02*
X143357142Y-71570047D01*
X143357142Y-71570047D02*
X143380952Y-71665285D01*
X143380952Y-71665285D02*
X143380952Y-71784333D01*
X143380952Y-71784333D02*
X143357142Y-71879571D01*
X143357142Y-71879571D02*
X143333333Y-71927190D01*
X143333333Y-71927190D02*
X143309523Y-71951000D01*
X143309523Y-71951000D02*
X143261904Y-71974809D01*
X143261904Y-71974809D02*
X143214285Y-71974809D01*
X143214285Y-71974809D02*
X143166666Y-71951000D01*
X143166666Y-71951000D02*
X143142857Y-71927190D01*
X143142857Y-71927190D02*
X143119047Y-71879571D01*
X143119047Y-71879571D02*
X143095238Y-71784333D01*
X143095238Y-71784333D02*
X143095238Y-71665285D01*
X143095238Y-71665285D02*
X143119047Y-71570047D01*
X143119047Y-71570047D02*
X143142857Y-71522428D01*
X143142857Y-71522428D02*
X143166666Y-71498619D01*
X143166666Y-71498619D02*
X143214285Y-71474809D01*
D11*
X206017319Y-94738094D02*
X205017319Y-94738094D01*
X205017319Y-94738094D02*
X205017319Y-94499999D01*
X205017319Y-94499999D02*
X205064938Y-94357142D01*
X205064938Y-94357142D02*
X205160176Y-94261904D01*
X205160176Y-94261904D02*
X205255414Y-94214285D01*
X205255414Y-94214285D02*
X205445890Y-94166666D01*
X205445890Y-94166666D02*
X205588747Y-94166666D01*
X205588747Y-94166666D02*
X205779223Y-94214285D01*
X205779223Y-94214285D02*
X205874461Y-94261904D01*
X205874461Y-94261904D02*
X205969700Y-94357142D01*
X205969700Y-94357142D02*
X206017319Y-94499999D01*
X206017319Y-94499999D02*
X206017319Y-94738094D01*
X205350652Y-93309523D02*
X206017319Y-93309523D01*
X204969700Y-93547618D02*
X205683985Y-93785713D01*
X205683985Y-93785713D02*
X205683985Y-93166666D01*
X217457142Y-92104819D02*
X217123809Y-91628628D01*
X216885714Y-92104819D02*
X216885714Y-91104819D01*
X216885714Y-91104819D02*
X217266666Y-91104819D01*
X217266666Y-91104819D02*
X217361904Y-91152438D01*
X217361904Y-91152438D02*
X217409523Y-91200057D01*
X217409523Y-91200057D02*
X217457142Y-91295295D01*
X217457142Y-91295295D02*
X217457142Y-91438152D01*
X217457142Y-91438152D02*
X217409523Y-91533390D01*
X217409523Y-91533390D02*
X217361904Y-91581009D01*
X217361904Y-91581009D02*
X217266666Y-91628628D01*
X217266666Y-91628628D02*
X216885714Y-91628628D01*
X217838095Y-91200057D02*
X217885714Y-91152438D01*
X217885714Y-91152438D02*
X217980952Y-91104819D01*
X217980952Y-91104819D02*
X218219047Y-91104819D01*
X218219047Y-91104819D02*
X218314285Y-91152438D01*
X218314285Y-91152438D02*
X218361904Y-91200057D01*
X218361904Y-91200057D02*
X218409523Y-91295295D01*
X218409523Y-91295295D02*
X218409523Y-91390533D01*
X218409523Y-91390533D02*
X218361904Y-91533390D01*
X218361904Y-91533390D02*
X217790476Y-92104819D01*
X217790476Y-92104819D02*
X218409523Y-92104819D01*
X219028571Y-91104819D02*
X219123809Y-91104819D01*
X219123809Y-91104819D02*
X219219047Y-91152438D01*
X219219047Y-91152438D02*
X219266666Y-91200057D01*
X219266666Y-91200057D02*
X219314285Y-91295295D01*
X219314285Y-91295295D02*
X219361904Y-91485771D01*
X219361904Y-91485771D02*
X219361904Y-91723866D01*
X219361904Y-91723866D02*
X219314285Y-91914342D01*
X219314285Y-91914342D02*
X219266666Y-92009580D01*
X219266666Y-92009580D02*
X219219047Y-92057200D01*
X219219047Y-92057200D02*
X219123809Y-92104819D01*
X219123809Y-92104819D02*
X219028571Y-92104819D01*
X219028571Y-92104819D02*
X218933333Y-92057200D01*
X218933333Y-92057200D02*
X218885714Y-92009580D01*
X218885714Y-92009580D02*
X218838095Y-91914342D01*
X218838095Y-91914342D02*
X218790476Y-91723866D01*
X218790476Y-91723866D02*
X218790476Y-91485771D01*
X218790476Y-91485771D02*
X218838095Y-91295295D01*
X218838095Y-91295295D02*
X218885714Y-91200057D01*
X218885714Y-91200057D02*
X218933333Y-91152438D01*
X218933333Y-91152438D02*
X219028571Y-91104819D01*
X178266345Y-92154419D02*
X178266345Y-92963942D01*
X178266345Y-92963942D02*
X178313964Y-93059180D01*
X178313964Y-93059180D02*
X178361583Y-93106800D01*
X178361583Y-93106800D02*
X178456821Y-93154419D01*
X178456821Y-93154419D02*
X178647297Y-93154419D01*
X178647297Y-93154419D02*
X178742535Y-93106800D01*
X178742535Y-93106800D02*
X178790154Y-93059180D01*
X178790154Y-93059180D02*
X178837773Y-92963942D01*
X178837773Y-92963942D02*
X178837773Y-92154419D01*
X179456821Y-92582990D02*
X179361583Y-92535371D01*
X179361583Y-92535371D02*
X179313964Y-92487752D01*
X179313964Y-92487752D02*
X179266345Y-92392514D01*
X179266345Y-92392514D02*
X179266345Y-92344895D01*
X179266345Y-92344895D02*
X179313964Y-92249657D01*
X179313964Y-92249657D02*
X179361583Y-92202038D01*
X179361583Y-92202038D02*
X179456821Y-92154419D01*
X179456821Y-92154419D02*
X179647297Y-92154419D01*
X179647297Y-92154419D02*
X179742535Y-92202038D01*
X179742535Y-92202038D02*
X179790154Y-92249657D01*
X179790154Y-92249657D02*
X179837773Y-92344895D01*
X179837773Y-92344895D02*
X179837773Y-92392514D01*
X179837773Y-92392514D02*
X179790154Y-92487752D01*
X179790154Y-92487752D02*
X179742535Y-92535371D01*
X179742535Y-92535371D02*
X179647297Y-92582990D01*
X179647297Y-92582990D02*
X179456821Y-92582990D01*
X179456821Y-92582990D02*
X179361583Y-92630609D01*
X179361583Y-92630609D02*
X179313964Y-92678228D01*
X179313964Y-92678228D02*
X179266345Y-92773466D01*
X179266345Y-92773466D02*
X179266345Y-92963942D01*
X179266345Y-92963942D02*
X179313964Y-93059180D01*
X179313964Y-93059180D02*
X179361583Y-93106800D01*
X179361583Y-93106800D02*
X179456821Y-93154419D01*
X179456821Y-93154419D02*
X179647297Y-93154419D01*
X179647297Y-93154419D02*
X179742535Y-93106800D01*
X179742535Y-93106800D02*
X179790154Y-93059180D01*
X179790154Y-93059180D02*
X179837773Y-92963942D01*
X179837773Y-92963942D02*
X179837773Y-92773466D01*
X179837773Y-92773466D02*
X179790154Y-92678228D01*
X179790154Y-92678228D02*
X179742535Y-92630609D01*
X179742535Y-92630609D02*
X179647297Y-92582990D01*
X202357142Y-87109580D02*
X202309523Y-87157200D01*
X202309523Y-87157200D02*
X202166666Y-87204819D01*
X202166666Y-87204819D02*
X202071428Y-87204819D01*
X202071428Y-87204819D02*
X201928571Y-87157200D01*
X201928571Y-87157200D02*
X201833333Y-87061961D01*
X201833333Y-87061961D02*
X201785714Y-86966723D01*
X201785714Y-86966723D02*
X201738095Y-86776247D01*
X201738095Y-86776247D02*
X201738095Y-86633390D01*
X201738095Y-86633390D02*
X201785714Y-86442914D01*
X201785714Y-86442914D02*
X201833333Y-86347676D01*
X201833333Y-86347676D02*
X201928571Y-86252438D01*
X201928571Y-86252438D02*
X202071428Y-86204819D01*
X202071428Y-86204819D02*
X202166666Y-86204819D01*
X202166666Y-86204819D02*
X202309523Y-86252438D01*
X202309523Y-86252438D02*
X202357142Y-86300057D01*
X202738095Y-86300057D02*
X202785714Y-86252438D01*
X202785714Y-86252438D02*
X202880952Y-86204819D01*
X202880952Y-86204819D02*
X203119047Y-86204819D01*
X203119047Y-86204819D02*
X203214285Y-86252438D01*
X203214285Y-86252438D02*
X203261904Y-86300057D01*
X203261904Y-86300057D02*
X203309523Y-86395295D01*
X203309523Y-86395295D02*
X203309523Y-86490533D01*
X203309523Y-86490533D02*
X203261904Y-86633390D01*
X203261904Y-86633390D02*
X202690476Y-87204819D01*
X202690476Y-87204819D02*
X203309523Y-87204819D01*
X204166666Y-86204819D02*
X203976190Y-86204819D01*
X203976190Y-86204819D02*
X203880952Y-86252438D01*
X203880952Y-86252438D02*
X203833333Y-86300057D01*
X203833333Y-86300057D02*
X203738095Y-86442914D01*
X203738095Y-86442914D02*
X203690476Y-86633390D01*
X203690476Y-86633390D02*
X203690476Y-87014342D01*
X203690476Y-87014342D02*
X203738095Y-87109580D01*
X203738095Y-87109580D02*
X203785714Y-87157200D01*
X203785714Y-87157200D02*
X203880952Y-87204819D01*
X203880952Y-87204819D02*
X204071428Y-87204819D01*
X204071428Y-87204819D02*
X204166666Y-87157200D01*
X204166666Y-87157200D02*
X204214285Y-87109580D01*
X204214285Y-87109580D02*
X204261904Y-87014342D01*
X204261904Y-87014342D02*
X204261904Y-86776247D01*
X204261904Y-86776247D02*
X204214285Y-86681009D01*
X204214285Y-86681009D02*
X204166666Y-86633390D01*
X204166666Y-86633390D02*
X204071428Y-86585771D01*
X204071428Y-86585771D02*
X203880952Y-86585771D01*
X203880952Y-86585771D02*
X203785714Y-86633390D01*
X203785714Y-86633390D02*
X203738095Y-86681009D01*
X203738095Y-86681009D02*
X203690476Y-86776247D01*
X217883333Y-85054819D02*
X217550000Y-84578628D01*
X217311905Y-85054819D02*
X217311905Y-84054819D01*
X217311905Y-84054819D02*
X217692857Y-84054819D01*
X217692857Y-84054819D02*
X217788095Y-84102438D01*
X217788095Y-84102438D02*
X217835714Y-84150057D01*
X217835714Y-84150057D02*
X217883333Y-84245295D01*
X217883333Y-84245295D02*
X217883333Y-84388152D01*
X217883333Y-84388152D02*
X217835714Y-84483390D01*
X217835714Y-84483390D02*
X217788095Y-84531009D01*
X217788095Y-84531009D02*
X217692857Y-84578628D01*
X217692857Y-84578628D02*
X217311905Y-84578628D01*
X218740476Y-84054819D02*
X218550000Y-84054819D01*
X218550000Y-84054819D02*
X218454762Y-84102438D01*
X218454762Y-84102438D02*
X218407143Y-84150057D01*
X218407143Y-84150057D02*
X218311905Y-84292914D01*
X218311905Y-84292914D02*
X218264286Y-84483390D01*
X218264286Y-84483390D02*
X218264286Y-84864342D01*
X218264286Y-84864342D02*
X218311905Y-84959580D01*
X218311905Y-84959580D02*
X218359524Y-85007200D01*
X218359524Y-85007200D02*
X218454762Y-85054819D01*
X218454762Y-85054819D02*
X218645238Y-85054819D01*
X218645238Y-85054819D02*
X218740476Y-85007200D01*
X218740476Y-85007200D02*
X218788095Y-84959580D01*
X218788095Y-84959580D02*
X218835714Y-84864342D01*
X218835714Y-84864342D02*
X218835714Y-84626247D01*
X218835714Y-84626247D02*
X218788095Y-84531009D01*
X218788095Y-84531009D02*
X218740476Y-84483390D01*
X218740476Y-84483390D02*
X218645238Y-84435771D01*
X218645238Y-84435771D02*
X218454762Y-84435771D01*
X218454762Y-84435771D02*
X218359524Y-84483390D01*
X218359524Y-84483390D02*
X218311905Y-84531009D01*
X218311905Y-84531009D02*
X218264286Y-84626247D01*
X211374819Y-89292857D02*
X210898628Y-89626190D01*
X211374819Y-89864285D02*
X210374819Y-89864285D01*
X210374819Y-89864285D02*
X210374819Y-89483333D01*
X210374819Y-89483333D02*
X210422438Y-89388095D01*
X210422438Y-89388095D02*
X210470057Y-89340476D01*
X210470057Y-89340476D02*
X210565295Y-89292857D01*
X210565295Y-89292857D02*
X210708152Y-89292857D01*
X210708152Y-89292857D02*
X210803390Y-89340476D01*
X210803390Y-89340476D02*
X210851009Y-89388095D01*
X210851009Y-89388095D02*
X210898628Y-89483333D01*
X210898628Y-89483333D02*
X210898628Y-89864285D01*
X210470057Y-88911904D02*
X210422438Y-88864285D01*
X210422438Y-88864285D02*
X210374819Y-88769047D01*
X210374819Y-88769047D02*
X210374819Y-88530952D01*
X210374819Y-88530952D02*
X210422438Y-88435714D01*
X210422438Y-88435714D02*
X210470057Y-88388095D01*
X210470057Y-88388095D02*
X210565295Y-88340476D01*
X210565295Y-88340476D02*
X210660533Y-88340476D01*
X210660533Y-88340476D02*
X210803390Y-88388095D01*
X210803390Y-88388095D02*
X211374819Y-88959523D01*
X211374819Y-88959523D02*
X211374819Y-88340476D01*
X211374819Y-87388095D02*
X211374819Y-87959523D01*
X211374819Y-87673809D02*
X210374819Y-87673809D01*
X210374819Y-87673809D02*
X210517676Y-87769047D01*
X210517676Y-87769047D02*
X210612914Y-87864285D01*
X210612914Y-87864285D02*
X210660533Y-87959523D01*
X206107142Y-60459580D02*
X206059523Y-60507200D01*
X206059523Y-60507200D02*
X205916666Y-60554819D01*
X205916666Y-60554819D02*
X205821428Y-60554819D01*
X205821428Y-60554819D02*
X205678571Y-60507200D01*
X205678571Y-60507200D02*
X205583333Y-60411961D01*
X205583333Y-60411961D02*
X205535714Y-60316723D01*
X205535714Y-60316723D02*
X205488095Y-60126247D01*
X205488095Y-60126247D02*
X205488095Y-59983390D01*
X205488095Y-59983390D02*
X205535714Y-59792914D01*
X205535714Y-59792914D02*
X205583333Y-59697676D01*
X205583333Y-59697676D02*
X205678571Y-59602438D01*
X205678571Y-59602438D02*
X205821428Y-59554819D01*
X205821428Y-59554819D02*
X205916666Y-59554819D01*
X205916666Y-59554819D02*
X206059523Y-59602438D01*
X206059523Y-59602438D02*
X206107142Y-59650057D01*
X206488095Y-59650057D02*
X206535714Y-59602438D01*
X206535714Y-59602438D02*
X206630952Y-59554819D01*
X206630952Y-59554819D02*
X206869047Y-59554819D01*
X206869047Y-59554819D02*
X206964285Y-59602438D01*
X206964285Y-59602438D02*
X207011904Y-59650057D01*
X207011904Y-59650057D02*
X207059523Y-59745295D01*
X207059523Y-59745295D02*
X207059523Y-59840533D01*
X207059523Y-59840533D02*
X207011904Y-59983390D01*
X207011904Y-59983390D02*
X206440476Y-60554819D01*
X206440476Y-60554819D02*
X207059523Y-60554819D01*
X207678571Y-59554819D02*
X207773809Y-59554819D01*
X207773809Y-59554819D02*
X207869047Y-59602438D01*
X207869047Y-59602438D02*
X207916666Y-59650057D01*
X207916666Y-59650057D02*
X207964285Y-59745295D01*
X207964285Y-59745295D02*
X208011904Y-59935771D01*
X208011904Y-59935771D02*
X208011904Y-60173866D01*
X208011904Y-60173866D02*
X207964285Y-60364342D01*
X207964285Y-60364342D02*
X207916666Y-60459580D01*
X207916666Y-60459580D02*
X207869047Y-60507200D01*
X207869047Y-60507200D02*
X207773809Y-60554819D01*
X207773809Y-60554819D02*
X207678571Y-60554819D01*
X207678571Y-60554819D02*
X207583333Y-60507200D01*
X207583333Y-60507200D02*
X207535714Y-60459580D01*
X207535714Y-60459580D02*
X207488095Y-60364342D01*
X207488095Y-60364342D02*
X207440476Y-60173866D01*
X207440476Y-60173866D02*
X207440476Y-59935771D01*
X207440476Y-59935771D02*
X207488095Y-59745295D01*
X207488095Y-59745295D02*
X207535714Y-59650057D01*
X207535714Y-59650057D02*
X207583333Y-59602438D01*
X207583333Y-59602438D02*
X207678571Y-59554819D01*
X211424819Y-94592857D02*
X210948628Y-94926190D01*
X211424819Y-95164285D02*
X210424819Y-95164285D01*
X210424819Y-95164285D02*
X210424819Y-94783333D01*
X210424819Y-94783333D02*
X210472438Y-94688095D01*
X210472438Y-94688095D02*
X210520057Y-94640476D01*
X210520057Y-94640476D02*
X210615295Y-94592857D01*
X210615295Y-94592857D02*
X210758152Y-94592857D01*
X210758152Y-94592857D02*
X210853390Y-94640476D01*
X210853390Y-94640476D02*
X210901009Y-94688095D01*
X210901009Y-94688095D02*
X210948628Y-94783333D01*
X210948628Y-94783333D02*
X210948628Y-95164285D01*
X210520057Y-94211904D02*
X210472438Y-94164285D01*
X210472438Y-94164285D02*
X210424819Y-94069047D01*
X210424819Y-94069047D02*
X210424819Y-93830952D01*
X210424819Y-93830952D02*
X210472438Y-93735714D01*
X210472438Y-93735714D02*
X210520057Y-93688095D01*
X210520057Y-93688095D02*
X210615295Y-93640476D01*
X210615295Y-93640476D02*
X210710533Y-93640476D01*
X210710533Y-93640476D02*
X210853390Y-93688095D01*
X210853390Y-93688095D02*
X211424819Y-94259523D01*
X211424819Y-94259523D02*
X211424819Y-93640476D01*
X210520057Y-93259523D02*
X210472438Y-93211904D01*
X210472438Y-93211904D02*
X210424819Y-93116666D01*
X210424819Y-93116666D02*
X210424819Y-92878571D01*
X210424819Y-92878571D02*
X210472438Y-92783333D01*
X210472438Y-92783333D02*
X210520057Y-92735714D01*
X210520057Y-92735714D02*
X210615295Y-92688095D01*
X210615295Y-92688095D02*
X210710533Y-92688095D01*
X210710533Y-92688095D02*
X210853390Y-92735714D01*
X210853390Y-92735714D02*
X211424819Y-93307142D01*
X211424819Y-93307142D02*
X211424819Y-92688095D01*
D14*
X156510237Y-72574318D02*
X156510237Y-71304318D01*
X157840714Y-72453365D02*
X157780238Y-72513842D01*
X157780238Y-72513842D02*
X157598809Y-72574318D01*
X157598809Y-72574318D02*
X157477857Y-72574318D01*
X157477857Y-72574318D02*
X157296428Y-72513842D01*
X157296428Y-72513842D02*
X157175476Y-72392889D01*
X157175476Y-72392889D02*
X157114999Y-72271937D01*
X157114999Y-72271937D02*
X157054523Y-72030032D01*
X157054523Y-72030032D02*
X157054523Y-71848603D01*
X157054523Y-71848603D02*
X157114999Y-71606699D01*
X157114999Y-71606699D02*
X157175476Y-71485746D01*
X157175476Y-71485746D02*
X157296428Y-71364794D01*
X157296428Y-71364794D02*
X157477857Y-71304318D01*
X157477857Y-71304318D02*
X157598809Y-71304318D01*
X157598809Y-71304318D02*
X157780238Y-71364794D01*
X157780238Y-71364794D02*
X157840714Y-71425270D01*
X158264047Y-71304318D02*
X159110714Y-71304318D01*
X159110714Y-71304318D02*
X158566428Y-72574318D01*
D15*
X144409471Y-80789285D02*
X144430900Y-80810713D01*
X144430900Y-80810713D02*
X144452328Y-80874999D01*
X144452328Y-80874999D02*
X144452328Y-80917856D01*
X144452328Y-80917856D02*
X144430900Y-80982142D01*
X144430900Y-80982142D02*
X144388042Y-81024999D01*
X144388042Y-81024999D02*
X144345185Y-81046428D01*
X144345185Y-81046428D02*
X144259471Y-81067856D01*
X144259471Y-81067856D02*
X144195185Y-81067856D01*
X144195185Y-81067856D02*
X144109471Y-81046428D01*
X144109471Y-81046428D02*
X144066614Y-81024999D01*
X144066614Y-81024999D02*
X144023757Y-80982142D01*
X144023757Y-80982142D02*
X144002328Y-80917856D01*
X144002328Y-80917856D02*
X144002328Y-80874999D01*
X144002328Y-80874999D02*
X144023757Y-80810713D01*
X144023757Y-80810713D02*
X144045185Y-80789285D01*
X144452328Y-80360713D02*
X144452328Y-80617856D01*
X144452328Y-80489285D02*
X144002328Y-80489285D01*
X144002328Y-80489285D02*
X144066614Y-80532142D01*
X144066614Y-80532142D02*
X144109471Y-80574999D01*
X144109471Y-80574999D02*
X144130900Y-80617856D01*
X144002328Y-80210714D02*
X144002328Y-79932142D01*
X144002328Y-79932142D02*
X144173757Y-80082142D01*
X144173757Y-80082142D02*
X144173757Y-80017857D01*
X144173757Y-80017857D02*
X144195185Y-79975000D01*
X144195185Y-79975000D02*
X144216614Y-79953571D01*
X144216614Y-79953571D02*
X144259471Y-79932142D01*
X144259471Y-79932142D02*
X144366614Y-79932142D01*
X144366614Y-79932142D02*
X144409471Y-79953571D01*
X144409471Y-79953571D02*
X144430900Y-79975000D01*
X144430900Y-79975000D02*
X144452328Y-80017857D01*
X144452328Y-80017857D02*
X144452328Y-80146428D01*
X144452328Y-80146428D02*
X144430900Y-80189285D01*
X144430900Y-80189285D02*
X144409471Y-80210714D01*
D11*
X169916667Y-81357200D02*
X170059524Y-81404819D01*
X170059524Y-81404819D02*
X170297619Y-81404819D01*
X170297619Y-81404819D02*
X170392857Y-81357200D01*
X170392857Y-81357200D02*
X170440476Y-81309580D01*
X170440476Y-81309580D02*
X170488095Y-81214342D01*
X170488095Y-81214342D02*
X170488095Y-81119104D01*
X170488095Y-81119104D02*
X170440476Y-81023866D01*
X170440476Y-81023866D02*
X170392857Y-80976247D01*
X170392857Y-80976247D02*
X170297619Y-80928628D01*
X170297619Y-80928628D02*
X170107143Y-80881009D01*
X170107143Y-80881009D02*
X170011905Y-80833390D01*
X170011905Y-80833390D02*
X169964286Y-80785771D01*
X169964286Y-80785771D02*
X169916667Y-80690533D01*
X169916667Y-80690533D02*
X169916667Y-80595295D01*
X169916667Y-80595295D02*
X169964286Y-80500057D01*
X169964286Y-80500057D02*
X170011905Y-80452438D01*
X170011905Y-80452438D02*
X170107143Y-80404819D01*
X170107143Y-80404819D02*
X170345238Y-80404819D01*
X170345238Y-80404819D02*
X170488095Y-80452438D01*
X170821429Y-80404819D02*
X171059524Y-81404819D01*
X171059524Y-81404819D02*
X171250000Y-80690533D01*
X171250000Y-80690533D02*
X171440476Y-81404819D01*
X171440476Y-81404819D02*
X171678572Y-80404819D01*
X172583333Y-81404819D02*
X172011905Y-81404819D01*
X172297619Y-81404819D02*
X172297619Y-80404819D01*
X172297619Y-80404819D02*
X172202381Y-80547676D01*
X172202381Y-80547676D02*
X172107143Y-80642914D01*
X172107143Y-80642914D02*
X172011905Y-80690533D01*
X221954819Y-68998333D02*
X222669104Y-68998333D01*
X222669104Y-68998333D02*
X222811961Y-69045952D01*
X222811961Y-69045952D02*
X222907200Y-69141190D01*
X222907200Y-69141190D02*
X222954819Y-69284047D01*
X222954819Y-69284047D02*
X222954819Y-69379285D01*
X222954819Y-67998333D02*
X222954819Y-68569761D01*
X222954819Y-68284047D02*
X221954819Y-68284047D01*
X221954819Y-68284047D02*
X222097676Y-68379285D01*
X222097676Y-68379285D02*
X222192914Y-68474523D01*
X222192914Y-68474523D02*
X222240533Y-68569761D01*
X180854819Y-86866665D02*
X180378628Y-87199998D01*
X180854819Y-87438093D02*
X179854819Y-87438093D01*
X179854819Y-87438093D02*
X179854819Y-87057141D01*
X179854819Y-87057141D02*
X179902438Y-86961903D01*
X179902438Y-86961903D02*
X179950057Y-86914284D01*
X179950057Y-86914284D02*
X180045295Y-86866665D01*
X180045295Y-86866665D02*
X180188152Y-86866665D01*
X180188152Y-86866665D02*
X180283390Y-86914284D01*
X180283390Y-86914284D02*
X180331009Y-86961903D01*
X180331009Y-86961903D02*
X180378628Y-87057141D01*
X180378628Y-87057141D02*
X180378628Y-87438093D01*
X180854819Y-85914284D02*
X180854819Y-86485712D01*
X180854819Y-86199998D02*
X179854819Y-86199998D01*
X179854819Y-86199998D02*
X179997676Y-86295236D01*
X179997676Y-86295236D02*
X180092914Y-86390474D01*
X180092914Y-86390474D02*
X180140533Y-86485712D01*
X206107142Y-64859580D02*
X206059523Y-64907200D01*
X206059523Y-64907200D02*
X205916666Y-64954819D01*
X205916666Y-64954819D02*
X205821428Y-64954819D01*
X205821428Y-64954819D02*
X205678571Y-64907200D01*
X205678571Y-64907200D02*
X205583333Y-64811961D01*
X205583333Y-64811961D02*
X205535714Y-64716723D01*
X205535714Y-64716723D02*
X205488095Y-64526247D01*
X205488095Y-64526247D02*
X205488095Y-64383390D01*
X205488095Y-64383390D02*
X205535714Y-64192914D01*
X205535714Y-64192914D02*
X205583333Y-64097676D01*
X205583333Y-64097676D02*
X205678571Y-64002438D01*
X205678571Y-64002438D02*
X205821428Y-63954819D01*
X205821428Y-63954819D02*
X205916666Y-63954819D01*
X205916666Y-63954819D02*
X206059523Y-64002438D01*
X206059523Y-64002438D02*
X206107142Y-64050057D01*
X207059523Y-64954819D02*
X206488095Y-64954819D01*
X206773809Y-64954819D02*
X206773809Y-63954819D01*
X206773809Y-63954819D02*
X206678571Y-64097676D01*
X206678571Y-64097676D02*
X206583333Y-64192914D01*
X206583333Y-64192914D02*
X206488095Y-64240533D01*
X207964285Y-63954819D02*
X207488095Y-63954819D01*
X207488095Y-63954819D02*
X207440476Y-64431009D01*
X207440476Y-64431009D02*
X207488095Y-64383390D01*
X207488095Y-64383390D02*
X207583333Y-64335771D01*
X207583333Y-64335771D02*
X207821428Y-64335771D01*
X207821428Y-64335771D02*
X207916666Y-64383390D01*
X207916666Y-64383390D02*
X207964285Y-64431009D01*
X207964285Y-64431009D02*
X208011904Y-64526247D01*
X208011904Y-64526247D02*
X208011904Y-64764342D01*
X208011904Y-64764342D02*
X207964285Y-64859580D01*
X207964285Y-64859580D02*
X207916666Y-64907200D01*
X207916666Y-64907200D02*
X207821428Y-64954819D01*
X207821428Y-64954819D02*
X207583333Y-64954819D01*
X207583333Y-64954819D02*
X207488095Y-64907200D01*
X207488095Y-64907200D02*
X207440476Y-64859580D01*
X162333333Y-95704819D02*
X162000000Y-95228628D01*
X161761905Y-95704819D02*
X161761905Y-94704819D01*
X161761905Y-94704819D02*
X162142857Y-94704819D01*
X162142857Y-94704819D02*
X162238095Y-94752438D01*
X162238095Y-94752438D02*
X162285714Y-94800057D01*
X162285714Y-94800057D02*
X162333333Y-94895295D01*
X162333333Y-94895295D02*
X162333333Y-95038152D01*
X162333333Y-95038152D02*
X162285714Y-95133390D01*
X162285714Y-95133390D02*
X162238095Y-95181009D01*
X162238095Y-95181009D02*
X162142857Y-95228628D01*
X162142857Y-95228628D02*
X161761905Y-95228628D01*
X162666667Y-94704819D02*
X163285714Y-94704819D01*
X163285714Y-94704819D02*
X162952381Y-95085771D01*
X162952381Y-95085771D02*
X163095238Y-95085771D01*
X163095238Y-95085771D02*
X163190476Y-95133390D01*
X163190476Y-95133390D02*
X163238095Y-95181009D01*
X163238095Y-95181009D02*
X163285714Y-95276247D01*
X163285714Y-95276247D02*
X163285714Y-95514342D01*
X163285714Y-95514342D02*
X163238095Y-95609580D01*
X163238095Y-95609580D02*
X163190476Y-95657200D01*
X163190476Y-95657200D02*
X163095238Y-95704819D01*
X163095238Y-95704819D02*
X162809524Y-95704819D01*
X162809524Y-95704819D02*
X162714286Y-95657200D01*
X162714286Y-95657200D02*
X162666667Y-95609580D01*
X147690476Y-92954819D02*
X147690476Y-93669104D01*
X147690476Y-93669104D02*
X147642857Y-93811961D01*
X147642857Y-93811961D02*
X147547619Y-93907200D01*
X147547619Y-93907200D02*
X147404762Y-93954819D01*
X147404762Y-93954819D02*
X147309524Y-93954819D01*
X148690476Y-93954819D02*
X148119048Y-93954819D01*
X148404762Y-93954819D02*
X148404762Y-92954819D01*
X148404762Y-92954819D02*
X148309524Y-93097676D01*
X148309524Y-93097676D02*
X148214286Y-93192914D01*
X148214286Y-93192914D02*
X148119048Y-93240533D01*
X149547619Y-92954819D02*
X149357143Y-92954819D01*
X149357143Y-92954819D02*
X149261905Y-93002438D01*
X149261905Y-93002438D02*
X149214286Y-93050057D01*
X149214286Y-93050057D02*
X149119048Y-93192914D01*
X149119048Y-93192914D02*
X149071429Y-93383390D01*
X149071429Y-93383390D02*
X149071429Y-93764342D01*
X149071429Y-93764342D02*
X149119048Y-93859580D01*
X149119048Y-93859580D02*
X149166667Y-93907200D01*
X149166667Y-93907200D02*
X149261905Y-93954819D01*
X149261905Y-93954819D02*
X149452381Y-93954819D01*
X149452381Y-93954819D02*
X149547619Y-93907200D01*
X149547619Y-93907200D02*
X149595238Y-93859580D01*
X149595238Y-93859580D02*
X149642857Y-93764342D01*
X149642857Y-93764342D02*
X149642857Y-93526247D01*
X149642857Y-93526247D02*
X149595238Y-93431009D01*
X149595238Y-93431009D02*
X149547619Y-93383390D01*
X149547619Y-93383390D02*
X149452381Y-93335771D01*
X149452381Y-93335771D02*
X149261905Y-93335771D01*
X149261905Y-93335771D02*
X149166667Y-93383390D01*
X149166667Y-93383390D02*
X149119048Y-93431009D01*
X149119048Y-93431009D02*
X149071429Y-93526247D01*
X202357142Y-76609580D02*
X202309523Y-76657200D01*
X202309523Y-76657200D02*
X202166666Y-76704819D01*
X202166666Y-76704819D02*
X202071428Y-76704819D01*
X202071428Y-76704819D02*
X201928571Y-76657200D01*
X201928571Y-76657200D02*
X201833333Y-76561961D01*
X201833333Y-76561961D02*
X201785714Y-76466723D01*
X201785714Y-76466723D02*
X201738095Y-76276247D01*
X201738095Y-76276247D02*
X201738095Y-76133390D01*
X201738095Y-76133390D02*
X201785714Y-75942914D01*
X201785714Y-75942914D02*
X201833333Y-75847676D01*
X201833333Y-75847676D02*
X201928571Y-75752438D01*
X201928571Y-75752438D02*
X202071428Y-75704819D01*
X202071428Y-75704819D02*
X202166666Y-75704819D01*
X202166666Y-75704819D02*
X202309523Y-75752438D01*
X202309523Y-75752438D02*
X202357142Y-75800057D01*
X202738095Y-75800057D02*
X202785714Y-75752438D01*
X202785714Y-75752438D02*
X202880952Y-75704819D01*
X202880952Y-75704819D02*
X203119047Y-75704819D01*
X203119047Y-75704819D02*
X203214285Y-75752438D01*
X203214285Y-75752438D02*
X203261904Y-75800057D01*
X203261904Y-75800057D02*
X203309523Y-75895295D01*
X203309523Y-75895295D02*
X203309523Y-75990533D01*
X203309523Y-75990533D02*
X203261904Y-76133390D01*
X203261904Y-76133390D02*
X202690476Y-76704819D01*
X202690476Y-76704819D02*
X203309523Y-76704819D01*
X203785714Y-76704819D02*
X203976190Y-76704819D01*
X203976190Y-76704819D02*
X204071428Y-76657200D01*
X204071428Y-76657200D02*
X204119047Y-76609580D01*
X204119047Y-76609580D02*
X204214285Y-76466723D01*
X204214285Y-76466723D02*
X204261904Y-76276247D01*
X204261904Y-76276247D02*
X204261904Y-75895295D01*
X204261904Y-75895295D02*
X204214285Y-75800057D01*
X204214285Y-75800057D02*
X204166666Y-75752438D01*
X204166666Y-75752438D02*
X204071428Y-75704819D01*
X204071428Y-75704819D02*
X203880952Y-75704819D01*
X203880952Y-75704819D02*
X203785714Y-75752438D01*
X203785714Y-75752438D02*
X203738095Y-75800057D01*
X203738095Y-75800057D02*
X203690476Y-75895295D01*
X203690476Y-75895295D02*
X203690476Y-76133390D01*
X203690476Y-76133390D02*
X203738095Y-76228628D01*
X203738095Y-76228628D02*
X203785714Y-76276247D01*
X203785714Y-76276247D02*
X203880952Y-76323866D01*
X203880952Y-76323866D02*
X204071428Y-76323866D01*
X204071428Y-76323866D02*
X204166666Y-76276247D01*
X204166666Y-76276247D02*
X204214285Y-76228628D01*
X204214285Y-76228628D02*
X204261904Y-76133390D01*
X211474819Y-77866666D02*
X210998628Y-78199999D01*
X211474819Y-78438094D02*
X210474819Y-78438094D01*
X210474819Y-78438094D02*
X210474819Y-78057142D01*
X210474819Y-78057142D02*
X210522438Y-77961904D01*
X210522438Y-77961904D02*
X210570057Y-77914285D01*
X210570057Y-77914285D02*
X210665295Y-77866666D01*
X210665295Y-77866666D02*
X210808152Y-77866666D01*
X210808152Y-77866666D02*
X210903390Y-77914285D01*
X210903390Y-77914285D02*
X210951009Y-77961904D01*
X210951009Y-77961904D02*
X210998628Y-78057142D01*
X210998628Y-78057142D02*
X210998628Y-78438094D01*
X210808152Y-77009523D02*
X211474819Y-77009523D01*
X210427200Y-77247618D02*
X211141485Y-77485713D01*
X211141485Y-77485713D02*
X211141485Y-76866666D01*
D12*
X140916666Y-85474809D02*
X140678571Y-85474809D01*
X140678571Y-85474809D02*
X140678571Y-84974809D01*
X141345238Y-85474809D02*
X141059524Y-85474809D01*
X141202381Y-85474809D02*
X141202381Y-84974809D01*
X141202381Y-84974809D02*
X141154762Y-85046238D01*
X141154762Y-85046238D02*
X141107143Y-85093857D01*
X141107143Y-85093857D02*
X141059524Y-85117666D01*
D11*
X192738095Y-93954819D02*
X193309523Y-93954819D01*
X193023809Y-94954819D02*
X193023809Y-93954819D01*
X193642857Y-94954819D02*
X193642857Y-93954819D01*
X193642857Y-93954819D02*
X194023809Y-93954819D01*
X194023809Y-93954819D02*
X194119047Y-94002438D01*
X194119047Y-94002438D02*
X194166666Y-94050057D01*
X194166666Y-94050057D02*
X194214285Y-94145295D01*
X194214285Y-94145295D02*
X194214285Y-94288152D01*
X194214285Y-94288152D02*
X194166666Y-94383390D01*
X194166666Y-94383390D02*
X194119047Y-94431009D01*
X194119047Y-94431009D02*
X194023809Y-94478628D01*
X194023809Y-94478628D02*
X193642857Y-94478628D01*
X195071428Y-94288152D02*
X195071428Y-94954819D01*
X194833333Y-93907200D02*
X194595238Y-94621485D01*
X194595238Y-94621485D02*
X195214285Y-94621485D01*
X160707142Y-78124819D02*
X160373809Y-77648628D01*
X160135714Y-78124819D02*
X160135714Y-77124819D01*
X160135714Y-77124819D02*
X160516666Y-77124819D01*
X160516666Y-77124819D02*
X160611904Y-77172438D01*
X160611904Y-77172438D02*
X160659523Y-77220057D01*
X160659523Y-77220057D02*
X160707142Y-77315295D01*
X160707142Y-77315295D02*
X160707142Y-77458152D01*
X160707142Y-77458152D02*
X160659523Y-77553390D01*
X160659523Y-77553390D02*
X160611904Y-77601009D01*
X160611904Y-77601009D02*
X160516666Y-77648628D01*
X160516666Y-77648628D02*
X160135714Y-77648628D01*
X161088095Y-77220057D02*
X161135714Y-77172438D01*
X161135714Y-77172438D02*
X161230952Y-77124819D01*
X161230952Y-77124819D02*
X161469047Y-77124819D01*
X161469047Y-77124819D02*
X161564285Y-77172438D01*
X161564285Y-77172438D02*
X161611904Y-77220057D01*
X161611904Y-77220057D02*
X161659523Y-77315295D01*
X161659523Y-77315295D02*
X161659523Y-77410533D01*
X161659523Y-77410533D02*
X161611904Y-77553390D01*
X161611904Y-77553390D02*
X161040476Y-78124819D01*
X161040476Y-78124819D02*
X161659523Y-78124819D01*
X162516666Y-77458152D02*
X162516666Y-78124819D01*
X162278571Y-77077200D02*
X162040476Y-77791485D01*
X162040476Y-77791485D02*
X162659523Y-77791485D01*
X149509580Y-71616666D02*
X149557200Y-71664285D01*
X149557200Y-71664285D02*
X149604819Y-71807142D01*
X149604819Y-71807142D02*
X149604819Y-71902380D01*
X149604819Y-71902380D02*
X149557200Y-72045237D01*
X149557200Y-72045237D02*
X149461961Y-72140475D01*
X149461961Y-72140475D02*
X149366723Y-72188094D01*
X149366723Y-72188094D02*
X149176247Y-72235713D01*
X149176247Y-72235713D02*
X149033390Y-72235713D01*
X149033390Y-72235713D02*
X148842914Y-72188094D01*
X148842914Y-72188094D02*
X148747676Y-72140475D01*
X148747676Y-72140475D02*
X148652438Y-72045237D01*
X148652438Y-72045237D02*
X148604819Y-71902380D01*
X148604819Y-71902380D02*
X148604819Y-71807142D01*
X148604819Y-71807142D02*
X148652438Y-71664285D01*
X148652438Y-71664285D02*
X148700057Y-71616666D01*
X148604819Y-71283332D02*
X148604819Y-70664285D01*
X148604819Y-70664285D02*
X148985771Y-70997618D01*
X148985771Y-70997618D02*
X148985771Y-70854761D01*
X148985771Y-70854761D02*
X149033390Y-70759523D01*
X149033390Y-70759523D02*
X149081009Y-70711904D01*
X149081009Y-70711904D02*
X149176247Y-70664285D01*
X149176247Y-70664285D02*
X149414342Y-70664285D01*
X149414342Y-70664285D02*
X149509580Y-70711904D01*
X149509580Y-70711904D02*
X149557200Y-70759523D01*
X149557200Y-70759523D02*
X149604819Y-70854761D01*
X149604819Y-70854761D02*
X149604819Y-71140475D01*
X149604819Y-71140475D02*
X149557200Y-71235713D01*
X149557200Y-71235713D02*
X149509580Y-71283332D01*
X202357142Y-92509580D02*
X202309523Y-92557200D01*
X202309523Y-92557200D02*
X202166666Y-92604819D01*
X202166666Y-92604819D02*
X202071428Y-92604819D01*
X202071428Y-92604819D02*
X201928571Y-92557200D01*
X201928571Y-92557200D02*
X201833333Y-92461961D01*
X201833333Y-92461961D02*
X201785714Y-92366723D01*
X201785714Y-92366723D02*
X201738095Y-92176247D01*
X201738095Y-92176247D02*
X201738095Y-92033390D01*
X201738095Y-92033390D02*
X201785714Y-91842914D01*
X201785714Y-91842914D02*
X201833333Y-91747676D01*
X201833333Y-91747676D02*
X201928571Y-91652438D01*
X201928571Y-91652438D02*
X202071428Y-91604819D01*
X202071428Y-91604819D02*
X202166666Y-91604819D01*
X202166666Y-91604819D02*
X202309523Y-91652438D01*
X202309523Y-91652438D02*
X202357142Y-91700057D01*
X202738095Y-91700057D02*
X202785714Y-91652438D01*
X202785714Y-91652438D02*
X202880952Y-91604819D01*
X202880952Y-91604819D02*
X203119047Y-91604819D01*
X203119047Y-91604819D02*
X203214285Y-91652438D01*
X203214285Y-91652438D02*
X203261904Y-91700057D01*
X203261904Y-91700057D02*
X203309523Y-91795295D01*
X203309523Y-91795295D02*
X203309523Y-91890533D01*
X203309523Y-91890533D02*
X203261904Y-92033390D01*
X203261904Y-92033390D02*
X202690476Y-92604819D01*
X202690476Y-92604819D02*
X203309523Y-92604819D01*
X203880952Y-92033390D02*
X203785714Y-91985771D01*
X203785714Y-91985771D02*
X203738095Y-91938152D01*
X203738095Y-91938152D02*
X203690476Y-91842914D01*
X203690476Y-91842914D02*
X203690476Y-91795295D01*
X203690476Y-91795295D02*
X203738095Y-91700057D01*
X203738095Y-91700057D02*
X203785714Y-91652438D01*
X203785714Y-91652438D02*
X203880952Y-91604819D01*
X203880952Y-91604819D02*
X204071428Y-91604819D01*
X204071428Y-91604819D02*
X204166666Y-91652438D01*
X204166666Y-91652438D02*
X204214285Y-91700057D01*
X204214285Y-91700057D02*
X204261904Y-91795295D01*
X204261904Y-91795295D02*
X204261904Y-91842914D01*
X204261904Y-91842914D02*
X204214285Y-91938152D01*
X204214285Y-91938152D02*
X204166666Y-91985771D01*
X204166666Y-91985771D02*
X204071428Y-92033390D01*
X204071428Y-92033390D02*
X203880952Y-92033390D01*
X203880952Y-92033390D02*
X203785714Y-92081009D01*
X203785714Y-92081009D02*
X203738095Y-92128628D01*
X203738095Y-92128628D02*
X203690476Y-92223866D01*
X203690476Y-92223866D02*
X203690476Y-92414342D01*
X203690476Y-92414342D02*
X203738095Y-92509580D01*
X203738095Y-92509580D02*
X203785714Y-92557200D01*
X203785714Y-92557200D02*
X203880952Y-92604819D01*
X203880952Y-92604819D02*
X204071428Y-92604819D01*
X204071428Y-92604819D02*
X204166666Y-92557200D01*
X204166666Y-92557200D02*
X204214285Y-92509580D01*
X204214285Y-92509580D02*
X204261904Y-92414342D01*
X204261904Y-92414342D02*
X204261904Y-92223866D01*
X204261904Y-92223866D02*
X204214285Y-92128628D01*
X204214285Y-92128628D02*
X204166666Y-92081009D01*
X204166666Y-92081009D02*
X204071428Y-92033390D01*
X152859580Y-83142857D02*
X152907200Y-83190476D01*
X152907200Y-83190476D02*
X152954819Y-83333333D01*
X152954819Y-83333333D02*
X152954819Y-83428571D01*
X152954819Y-83428571D02*
X152907200Y-83571428D01*
X152907200Y-83571428D02*
X152811961Y-83666666D01*
X152811961Y-83666666D02*
X152716723Y-83714285D01*
X152716723Y-83714285D02*
X152526247Y-83761904D01*
X152526247Y-83761904D02*
X152383390Y-83761904D01*
X152383390Y-83761904D02*
X152192914Y-83714285D01*
X152192914Y-83714285D02*
X152097676Y-83666666D01*
X152097676Y-83666666D02*
X152002438Y-83571428D01*
X152002438Y-83571428D02*
X151954819Y-83428571D01*
X151954819Y-83428571D02*
X151954819Y-83333333D01*
X151954819Y-83333333D02*
X152002438Y-83190476D01*
X152002438Y-83190476D02*
X152050057Y-83142857D01*
X152954819Y-82190476D02*
X152954819Y-82761904D01*
X152954819Y-82476190D02*
X151954819Y-82476190D01*
X151954819Y-82476190D02*
X152097676Y-82571428D01*
X152097676Y-82571428D02*
X152192914Y-82666666D01*
X152192914Y-82666666D02*
X152240533Y-82761904D01*
X152050057Y-81809523D02*
X152002438Y-81761904D01*
X152002438Y-81761904D02*
X151954819Y-81666666D01*
X151954819Y-81666666D02*
X151954819Y-81428571D01*
X151954819Y-81428571D02*
X152002438Y-81333333D01*
X152002438Y-81333333D02*
X152050057Y-81285714D01*
X152050057Y-81285714D02*
X152145295Y-81238095D01*
X152145295Y-81238095D02*
X152240533Y-81238095D01*
X152240533Y-81238095D02*
X152383390Y-81285714D01*
X152383390Y-81285714D02*
X152954819Y-81857142D01*
X152954819Y-81857142D02*
X152954819Y-81238095D01*
X188454819Y-71666666D02*
X187978628Y-71999999D01*
X188454819Y-72238094D02*
X187454819Y-72238094D01*
X187454819Y-72238094D02*
X187454819Y-71857142D01*
X187454819Y-71857142D02*
X187502438Y-71761904D01*
X187502438Y-71761904D02*
X187550057Y-71714285D01*
X187550057Y-71714285D02*
X187645295Y-71666666D01*
X187645295Y-71666666D02*
X187788152Y-71666666D01*
X187788152Y-71666666D02*
X187883390Y-71714285D01*
X187883390Y-71714285D02*
X187931009Y-71761904D01*
X187931009Y-71761904D02*
X187978628Y-71857142D01*
X187978628Y-71857142D02*
X187978628Y-72238094D01*
X188454819Y-71190475D02*
X188454819Y-70999999D01*
X188454819Y-70999999D02*
X188407200Y-70904761D01*
X188407200Y-70904761D02*
X188359580Y-70857142D01*
X188359580Y-70857142D02*
X188216723Y-70761904D01*
X188216723Y-70761904D02*
X188026247Y-70714285D01*
X188026247Y-70714285D02*
X187645295Y-70714285D01*
X187645295Y-70714285D02*
X187550057Y-70761904D01*
X187550057Y-70761904D02*
X187502438Y-70809523D01*
X187502438Y-70809523D02*
X187454819Y-70904761D01*
X187454819Y-70904761D02*
X187454819Y-71095237D01*
X187454819Y-71095237D02*
X187502438Y-71190475D01*
X187502438Y-71190475D02*
X187550057Y-71238094D01*
X187550057Y-71238094D02*
X187645295Y-71285713D01*
X187645295Y-71285713D02*
X187883390Y-71285713D01*
X187883390Y-71285713D02*
X187978628Y-71238094D01*
X187978628Y-71238094D02*
X188026247Y-71190475D01*
X188026247Y-71190475D02*
X188073866Y-71095237D01*
X188073866Y-71095237D02*
X188073866Y-70904761D01*
X188073866Y-70904761D02*
X188026247Y-70809523D01*
X188026247Y-70809523D02*
X187978628Y-70761904D01*
X187978628Y-70761904D02*
X187883390Y-70714285D01*
D13*
X167619519Y-74213092D02*
X167638267Y-74231840D01*
X167638267Y-74231840D02*
X167657014Y-74288083D01*
X167657014Y-74288083D02*
X167657014Y-74325578D01*
X167657014Y-74325578D02*
X167638267Y-74381821D01*
X167638267Y-74381821D02*
X167600771Y-74419317D01*
X167600771Y-74419317D02*
X167563276Y-74438064D01*
X167563276Y-74438064D02*
X167488285Y-74456812D01*
X167488285Y-74456812D02*
X167432042Y-74456812D01*
X167432042Y-74456812D02*
X167357052Y-74438064D01*
X167357052Y-74438064D02*
X167319556Y-74419317D01*
X167319556Y-74419317D02*
X167282061Y-74381821D01*
X167282061Y-74381821D02*
X167263313Y-74325578D01*
X167263313Y-74325578D02*
X167263313Y-74288083D01*
X167263313Y-74288083D02*
X167282061Y-74231840D01*
X167282061Y-74231840D02*
X167300809Y-74213092D01*
X167263313Y-74081859D02*
X167263313Y-73838139D01*
X167263313Y-73838139D02*
X167413295Y-73969373D01*
X167413295Y-73969373D02*
X167413295Y-73913130D01*
X167413295Y-73913130D02*
X167432042Y-73875634D01*
X167432042Y-73875634D02*
X167450790Y-73856887D01*
X167450790Y-73856887D02*
X167488285Y-73838139D01*
X167488285Y-73838139D02*
X167582024Y-73838139D01*
X167582024Y-73838139D02*
X167619519Y-73856887D01*
X167619519Y-73856887D02*
X167638267Y-73875634D01*
X167638267Y-73875634D02*
X167657014Y-73913130D01*
X167657014Y-73913130D02*
X167657014Y-74025616D01*
X167657014Y-74025616D02*
X167638267Y-74063111D01*
X167638267Y-74063111D02*
X167619519Y-74081859D01*
X167657014Y-73463186D02*
X167657014Y-73688158D01*
X167657014Y-73575672D02*
X167263313Y-73575672D01*
X167263313Y-73575672D02*
X167319556Y-73613167D01*
X167319556Y-73613167D02*
X167357052Y-73650663D01*
X167357052Y-73650663D02*
X167375799Y-73688158D01*
D16*
X183964286Y-79922371D02*
X183964286Y-79322371D01*
X184592857Y-79865228D02*
X184564285Y-79893800D01*
X184564285Y-79893800D02*
X184478571Y-79922371D01*
X184478571Y-79922371D02*
X184421428Y-79922371D01*
X184421428Y-79922371D02*
X184335714Y-79893800D01*
X184335714Y-79893800D02*
X184278571Y-79836657D01*
X184278571Y-79836657D02*
X184250000Y-79779514D01*
X184250000Y-79779514D02*
X184221428Y-79665228D01*
X184221428Y-79665228D02*
X184221428Y-79579514D01*
X184221428Y-79579514D02*
X184250000Y-79465228D01*
X184250000Y-79465228D02*
X184278571Y-79408085D01*
X184278571Y-79408085D02*
X184335714Y-79350942D01*
X184335714Y-79350942D02*
X184421428Y-79322371D01*
X184421428Y-79322371D02*
X184478571Y-79322371D01*
X184478571Y-79322371D02*
X184564285Y-79350942D01*
X184564285Y-79350942D02*
X184592857Y-79379514D01*
X185135714Y-79322371D02*
X184850000Y-79322371D01*
X184850000Y-79322371D02*
X184821428Y-79608085D01*
X184821428Y-79608085D02*
X184850000Y-79579514D01*
X184850000Y-79579514D02*
X184907143Y-79550942D01*
X184907143Y-79550942D02*
X185050000Y-79550942D01*
X185050000Y-79550942D02*
X185107143Y-79579514D01*
X185107143Y-79579514D02*
X185135714Y-79608085D01*
X185135714Y-79608085D02*
X185164285Y-79665228D01*
X185164285Y-79665228D02*
X185164285Y-79808085D01*
X185164285Y-79808085D02*
X185135714Y-79865228D01*
X185135714Y-79865228D02*
X185107143Y-79893800D01*
X185107143Y-79893800D02*
X185050000Y-79922371D01*
X185050000Y-79922371D02*
X184907143Y-79922371D01*
X184907143Y-79922371D02*
X184850000Y-79893800D01*
X184850000Y-79893800D02*
X184821428Y-79865228D01*
D11*
X183333333Y-88609580D02*
X183285714Y-88657200D01*
X183285714Y-88657200D02*
X183142857Y-88704819D01*
X183142857Y-88704819D02*
X183047619Y-88704819D01*
X183047619Y-88704819D02*
X182904762Y-88657200D01*
X182904762Y-88657200D02*
X182809524Y-88561961D01*
X182809524Y-88561961D02*
X182761905Y-88466723D01*
X182761905Y-88466723D02*
X182714286Y-88276247D01*
X182714286Y-88276247D02*
X182714286Y-88133390D01*
X182714286Y-88133390D02*
X182761905Y-87942914D01*
X182761905Y-87942914D02*
X182809524Y-87847676D01*
X182809524Y-87847676D02*
X182904762Y-87752438D01*
X182904762Y-87752438D02*
X183047619Y-87704819D01*
X183047619Y-87704819D02*
X183142857Y-87704819D01*
X183142857Y-87704819D02*
X183285714Y-87752438D01*
X183285714Y-87752438D02*
X183333333Y-87800057D01*
X184238095Y-87704819D02*
X183761905Y-87704819D01*
X183761905Y-87704819D02*
X183714286Y-88181009D01*
X183714286Y-88181009D02*
X183761905Y-88133390D01*
X183761905Y-88133390D02*
X183857143Y-88085771D01*
X183857143Y-88085771D02*
X184095238Y-88085771D01*
X184095238Y-88085771D02*
X184190476Y-88133390D01*
X184190476Y-88133390D02*
X184238095Y-88181009D01*
X184238095Y-88181009D02*
X184285714Y-88276247D01*
X184285714Y-88276247D02*
X184285714Y-88514342D01*
X184285714Y-88514342D02*
X184238095Y-88609580D01*
X184238095Y-88609580D02*
X184190476Y-88657200D01*
X184190476Y-88657200D02*
X184095238Y-88704819D01*
X184095238Y-88704819D02*
X183857143Y-88704819D01*
X183857143Y-88704819D02*
X183761905Y-88657200D01*
X183761905Y-88657200D02*
X183714286Y-88609580D01*
X221954819Y-85333333D02*
X222669104Y-85333333D01*
X222669104Y-85333333D02*
X222811961Y-85380952D01*
X222811961Y-85380952D02*
X222907200Y-85476190D01*
X222907200Y-85476190D02*
X222954819Y-85619047D01*
X222954819Y-85619047D02*
X222954819Y-85714285D01*
X221954819Y-84952380D02*
X221954819Y-84333333D01*
X221954819Y-84333333D02*
X222335771Y-84666666D01*
X222335771Y-84666666D02*
X222335771Y-84523809D01*
X222335771Y-84523809D02*
X222383390Y-84428571D01*
X222383390Y-84428571D02*
X222431009Y-84380952D01*
X222431009Y-84380952D02*
X222526247Y-84333333D01*
X222526247Y-84333333D02*
X222764342Y-84333333D01*
X222764342Y-84333333D02*
X222859580Y-84380952D01*
X222859580Y-84380952D02*
X222907200Y-84428571D01*
X222907200Y-84428571D02*
X222954819Y-84523809D01*
X222954819Y-84523809D02*
X222954819Y-84809523D01*
X222954819Y-84809523D02*
X222907200Y-84904761D01*
X222907200Y-84904761D02*
X222859580Y-84952380D01*
X206169642Y-74459580D02*
X206122023Y-74507200D01*
X206122023Y-74507200D02*
X205979166Y-74554819D01*
X205979166Y-74554819D02*
X205883928Y-74554819D01*
X205883928Y-74554819D02*
X205741071Y-74507200D01*
X205741071Y-74507200D02*
X205645833Y-74411961D01*
X205645833Y-74411961D02*
X205598214Y-74316723D01*
X205598214Y-74316723D02*
X205550595Y-74126247D01*
X205550595Y-74126247D02*
X205550595Y-73983390D01*
X205550595Y-73983390D02*
X205598214Y-73792914D01*
X205598214Y-73792914D02*
X205645833Y-73697676D01*
X205645833Y-73697676D02*
X205741071Y-73602438D01*
X205741071Y-73602438D02*
X205883928Y-73554819D01*
X205883928Y-73554819D02*
X205979166Y-73554819D01*
X205979166Y-73554819D02*
X206122023Y-73602438D01*
X206122023Y-73602438D02*
X206169642Y-73650057D01*
X207122023Y-74554819D02*
X206550595Y-74554819D01*
X206836309Y-74554819D02*
X206836309Y-73554819D01*
X206836309Y-73554819D02*
X206741071Y-73697676D01*
X206741071Y-73697676D02*
X206645833Y-73792914D01*
X206645833Y-73792914D02*
X206550595Y-73840533D01*
X207979166Y-73554819D02*
X207788690Y-73554819D01*
X207788690Y-73554819D02*
X207693452Y-73602438D01*
X207693452Y-73602438D02*
X207645833Y-73650057D01*
X207645833Y-73650057D02*
X207550595Y-73792914D01*
X207550595Y-73792914D02*
X207502976Y-73983390D01*
X207502976Y-73983390D02*
X207502976Y-74364342D01*
X207502976Y-74364342D02*
X207550595Y-74459580D01*
X207550595Y-74459580D02*
X207598214Y-74507200D01*
X207598214Y-74507200D02*
X207693452Y-74554819D01*
X207693452Y-74554819D02*
X207883928Y-74554819D01*
X207883928Y-74554819D02*
X207979166Y-74507200D01*
X207979166Y-74507200D02*
X208026785Y-74459580D01*
X208026785Y-74459580D02*
X208074404Y-74364342D01*
X208074404Y-74364342D02*
X208074404Y-74126247D01*
X208074404Y-74126247D02*
X208026785Y-74031009D01*
X208026785Y-74031009D02*
X207979166Y-73983390D01*
X207979166Y-73983390D02*
X207883928Y-73935771D01*
X207883928Y-73935771D02*
X207693452Y-73935771D01*
X207693452Y-73935771D02*
X207598214Y-73983390D01*
X207598214Y-73983390D02*
X207550595Y-74031009D01*
X207550595Y-74031009D02*
X207502976Y-74126247D01*
X194511904Y-85795180D02*
X194511904Y-84985657D01*
X194511904Y-84985657D02*
X194464285Y-84890419D01*
X194464285Y-84890419D02*
X194416666Y-84842800D01*
X194416666Y-84842800D02*
X194321428Y-84795180D01*
X194321428Y-84795180D02*
X194130952Y-84795180D01*
X194130952Y-84795180D02*
X194035714Y-84842800D01*
X194035714Y-84842800D02*
X193988095Y-84890419D01*
X193988095Y-84890419D02*
X193940476Y-84985657D01*
X193940476Y-84985657D02*
X193940476Y-85795180D01*
X193559523Y-85795180D02*
X192892857Y-85795180D01*
X192892857Y-85795180D02*
X193321428Y-84795180D01*
D13*
X178119519Y-74463092D02*
X178138267Y-74481840D01*
X178138267Y-74481840D02*
X178157014Y-74538083D01*
X178157014Y-74538083D02*
X178157014Y-74575578D01*
X178157014Y-74575578D02*
X178138267Y-74631821D01*
X178138267Y-74631821D02*
X178100771Y-74669317D01*
X178100771Y-74669317D02*
X178063276Y-74688064D01*
X178063276Y-74688064D02*
X177988285Y-74706812D01*
X177988285Y-74706812D02*
X177932042Y-74706812D01*
X177932042Y-74706812D02*
X177857052Y-74688064D01*
X177857052Y-74688064D02*
X177819556Y-74669317D01*
X177819556Y-74669317D02*
X177782061Y-74631821D01*
X177782061Y-74631821D02*
X177763313Y-74575578D01*
X177763313Y-74575578D02*
X177763313Y-74538083D01*
X177763313Y-74538083D02*
X177782061Y-74481840D01*
X177782061Y-74481840D02*
X177800809Y-74463092D01*
X177763313Y-74331859D02*
X177763313Y-74088139D01*
X177763313Y-74088139D02*
X177913295Y-74219373D01*
X177913295Y-74219373D02*
X177913295Y-74163130D01*
X177913295Y-74163130D02*
X177932042Y-74125634D01*
X177932042Y-74125634D02*
X177950790Y-74106887D01*
X177950790Y-74106887D02*
X177988285Y-74088139D01*
X177988285Y-74088139D02*
X178082024Y-74088139D01*
X178082024Y-74088139D02*
X178119519Y-74106887D01*
X178119519Y-74106887D02*
X178138267Y-74125634D01*
X178138267Y-74125634D02*
X178157014Y-74163130D01*
X178157014Y-74163130D02*
X178157014Y-74275616D01*
X178157014Y-74275616D02*
X178138267Y-74313111D01*
X178138267Y-74313111D02*
X178119519Y-74331859D01*
X177800809Y-73938158D02*
X177782061Y-73919410D01*
X177782061Y-73919410D02*
X177763313Y-73881915D01*
X177763313Y-73881915D02*
X177763313Y-73788177D01*
X177763313Y-73788177D02*
X177782061Y-73750681D01*
X177782061Y-73750681D02*
X177800809Y-73731934D01*
X177800809Y-73731934D02*
X177838304Y-73713186D01*
X177838304Y-73713186D02*
X177875799Y-73713186D01*
X177875799Y-73713186D02*
X177932042Y-73731934D01*
X177932042Y-73731934D02*
X178157014Y-73956906D01*
X178157014Y-73956906D02*
X178157014Y-73713186D01*
D12*
X146927190Y-87071428D02*
X146951000Y-87095237D01*
X146951000Y-87095237D02*
X146974809Y-87166666D01*
X146974809Y-87166666D02*
X146974809Y-87214285D01*
X146974809Y-87214285D02*
X146951000Y-87285713D01*
X146951000Y-87285713D02*
X146903380Y-87333332D01*
X146903380Y-87333332D02*
X146855761Y-87357142D01*
X146855761Y-87357142D02*
X146760523Y-87380951D01*
X146760523Y-87380951D02*
X146689095Y-87380951D01*
X146689095Y-87380951D02*
X146593857Y-87357142D01*
X146593857Y-87357142D02*
X146546238Y-87333332D01*
X146546238Y-87333332D02*
X146498619Y-87285713D01*
X146498619Y-87285713D02*
X146474809Y-87214285D01*
X146474809Y-87214285D02*
X146474809Y-87166666D01*
X146474809Y-87166666D02*
X146498619Y-87095237D01*
X146498619Y-87095237D02*
X146522428Y-87071428D01*
X146522428Y-86880951D02*
X146498619Y-86857142D01*
X146498619Y-86857142D02*
X146474809Y-86809523D01*
X146474809Y-86809523D02*
X146474809Y-86690475D01*
X146474809Y-86690475D02*
X146498619Y-86642856D01*
X146498619Y-86642856D02*
X146522428Y-86619047D01*
X146522428Y-86619047D02*
X146570047Y-86595237D01*
X146570047Y-86595237D02*
X146617666Y-86595237D01*
X146617666Y-86595237D02*
X146689095Y-86619047D01*
X146689095Y-86619047D02*
X146974809Y-86904761D01*
X146974809Y-86904761D02*
X146974809Y-86595237D01*
X146641476Y-86166666D02*
X146974809Y-86166666D01*
X146451000Y-86285714D02*
X146808142Y-86404761D01*
X146808142Y-86404761D02*
X146808142Y-86095238D01*
D11*
X183333333Y-85859580D02*
X183285714Y-85907200D01*
X183285714Y-85907200D02*
X183142857Y-85954819D01*
X183142857Y-85954819D02*
X183047619Y-85954819D01*
X183047619Y-85954819D02*
X182904762Y-85907200D01*
X182904762Y-85907200D02*
X182809524Y-85811961D01*
X182809524Y-85811961D02*
X182761905Y-85716723D01*
X182761905Y-85716723D02*
X182714286Y-85526247D01*
X182714286Y-85526247D02*
X182714286Y-85383390D01*
X182714286Y-85383390D02*
X182761905Y-85192914D01*
X182761905Y-85192914D02*
X182809524Y-85097676D01*
X182809524Y-85097676D02*
X182904762Y-85002438D01*
X182904762Y-85002438D02*
X183047619Y-84954819D01*
X183047619Y-84954819D02*
X183142857Y-84954819D01*
X183142857Y-84954819D02*
X183285714Y-85002438D01*
X183285714Y-85002438D02*
X183333333Y-85050057D01*
X183904762Y-85383390D02*
X183809524Y-85335771D01*
X183809524Y-85335771D02*
X183761905Y-85288152D01*
X183761905Y-85288152D02*
X183714286Y-85192914D01*
X183714286Y-85192914D02*
X183714286Y-85145295D01*
X183714286Y-85145295D02*
X183761905Y-85050057D01*
X183761905Y-85050057D02*
X183809524Y-85002438D01*
X183809524Y-85002438D02*
X183904762Y-84954819D01*
X183904762Y-84954819D02*
X184095238Y-84954819D01*
X184095238Y-84954819D02*
X184190476Y-85002438D01*
X184190476Y-85002438D02*
X184238095Y-85050057D01*
X184238095Y-85050057D02*
X184285714Y-85145295D01*
X184285714Y-85145295D02*
X184285714Y-85192914D01*
X184285714Y-85192914D02*
X184238095Y-85288152D01*
X184238095Y-85288152D02*
X184190476Y-85335771D01*
X184190476Y-85335771D02*
X184095238Y-85383390D01*
X184095238Y-85383390D02*
X183904762Y-85383390D01*
X183904762Y-85383390D02*
X183809524Y-85431009D01*
X183809524Y-85431009D02*
X183761905Y-85478628D01*
X183761905Y-85478628D02*
X183714286Y-85573866D01*
X183714286Y-85573866D02*
X183714286Y-85764342D01*
X183714286Y-85764342D02*
X183761905Y-85859580D01*
X183761905Y-85859580D02*
X183809524Y-85907200D01*
X183809524Y-85907200D02*
X183904762Y-85954819D01*
X183904762Y-85954819D02*
X184095238Y-85954819D01*
X184095238Y-85954819D02*
X184190476Y-85907200D01*
X184190476Y-85907200D02*
X184238095Y-85859580D01*
X184238095Y-85859580D02*
X184285714Y-85764342D01*
X184285714Y-85764342D02*
X184285714Y-85573866D01*
X184285714Y-85573866D02*
X184238095Y-85478628D01*
X184238095Y-85478628D02*
X184190476Y-85431009D01*
X184190476Y-85431009D02*
X184095238Y-85383390D01*
X149704819Y-81476189D02*
X148704819Y-81476189D01*
X149609580Y-80428571D02*
X149657200Y-80476190D01*
X149657200Y-80476190D02*
X149704819Y-80619047D01*
X149704819Y-80619047D02*
X149704819Y-80714285D01*
X149704819Y-80714285D02*
X149657200Y-80857142D01*
X149657200Y-80857142D02*
X149561961Y-80952380D01*
X149561961Y-80952380D02*
X149466723Y-80999999D01*
X149466723Y-80999999D02*
X149276247Y-81047618D01*
X149276247Y-81047618D02*
X149133390Y-81047618D01*
X149133390Y-81047618D02*
X148942914Y-80999999D01*
X148942914Y-80999999D02*
X148847676Y-80952380D01*
X148847676Y-80952380D02*
X148752438Y-80857142D01*
X148752438Y-80857142D02*
X148704819Y-80714285D01*
X148704819Y-80714285D02*
X148704819Y-80619047D01*
X148704819Y-80619047D02*
X148752438Y-80476190D01*
X148752438Y-80476190D02*
X148800057Y-80428571D01*
X149038152Y-79571428D02*
X149704819Y-79571428D01*
X148657200Y-79809523D02*
X149371485Y-80047618D01*
X149371485Y-80047618D02*
X149371485Y-79428571D01*
X169109580Y-57392857D02*
X169157200Y-57440476D01*
X169157200Y-57440476D02*
X169204819Y-57583333D01*
X169204819Y-57583333D02*
X169204819Y-57678571D01*
X169204819Y-57678571D02*
X169157200Y-57821428D01*
X169157200Y-57821428D02*
X169061961Y-57916666D01*
X169061961Y-57916666D02*
X168966723Y-57964285D01*
X168966723Y-57964285D02*
X168776247Y-58011904D01*
X168776247Y-58011904D02*
X168633390Y-58011904D01*
X168633390Y-58011904D02*
X168442914Y-57964285D01*
X168442914Y-57964285D02*
X168347676Y-57916666D01*
X168347676Y-57916666D02*
X168252438Y-57821428D01*
X168252438Y-57821428D02*
X168204819Y-57678571D01*
X168204819Y-57678571D02*
X168204819Y-57583333D01*
X168204819Y-57583333D02*
X168252438Y-57440476D01*
X168252438Y-57440476D02*
X168300057Y-57392857D01*
X168204819Y-57059523D02*
X168204819Y-56440476D01*
X168204819Y-56440476D02*
X168585771Y-56773809D01*
X168585771Y-56773809D02*
X168585771Y-56630952D01*
X168585771Y-56630952D02*
X168633390Y-56535714D01*
X168633390Y-56535714D02*
X168681009Y-56488095D01*
X168681009Y-56488095D02*
X168776247Y-56440476D01*
X168776247Y-56440476D02*
X169014342Y-56440476D01*
X169014342Y-56440476D02*
X169109580Y-56488095D01*
X169109580Y-56488095D02*
X169157200Y-56535714D01*
X169157200Y-56535714D02*
X169204819Y-56630952D01*
X169204819Y-56630952D02*
X169204819Y-56916666D01*
X169204819Y-56916666D02*
X169157200Y-57011904D01*
X169157200Y-57011904D02*
X169109580Y-57059523D01*
X168204819Y-55535714D02*
X168204819Y-56011904D01*
X168204819Y-56011904D02*
X168681009Y-56059523D01*
X168681009Y-56059523D02*
X168633390Y-56011904D01*
X168633390Y-56011904D02*
X168585771Y-55916666D01*
X168585771Y-55916666D02*
X168585771Y-55678571D01*
X168585771Y-55678571D02*
X168633390Y-55583333D01*
X168633390Y-55583333D02*
X168681009Y-55535714D01*
X168681009Y-55535714D02*
X168776247Y-55488095D01*
X168776247Y-55488095D02*
X169014342Y-55488095D01*
X169014342Y-55488095D02*
X169109580Y-55535714D01*
X169109580Y-55535714D02*
X169157200Y-55583333D01*
X169157200Y-55583333D02*
X169204819Y-55678571D01*
X169204819Y-55678571D02*
X169204819Y-55916666D01*
X169204819Y-55916666D02*
X169157200Y-56011904D01*
X169157200Y-56011904D02*
X169109580Y-56059523D01*
X214717319Y-68938094D02*
X213717319Y-68938094D01*
X213717319Y-68938094D02*
X213717319Y-68699999D01*
X213717319Y-68699999D02*
X213764938Y-68557142D01*
X213764938Y-68557142D02*
X213860176Y-68461904D01*
X213860176Y-68461904D02*
X213955414Y-68414285D01*
X213955414Y-68414285D02*
X214145890Y-68366666D01*
X214145890Y-68366666D02*
X214288747Y-68366666D01*
X214288747Y-68366666D02*
X214479223Y-68414285D01*
X214479223Y-68414285D02*
X214574461Y-68461904D01*
X214574461Y-68461904D02*
X214669700Y-68557142D01*
X214669700Y-68557142D02*
X214717319Y-68699999D01*
X214717319Y-68699999D02*
X214717319Y-68938094D01*
X214145890Y-67795237D02*
X214098271Y-67890475D01*
X214098271Y-67890475D02*
X214050652Y-67938094D01*
X214050652Y-67938094D02*
X213955414Y-67985713D01*
X213955414Y-67985713D02*
X213907795Y-67985713D01*
X213907795Y-67985713D02*
X213812557Y-67938094D01*
X213812557Y-67938094D02*
X213764938Y-67890475D01*
X213764938Y-67890475D02*
X213717319Y-67795237D01*
X213717319Y-67795237D02*
X213717319Y-67604761D01*
X213717319Y-67604761D02*
X213764938Y-67509523D01*
X213764938Y-67509523D02*
X213812557Y-67461904D01*
X213812557Y-67461904D02*
X213907795Y-67414285D01*
X213907795Y-67414285D02*
X213955414Y-67414285D01*
X213955414Y-67414285D02*
X214050652Y-67461904D01*
X214050652Y-67461904D02*
X214098271Y-67509523D01*
X214098271Y-67509523D02*
X214145890Y-67604761D01*
X214145890Y-67604761D02*
X214145890Y-67795237D01*
X214145890Y-67795237D02*
X214193509Y-67890475D01*
X214193509Y-67890475D02*
X214241128Y-67938094D01*
X214241128Y-67938094D02*
X214336366Y-67985713D01*
X214336366Y-67985713D02*
X214526842Y-67985713D01*
X214526842Y-67985713D02*
X214622080Y-67938094D01*
X214622080Y-67938094D02*
X214669700Y-67890475D01*
X214669700Y-67890475D02*
X214717319Y-67795237D01*
X214717319Y-67795237D02*
X214717319Y-67604761D01*
X214717319Y-67604761D02*
X214669700Y-67509523D01*
X214669700Y-67509523D02*
X214622080Y-67461904D01*
X214622080Y-67461904D02*
X214526842Y-67414285D01*
X214526842Y-67414285D02*
X214336366Y-67414285D01*
X214336366Y-67414285D02*
X214241128Y-67461904D01*
X214241128Y-67461904D02*
X214193509Y-67509523D01*
X214193509Y-67509523D02*
X214145890Y-67604761D01*
X150104819Y-75726189D02*
X149104819Y-75726189D01*
X150009580Y-74678571D02*
X150057200Y-74726190D01*
X150057200Y-74726190D02*
X150104819Y-74869047D01*
X150104819Y-74869047D02*
X150104819Y-74964285D01*
X150104819Y-74964285D02*
X150057200Y-75107142D01*
X150057200Y-75107142D02*
X149961961Y-75202380D01*
X149961961Y-75202380D02*
X149866723Y-75249999D01*
X149866723Y-75249999D02*
X149676247Y-75297618D01*
X149676247Y-75297618D02*
X149533390Y-75297618D01*
X149533390Y-75297618D02*
X149342914Y-75249999D01*
X149342914Y-75249999D02*
X149247676Y-75202380D01*
X149247676Y-75202380D02*
X149152438Y-75107142D01*
X149152438Y-75107142D02*
X149104819Y-74964285D01*
X149104819Y-74964285D02*
X149104819Y-74869047D01*
X149104819Y-74869047D02*
X149152438Y-74726190D01*
X149152438Y-74726190D02*
X149200057Y-74678571D01*
X149104819Y-74345237D02*
X149104819Y-73726190D01*
X149104819Y-73726190D02*
X149485771Y-74059523D01*
X149485771Y-74059523D02*
X149485771Y-73916666D01*
X149485771Y-73916666D02*
X149533390Y-73821428D01*
X149533390Y-73821428D02*
X149581009Y-73773809D01*
X149581009Y-73773809D02*
X149676247Y-73726190D01*
X149676247Y-73726190D02*
X149914342Y-73726190D01*
X149914342Y-73726190D02*
X150009580Y-73773809D01*
X150009580Y-73773809D02*
X150057200Y-73821428D01*
X150057200Y-73821428D02*
X150104819Y-73916666D01*
X150104819Y-73916666D02*
X150104819Y-74202380D01*
X150104819Y-74202380D02*
X150057200Y-74297618D01*
X150057200Y-74297618D02*
X150009580Y-74345237D01*
D13*
X156246907Y-76389519D02*
X156228159Y-76408267D01*
X156228159Y-76408267D02*
X156171916Y-76427014D01*
X156171916Y-76427014D02*
X156134421Y-76427014D01*
X156134421Y-76427014D02*
X156078178Y-76408267D01*
X156078178Y-76408267D02*
X156040683Y-76370771D01*
X156040683Y-76370771D02*
X156021935Y-76333276D01*
X156021935Y-76333276D02*
X156003187Y-76258285D01*
X156003187Y-76258285D02*
X156003187Y-76202042D01*
X156003187Y-76202042D02*
X156021935Y-76127052D01*
X156021935Y-76127052D02*
X156040683Y-76089556D01*
X156040683Y-76089556D02*
X156078178Y-76052061D01*
X156078178Y-76052061D02*
X156134421Y-76033313D01*
X156134421Y-76033313D02*
X156171916Y-76033313D01*
X156171916Y-76033313D02*
X156228159Y-76052061D01*
X156228159Y-76052061D02*
X156246907Y-76070809D01*
X156378141Y-76033313D02*
X156621860Y-76033313D01*
X156621860Y-76033313D02*
X156490627Y-76183295D01*
X156490627Y-76183295D02*
X156546870Y-76183295D01*
X156546870Y-76183295D02*
X156584365Y-76202042D01*
X156584365Y-76202042D02*
X156603113Y-76220790D01*
X156603113Y-76220790D02*
X156621860Y-76258285D01*
X156621860Y-76258285D02*
X156621860Y-76352024D01*
X156621860Y-76352024D02*
X156603113Y-76389519D01*
X156603113Y-76389519D02*
X156584365Y-76408267D01*
X156584365Y-76408267D02*
X156546870Y-76427014D01*
X156546870Y-76427014D02*
X156434384Y-76427014D01*
X156434384Y-76427014D02*
X156396888Y-76408267D01*
X156396888Y-76408267D02*
X156378141Y-76389519D01*
X156959318Y-76164547D02*
X156959318Y-76427014D01*
X156865580Y-76014566D02*
X156771841Y-76295781D01*
X156771841Y-76295781D02*
X157015561Y-76295781D01*
D11*
X217207142Y-70424819D02*
X216873809Y-69948628D01*
X216635714Y-70424819D02*
X216635714Y-69424819D01*
X216635714Y-69424819D02*
X217016666Y-69424819D01*
X217016666Y-69424819D02*
X217111904Y-69472438D01*
X217111904Y-69472438D02*
X217159523Y-69520057D01*
X217159523Y-69520057D02*
X217207142Y-69615295D01*
X217207142Y-69615295D02*
X217207142Y-69758152D01*
X217207142Y-69758152D02*
X217159523Y-69853390D01*
X217159523Y-69853390D02*
X217111904Y-69901009D01*
X217111904Y-69901009D02*
X217016666Y-69948628D01*
X217016666Y-69948628D02*
X216635714Y-69948628D01*
X218159523Y-70424819D02*
X217588095Y-70424819D01*
X217873809Y-70424819D02*
X217873809Y-69424819D01*
X217873809Y-69424819D02*
X217778571Y-69567676D01*
X217778571Y-69567676D02*
X217683333Y-69662914D01*
X217683333Y-69662914D02*
X217588095Y-69710533D01*
X218540476Y-69520057D02*
X218588095Y-69472438D01*
X218588095Y-69472438D02*
X218683333Y-69424819D01*
X218683333Y-69424819D02*
X218921428Y-69424819D01*
X218921428Y-69424819D02*
X219016666Y-69472438D01*
X219016666Y-69472438D02*
X219064285Y-69520057D01*
X219064285Y-69520057D02*
X219111904Y-69615295D01*
X219111904Y-69615295D02*
X219111904Y-69710533D01*
X219111904Y-69710533D02*
X219064285Y-69853390D01*
X219064285Y-69853390D02*
X218492857Y-70424819D01*
X218492857Y-70424819D02*
X219111904Y-70424819D01*
X211374819Y-83216666D02*
X210898628Y-83549999D01*
X211374819Y-83788094D02*
X210374819Y-83788094D01*
X210374819Y-83788094D02*
X210374819Y-83407142D01*
X210374819Y-83407142D02*
X210422438Y-83311904D01*
X210422438Y-83311904D02*
X210470057Y-83264285D01*
X210470057Y-83264285D02*
X210565295Y-83216666D01*
X210565295Y-83216666D02*
X210708152Y-83216666D01*
X210708152Y-83216666D02*
X210803390Y-83264285D01*
X210803390Y-83264285D02*
X210851009Y-83311904D01*
X210851009Y-83311904D02*
X210898628Y-83407142D01*
X210898628Y-83407142D02*
X210898628Y-83788094D01*
X210374819Y-82883332D02*
X210374819Y-82216666D01*
X210374819Y-82216666D02*
X211374819Y-82645237D01*
X206042319Y-78788094D02*
X205042319Y-78788094D01*
X205042319Y-78788094D02*
X205042319Y-78549999D01*
X205042319Y-78549999D02*
X205089938Y-78407142D01*
X205089938Y-78407142D02*
X205185176Y-78311904D01*
X205185176Y-78311904D02*
X205280414Y-78264285D01*
X205280414Y-78264285D02*
X205470890Y-78216666D01*
X205470890Y-78216666D02*
X205613747Y-78216666D01*
X205613747Y-78216666D02*
X205804223Y-78264285D01*
X205804223Y-78264285D02*
X205899461Y-78311904D01*
X205899461Y-78311904D02*
X205994700Y-78407142D01*
X205994700Y-78407142D02*
X206042319Y-78549999D01*
X206042319Y-78549999D02*
X206042319Y-78788094D01*
X206042319Y-77264285D02*
X206042319Y-77835713D01*
X206042319Y-77549999D02*
X205042319Y-77549999D01*
X205042319Y-77549999D02*
X205185176Y-77645237D01*
X205185176Y-77645237D02*
X205280414Y-77740475D01*
X205280414Y-77740475D02*
X205328033Y-77835713D01*
D14*
X181145238Y-55719556D02*
X181145238Y-56324318D01*
X180721905Y-55054318D02*
X181145238Y-55719556D01*
X181145238Y-55719556D02*
X181568572Y-55054318D01*
X182657143Y-56324318D02*
X181931428Y-56324318D01*
X182294285Y-56324318D02*
X182294285Y-55054318D01*
X182294285Y-55054318D02*
X182173333Y-55235746D01*
X182173333Y-55235746D02*
X182052381Y-55356699D01*
X182052381Y-55356699D02*
X181931428Y-55417175D01*
D11*
X206107142Y-69959580D02*
X206059523Y-70007200D01*
X206059523Y-70007200D02*
X205916666Y-70054819D01*
X205916666Y-70054819D02*
X205821428Y-70054819D01*
X205821428Y-70054819D02*
X205678571Y-70007200D01*
X205678571Y-70007200D02*
X205583333Y-69911961D01*
X205583333Y-69911961D02*
X205535714Y-69816723D01*
X205535714Y-69816723D02*
X205488095Y-69626247D01*
X205488095Y-69626247D02*
X205488095Y-69483390D01*
X205488095Y-69483390D02*
X205535714Y-69292914D01*
X205535714Y-69292914D02*
X205583333Y-69197676D01*
X205583333Y-69197676D02*
X205678571Y-69102438D01*
X205678571Y-69102438D02*
X205821428Y-69054819D01*
X205821428Y-69054819D02*
X205916666Y-69054819D01*
X205916666Y-69054819D02*
X206059523Y-69102438D01*
X206059523Y-69102438D02*
X206107142Y-69150057D01*
X207059523Y-70054819D02*
X206488095Y-70054819D01*
X206773809Y-70054819D02*
X206773809Y-69054819D01*
X206773809Y-69054819D02*
X206678571Y-69197676D01*
X206678571Y-69197676D02*
X206583333Y-69292914D01*
X206583333Y-69292914D02*
X206488095Y-69340533D01*
X207916666Y-69388152D02*
X207916666Y-70054819D01*
X207678571Y-69007200D02*
X207440476Y-69721485D01*
X207440476Y-69721485D02*
X208059523Y-69721485D01*
X193833333Y-77609580D02*
X193785714Y-77657200D01*
X193785714Y-77657200D02*
X193642857Y-77704819D01*
X193642857Y-77704819D02*
X193547619Y-77704819D01*
X193547619Y-77704819D02*
X193404762Y-77657200D01*
X193404762Y-77657200D02*
X193309524Y-77561961D01*
X193309524Y-77561961D02*
X193261905Y-77466723D01*
X193261905Y-77466723D02*
X193214286Y-77276247D01*
X193214286Y-77276247D02*
X193214286Y-77133390D01*
X193214286Y-77133390D02*
X193261905Y-76942914D01*
X193261905Y-76942914D02*
X193309524Y-76847676D01*
X193309524Y-76847676D02*
X193404762Y-76752438D01*
X193404762Y-76752438D02*
X193547619Y-76704819D01*
X193547619Y-76704819D02*
X193642857Y-76704819D01*
X193642857Y-76704819D02*
X193785714Y-76752438D01*
X193785714Y-76752438D02*
X193833333Y-76800057D01*
X194166667Y-76704819D02*
X194833333Y-76704819D01*
X194833333Y-76704819D02*
X194404762Y-77704819D01*
D14*
X141824318Y-66239762D02*
X140554318Y-66239762D01*
X141703365Y-64909285D02*
X141763842Y-64969761D01*
X141763842Y-64969761D02*
X141824318Y-65151190D01*
X141824318Y-65151190D02*
X141824318Y-65272142D01*
X141824318Y-65272142D02*
X141763842Y-65453571D01*
X141763842Y-65453571D02*
X141642889Y-65574523D01*
X141642889Y-65574523D02*
X141521937Y-65635000D01*
X141521937Y-65635000D02*
X141280032Y-65695476D01*
X141280032Y-65695476D02*
X141098603Y-65695476D01*
X141098603Y-65695476D02*
X140856699Y-65635000D01*
X140856699Y-65635000D02*
X140735746Y-65574523D01*
X140735746Y-65574523D02*
X140614794Y-65453571D01*
X140614794Y-65453571D02*
X140554318Y-65272142D01*
X140554318Y-65272142D02*
X140554318Y-65151190D01*
X140554318Y-65151190D02*
X140614794Y-64969761D01*
X140614794Y-64969761D02*
X140675270Y-64909285D01*
X140675270Y-64425476D02*
X140614794Y-64365000D01*
X140614794Y-64365000D02*
X140554318Y-64244047D01*
X140554318Y-64244047D02*
X140554318Y-63941666D01*
X140554318Y-63941666D02*
X140614794Y-63820714D01*
X140614794Y-63820714D02*
X140675270Y-63760238D01*
X140675270Y-63760238D02*
X140796222Y-63699761D01*
X140796222Y-63699761D02*
X140917175Y-63699761D01*
X140917175Y-63699761D02*
X141098603Y-63760238D01*
X141098603Y-63760238D02*
X141824318Y-64485952D01*
X141824318Y-64485952D02*
X141824318Y-63699761D01*
D11*
X217833333Y-60424819D02*
X217500000Y-59948628D01*
X217261905Y-60424819D02*
X217261905Y-59424819D01*
X217261905Y-59424819D02*
X217642857Y-59424819D01*
X217642857Y-59424819D02*
X217738095Y-59472438D01*
X217738095Y-59472438D02*
X217785714Y-59520057D01*
X217785714Y-59520057D02*
X217833333Y-59615295D01*
X217833333Y-59615295D02*
X217833333Y-59758152D01*
X217833333Y-59758152D02*
X217785714Y-59853390D01*
X217785714Y-59853390D02*
X217738095Y-59901009D01*
X217738095Y-59901009D02*
X217642857Y-59948628D01*
X217642857Y-59948628D02*
X217261905Y-59948628D01*
X218404762Y-59853390D02*
X218309524Y-59805771D01*
X218309524Y-59805771D02*
X218261905Y-59758152D01*
X218261905Y-59758152D02*
X218214286Y-59662914D01*
X218214286Y-59662914D02*
X218214286Y-59615295D01*
X218214286Y-59615295D02*
X218261905Y-59520057D01*
X218261905Y-59520057D02*
X218309524Y-59472438D01*
X218309524Y-59472438D02*
X218404762Y-59424819D01*
X218404762Y-59424819D02*
X218595238Y-59424819D01*
X218595238Y-59424819D02*
X218690476Y-59472438D01*
X218690476Y-59472438D02*
X218738095Y-59520057D01*
X218738095Y-59520057D02*
X218785714Y-59615295D01*
X218785714Y-59615295D02*
X218785714Y-59662914D01*
X218785714Y-59662914D02*
X218738095Y-59758152D01*
X218738095Y-59758152D02*
X218690476Y-59805771D01*
X218690476Y-59805771D02*
X218595238Y-59853390D01*
X218595238Y-59853390D02*
X218404762Y-59853390D01*
X218404762Y-59853390D02*
X218309524Y-59901009D01*
X218309524Y-59901009D02*
X218261905Y-59948628D01*
X218261905Y-59948628D02*
X218214286Y-60043866D01*
X218214286Y-60043866D02*
X218214286Y-60234342D01*
X218214286Y-60234342D02*
X218261905Y-60329580D01*
X218261905Y-60329580D02*
X218309524Y-60377200D01*
X218309524Y-60377200D02*
X218404762Y-60424819D01*
X218404762Y-60424819D02*
X218595238Y-60424819D01*
X218595238Y-60424819D02*
X218690476Y-60377200D01*
X218690476Y-60377200D02*
X218738095Y-60329580D01*
X218738095Y-60329580D02*
X218785714Y-60234342D01*
X218785714Y-60234342D02*
X218785714Y-60043866D01*
X218785714Y-60043866D02*
X218738095Y-59948628D01*
X218738095Y-59948628D02*
X218690476Y-59901009D01*
X218690476Y-59901009D02*
X218595238Y-59853390D01*
X217257142Y-66824819D02*
X216923809Y-66348628D01*
X216685714Y-66824819D02*
X216685714Y-65824819D01*
X216685714Y-65824819D02*
X217066666Y-65824819D01*
X217066666Y-65824819D02*
X217161904Y-65872438D01*
X217161904Y-65872438D02*
X217209523Y-65920057D01*
X217209523Y-65920057D02*
X217257142Y-66015295D01*
X217257142Y-66015295D02*
X217257142Y-66158152D01*
X217257142Y-66158152D02*
X217209523Y-66253390D01*
X217209523Y-66253390D02*
X217161904Y-66301009D01*
X217161904Y-66301009D02*
X217066666Y-66348628D01*
X217066666Y-66348628D02*
X216685714Y-66348628D01*
X218209523Y-66824819D02*
X217638095Y-66824819D01*
X217923809Y-66824819D02*
X217923809Y-65824819D01*
X217923809Y-65824819D02*
X217828571Y-65967676D01*
X217828571Y-65967676D02*
X217733333Y-66062914D01*
X217733333Y-66062914D02*
X217638095Y-66110533D01*
X219066666Y-66158152D02*
X219066666Y-66824819D01*
X218828571Y-65777200D02*
X218590476Y-66491485D01*
X218590476Y-66491485D02*
X219209523Y-66491485D01*
X149359580Y-66166666D02*
X149407200Y-66214285D01*
X149407200Y-66214285D02*
X149454819Y-66357142D01*
X149454819Y-66357142D02*
X149454819Y-66452380D01*
X149454819Y-66452380D02*
X149407200Y-66595237D01*
X149407200Y-66595237D02*
X149311961Y-66690475D01*
X149311961Y-66690475D02*
X149216723Y-66738094D01*
X149216723Y-66738094D02*
X149026247Y-66785713D01*
X149026247Y-66785713D02*
X148883390Y-66785713D01*
X148883390Y-66785713D02*
X148692914Y-66738094D01*
X148692914Y-66738094D02*
X148597676Y-66690475D01*
X148597676Y-66690475D02*
X148502438Y-66595237D01*
X148502438Y-66595237D02*
X148454819Y-66452380D01*
X148454819Y-66452380D02*
X148454819Y-66357142D01*
X148454819Y-66357142D02*
X148502438Y-66214285D01*
X148502438Y-66214285D02*
X148550057Y-66166666D01*
X148454819Y-65309523D02*
X148454819Y-65499999D01*
X148454819Y-65499999D02*
X148502438Y-65595237D01*
X148502438Y-65595237D02*
X148550057Y-65642856D01*
X148550057Y-65642856D02*
X148692914Y-65738094D01*
X148692914Y-65738094D02*
X148883390Y-65785713D01*
X148883390Y-65785713D02*
X149264342Y-65785713D01*
X149264342Y-65785713D02*
X149359580Y-65738094D01*
X149359580Y-65738094D02*
X149407200Y-65690475D01*
X149407200Y-65690475D02*
X149454819Y-65595237D01*
X149454819Y-65595237D02*
X149454819Y-65404761D01*
X149454819Y-65404761D02*
X149407200Y-65309523D01*
X149407200Y-65309523D02*
X149359580Y-65261904D01*
X149359580Y-65261904D02*
X149264342Y-65214285D01*
X149264342Y-65214285D02*
X149026247Y-65214285D01*
X149026247Y-65214285D02*
X148931009Y-65261904D01*
X148931009Y-65261904D02*
X148883390Y-65309523D01*
X148883390Y-65309523D02*
X148835771Y-65404761D01*
X148835771Y-65404761D02*
X148835771Y-65595237D01*
X148835771Y-65595237D02*
X148883390Y-65690475D01*
X148883390Y-65690475D02*
X148931009Y-65738094D01*
X148931009Y-65738094D02*
X149026247Y-65785713D01*
X184359580Y-72142857D02*
X184407200Y-72190476D01*
X184407200Y-72190476D02*
X184454819Y-72333333D01*
X184454819Y-72333333D02*
X184454819Y-72428571D01*
X184454819Y-72428571D02*
X184407200Y-72571428D01*
X184407200Y-72571428D02*
X184311961Y-72666666D01*
X184311961Y-72666666D02*
X184216723Y-72714285D01*
X184216723Y-72714285D02*
X184026247Y-72761904D01*
X184026247Y-72761904D02*
X183883390Y-72761904D01*
X183883390Y-72761904D02*
X183692914Y-72714285D01*
X183692914Y-72714285D02*
X183597676Y-72666666D01*
X183597676Y-72666666D02*
X183502438Y-72571428D01*
X183502438Y-72571428D02*
X183454819Y-72428571D01*
X183454819Y-72428571D02*
X183454819Y-72333333D01*
X183454819Y-72333333D02*
X183502438Y-72190476D01*
X183502438Y-72190476D02*
X183550057Y-72142857D01*
X183454819Y-71809523D02*
X183454819Y-71190476D01*
X183454819Y-71190476D02*
X183835771Y-71523809D01*
X183835771Y-71523809D02*
X183835771Y-71380952D01*
X183835771Y-71380952D02*
X183883390Y-71285714D01*
X183883390Y-71285714D02*
X183931009Y-71238095D01*
X183931009Y-71238095D02*
X184026247Y-71190476D01*
X184026247Y-71190476D02*
X184264342Y-71190476D01*
X184264342Y-71190476D02*
X184359580Y-71238095D01*
X184359580Y-71238095D02*
X184407200Y-71285714D01*
X184407200Y-71285714D02*
X184454819Y-71380952D01*
X184454819Y-71380952D02*
X184454819Y-71666666D01*
X184454819Y-71666666D02*
X184407200Y-71761904D01*
X184407200Y-71761904D02*
X184359580Y-71809523D01*
X183454819Y-70571428D02*
X183454819Y-70476190D01*
X183454819Y-70476190D02*
X183502438Y-70380952D01*
X183502438Y-70380952D02*
X183550057Y-70333333D01*
X183550057Y-70333333D02*
X183645295Y-70285714D01*
X183645295Y-70285714D02*
X183835771Y-70238095D01*
X183835771Y-70238095D02*
X184073866Y-70238095D01*
X184073866Y-70238095D02*
X184264342Y-70285714D01*
X184264342Y-70285714D02*
X184359580Y-70333333D01*
X184359580Y-70333333D02*
X184407200Y-70380952D01*
X184407200Y-70380952D02*
X184454819Y-70476190D01*
X184454819Y-70476190D02*
X184454819Y-70571428D01*
X184454819Y-70571428D02*
X184407200Y-70666666D01*
X184407200Y-70666666D02*
X184359580Y-70714285D01*
X184359580Y-70714285D02*
X184264342Y-70761904D01*
X184264342Y-70761904D02*
X184073866Y-70809523D01*
X184073866Y-70809523D02*
X183835771Y-70809523D01*
X183835771Y-70809523D02*
X183645295Y-70761904D01*
X183645295Y-70761904D02*
X183550057Y-70714285D01*
X183550057Y-70714285D02*
X183502438Y-70666666D01*
X183502438Y-70666666D02*
X183454819Y-70571428D01*
X162259580Y-66166666D02*
X162307200Y-66214285D01*
X162307200Y-66214285D02*
X162354819Y-66357142D01*
X162354819Y-66357142D02*
X162354819Y-66452380D01*
X162354819Y-66452380D02*
X162307200Y-66595237D01*
X162307200Y-66595237D02*
X162211961Y-66690475D01*
X162211961Y-66690475D02*
X162116723Y-66738094D01*
X162116723Y-66738094D02*
X161926247Y-66785713D01*
X161926247Y-66785713D02*
X161783390Y-66785713D01*
X161783390Y-66785713D02*
X161592914Y-66738094D01*
X161592914Y-66738094D02*
X161497676Y-66690475D01*
X161497676Y-66690475D02*
X161402438Y-66595237D01*
X161402438Y-66595237D02*
X161354819Y-66452380D01*
X161354819Y-66452380D02*
X161354819Y-66357142D01*
X161354819Y-66357142D02*
X161402438Y-66214285D01*
X161402438Y-66214285D02*
X161450057Y-66166666D01*
X161450057Y-65785713D02*
X161402438Y-65738094D01*
X161402438Y-65738094D02*
X161354819Y-65642856D01*
X161354819Y-65642856D02*
X161354819Y-65404761D01*
X161354819Y-65404761D02*
X161402438Y-65309523D01*
X161402438Y-65309523D02*
X161450057Y-65261904D01*
X161450057Y-65261904D02*
X161545295Y-65214285D01*
X161545295Y-65214285D02*
X161640533Y-65214285D01*
X161640533Y-65214285D02*
X161783390Y-65261904D01*
X161783390Y-65261904D02*
X162354819Y-65833332D01*
X162354819Y-65833332D02*
X162354819Y-65214285D01*
X153109580Y-77892857D02*
X153157200Y-77940476D01*
X153157200Y-77940476D02*
X153204819Y-78083333D01*
X153204819Y-78083333D02*
X153204819Y-78178571D01*
X153204819Y-78178571D02*
X153157200Y-78321428D01*
X153157200Y-78321428D02*
X153061961Y-78416666D01*
X153061961Y-78416666D02*
X152966723Y-78464285D01*
X152966723Y-78464285D02*
X152776247Y-78511904D01*
X152776247Y-78511904D02*
X152633390Y-78511904D01*
X152633390Y-78511904D02*
X152442914Y-78464285D01*
X152442914Y-78464285D02*
X152347676Y-78416666D01*
X152347676Y-78416666D02*
X152252438Y-78321428D01*
X152252438Y-78321428D02*
X152204819Y-78178571D01*
X152204819Y-78178571D02*
X152204819Y-78083333D01*
X152204819Y-78083333D02*
X152252438Y-77940476D01*
X152252438Y-77940476D02*
X152300057Y-77892857D01*
X153204819Y-76940476D02*
X153204819Y-77511904D01*
X153204819Y-77226190D02*
X152204819Y-77226190D01*
X152204819Y-77226190D02*
X152347676Y-77321428D01*
X152347676Y-77321428D02*
X152442914Y-77416666D01*
X152442914Y-77416666D02*
X152490533Y-77511904D01*
X153204819Y-75988095D02*
X153204819Y-76559523D01*
X153204819Y-76273809D02*
X152204819Y-76273809D01*
X152204819Y-76273809D02*
X152347676Y-76369047D01*
X152347676Y-76369047D02*
X152442914Y-76464285D01*
X152442914Y-76464285D02*
X152490533Y-76559523D01*
D14*
X177760237Y-67324318D02*
X177760237Y-66054318D01*
X179090714Y-67203365D02*
X179030238Y-67263842D01*
X179030238Y-67263842D02*
X178848809Y-67324318D01*
X178848809Y-67324318D02*
X178727857Y-67324318D01*
X178727857Y-67324318D02*
X178546428Y-67263842D01*
X178546428Y-67263842D02*
X178425476Y-67142889D01*
X178425476Y-67142889D02*
X178364999Y-67021937D01*
X178364999Y-67021937D02*
X178304523Y-66780032D01*
X178304523Y-66780032D02*
X178304523Y-66598603D01*
X178304523Y-66598603D02*
X178364999Y-66356699D01*
X178364999Y-66356699D02*
X178425476Y-66235746D01*
X178425476Y-66235746D02*
X178546428Y-66114794D01*
X178546428Y-66114794D02*
X178727857Y-66054318D01*
X178727857Y-66054318D02*
X178848809Y-66054318D01*
X178848809Y-66054318D02*
X179030238Y-66114794D01*
X179030238Y-66114794D02*
X179090714Y-66175270D01*
X180300238Y-67324318D02*
X179574523Y-67324318D01*
X179937380Y-67324318D02*
X179937380Y-66054318D01*
X179937380Y-66054318D02*
X179816428Y-66235746D01*
X179816428Y-66235746D02*
X179695476Y-66356699D01*
X179695476Y-66356699D02*
X179574523Y-66417175D01*
D13*
X161746907Y-76389519D02*
X161728159Y-76408267D01*
X161728159Y-76408267D02*
X161671916Y-76427014D01*
X161671916Y-76427014D02*
X161634421Y-76427014D01*
X161634421Y-76427014D02*
X161578178Y-76408267D01*
X161578178Y-76408267D02*
X161540683Y-76370771D01*
X161540683Y-76370771D02*
X161521935Y-76333276D01*
X161521935Y-76333276D02*
X161503187Y-76258285D01*
X161503187Y-76258285D02*
X161503187Y-76202042D01*
X161503187Y-76202042D02*
X161521935Y-76127052D01*
X161521935Y-76127052D02*
X161540683Y-76089556D01*
X161540683Y-76089556D02*
X161578178Y-76052061D01*
X161578178Y-76052061D02*
X161634421Y-76033313D01*
X161634421Y-76033313D02*
X161671916Y-76033313D01*
X161671916Y-76033313D02*
X161728159Y-76052061D01*
X161728159Y-76052061D02*
X161746907Y-76070809D01*
X161878141Y-76033313D02*
X162121860Y-76033313D01*
X162121860Y-76033313D02*
X161990627Y-76183295D01*
X161990627Y-76183295D02*
X162046870Y-76183295D01*
X162046870Y-76183295D02*
X162084365Y-76202042D01*
X162084365Y-76202042D02*
X162103113Y-76220790D01*
X162103113Y-76220790D02*
X162121860Y-76258285D01*
X162121860Y-76258285D02*
X162121860Y-76352024D01*
X162121860Y-76352024D02*
X162103113Y-76389519D01*
X162103113Y-76389519D02*
X162084365Y-76408267D01*
X162084365Y-76408267D02*
X162046870Y-76427014D01*
X162046870Y-76427014D02*
X161934384Y-76427014D01*
X161934384Y-76427014D02*
X161896888Y-76408267D01*
X161896888Y-76408267D02*
X161878141Y-76389519D01*
X162253094Y-76033313D02*
X162496813Y-76033313D01*
X162496813Y-76033313D02*
X162365580Y-76183295D01*
X162365580Y-76183295D02*
X162421823Y-76183295D01*
X162421823Y-76183295D02*
X162459318Y-76202042D01*
X162459318Y-76202042D02*
X162478066Y-76220790D01*
X162478066Y-76220790D02*
X162496813Y-76258285D01*
X162496813Y-76258285D02*
X162496813Y-76352024D01*
X162496813Y-76352024D02*
X162478066Y-76389519D01*
X162478066Y-76389519D02*
X162459318Y-76408267D01*
X162459318Y-76408267D02*
X162421823Y-76427014D01*
X162421823Y-76427014D02*
X162309337Y-76427014D01*
X162309337Y-76427014D02*
X162271841Y-76408267D01*
X162271841Y-76408267D02*
X162253094Y-76389519D01*
D11*
X217583333Y-81504819D02*
X217250000Y-81028628D01*
X217011905Y-81504819D02*
X217011905Y-80504819D01*
X217011905Y-80504819D02*
X217392857Y-80504819D01*
X217392857Y-80504819D02*
X217488095Y-80552438D01*
X217488095Y-80552438D02*
X217535714Y-80600057D01*
X217535714Y-80600057D02*
X217583333Y-80695295D01*
X217583333Y-80695295D02*
X217583333Y-80838152D01*
X217583333Y-80838152D02*
X217535714Y-80933390D01*
X217535714Y-80933390D02*
X217488095Y-80981009D01*
X217488095Y-80981009D02*
X217392857Y-81028628D01*
X217392857Y-81028628D02*
X217011905Y-81028628D01*
X218488095Y-80504819D02*
X218011905Y-80504819D01*
X218011905Y-80504819D02*
X217964286Y-80981009D01*
X217964286Y-80981009D02*
X218011905Y-80933390D01*
X218011905Y-80933390D02*
X218107143Y-80885771D01*
X218107143Y-80885771D02*
X218345238Y-80885771D01*
X218345238Y-80885771D02*
X218440476Y-80933390D01*
X218440476Y-80933390D02*
X218488095Y-80981009D01*
X218488095Y-80981009D02*
X218535714Y-81076247D01*
X218535714Y-81076247D02*
X218535714Y-81314342D01*
X218535714Y-81314342D02*
X218488095Y-81409580D01*
X218488095Y-81409580D02*
X218440476Y-81457200D01*
X218440476Y-81457200D02*
X218345238Y-81504819D01*
X218345238Y-81504819D02*
X218107143Y-81504819D01*
X218107143Y-81504819D02*
X218011905Y-81457200D01*
X218011905Y-81457200D02*
X217964286Y-81409580D01*
X202294642Y-81259580D02*
X202247023Y-81307200D01*
X202247023Y-81307200D02*
X202104166Y-81354819D01*
X202104166Y-81354819D02*
X202008928Y-81354819D01*
X202008928Y-81354819D02*
X201866071Y-81307200D01*
X201866071Y-81307200D02*
X201770833Y-81211961D01*
X201770833Y-81211961D02*
X201723214Y-81116723D01*
X201723214Y-81116723D02*
X201675595Y-80926247D01*
X201675595Y-80926247D02*
X201675595Y-80783390D01*
X201675595Y-80783390D02*
X201723214Y-80592914D01*
X201723214Y-80592914D02*
X201770833Y-80497676D01*
X201770833Y-80497676D02*
X201866071Y-80402438D01*
X201866071Y-80402438D02*
X202008928Y-80354819D01*
X202008928Y-80354819D02*
X202104166Y-80354819D01*
X202104166Y-80354819D02*
X202247023Y-80402438D01*
X202247023Y-80402438D02*
X202294642Y-80450057D01*
X202675595Y-80450057D02*
X202723214Y-80402438D01*
X202723214Y-80402438D02*
X202818452Y-80354819D01*
X202818452Y-80354819D02*
X203056547Y-80354819D01*
X203056547Y-80354819D02*
X203151785Y-80402438D01*
X203151785Y-80402438D02*
X203199404Y-80450057D01*
X203199404Y-80450057D02*
X203247023Y-80545295D01*
X203247023Y-80545295D02*
X203247023Y-80640533D01*
X203247023Y-80640533D02*
X203199404Y-80783390D01*
X203199404Y-80783390D02*
X202627976Y-81354819D01*
X202627976Y-81354819D02*
X203247023Y-81354819D01*
X203580357Y-80354819D02*
X204247023Y-80354819D01*
X204247023Y-80354819D02*
X203818452Y-81354819D01*
X197988094Y-66045180D02*
X197988094Y-65235657D01*
X197988094Y-65235657D02*
X197940475Y-65140419D01*
X197940475Y-65140419D02*
X197892856Y-65092800D01*
X197892856Y-65092800D02*
X197797618Y-65045180D01*
X197797618Y-65045180D02*
X197607142Y-65045180D01*
X197607142Y-65045180D02*
X197511904Y-65092800D01*
X197511904Y-65092800D02*
X197464285Y-65140419D01*
X197464285Y-65140419D02*
X197416666Y-65235657D01*
X197416666Y-65235657D02*
X197416666Y-66045180D01*
X196416666Y-65045180D02*
X196988094Y-65045180D01*
X196702380Y-65045180D02*
X196702380Y-66045180D01*
X196702380Y-66045180D02*
X196797618Y-65902323D01*
X196797618Y-65902323D02*
X196892856Y-65807085D01*
X196892856Y-65807085D02*
X196988094Y-65759466D01*
X195797618Y-66045180D02*
X195702380Y-66045180D01*
X195702380Y-66045180D02*
X195607142Y-65997561D01*
X195607142Y-65997561D02*
X195559523Y-65949942D01*
X195559523Y-65949942D02*
X195511904Y-65854704D01*
X195511904Y-65854704D02*
X195464285Y-65664228D01*
X195464285Y-65664228D02*
X195464285Y-65426133D01*
X195464285Y-65426133D02*
X195511904Y-65235657D01*
X195511904Y-65235657D02*
X195559523Y-65140419D01*
X195559523Y-65140419D02*
X195607142Y-65092800D01*
X195607142Y-65092800D02*
X195702380Y-65045180D01*
X195702380Y-65045180D02*
X195797618Y-65045180D01*
X195797618Y-65045180D02*
X195892856Y-65092800D01*
X195892856Y-65092800D02*
X195940475Y-65140419D01*
X195940475Y-65140419D02*
X195988094Y-65235657D01*
X195988094Y-65235657D02*
X196035713Y-65426133D01*
X196035713Y-65426133D02*
X196035713Y-65664228D01*
X196035713Y-65664228D02*
X195988094Y-65854704D01*
X195988094Y-65854704D02*
X195940475Y-65949942D01*
X195940475Y-65949942D02*
X195892856Y-65997561D01*
X195892856Y-65997561D02*
X195797618Y-66045180D01*
X140357142Y-90459580D02*
X140309523Y-90507200D01*
X140309523Y-90507200D02*
X140166666Y-90554819D01*
X140166666Y-90554819D02*
X140071428Y-90554819D01*
X140071428Y-90554819D02*
X139928571Y-90507200D01*
X139928571Y-90507200D02*
X139833333Y-90411961D01*
X139833333Y-90411961D02*
X139785714Y-90316723D01*
X139785714Y-90316723D02*
X139738095Y-90126247D01*
X139738095Y-90126247D02*
X139738095Y-89983390D01*
X139738095Y-89983390D02*
X139785714Y-89792914D01*
X139785714Y-89792914D02*
X139833333Y-89697676D01*
X139833333Y-89697676D02*
X139928571Y-89602438D01*
X139928571Y-89602438D02*
X140071428Y-89554819D01*
X140071428Y-89554819D02*
X140166666Y-89554819D01*
X140166666Y-89554819D02*
X140309523Y-89602438D01*
X140309523Y-89602438D02*
X140357142Y-89650057D01*
X140738095Y-89650057D02*
X140785714Y-89602438D01*
X140785714Y-89602438D02*
X140880952Y-89554819D01*
X140880952Y-89554819D02*
X141119047Y-89554819D01*
X141119047Y-89554819D02*
X141214285Y-89602438D01*
X141214285Y-89602438D02*
X141261904Y-89650057D01*
X141261904Y-89650057D02*
X141309523Y-89745295D01*
X141309523Y-89745295D02*
X141309523Y-89840533D01*
X141309523Y-89840533D02*
X141261904Y-89983390D01*
X141261904Y-89983390D02*
X140690476Y-90554819D01*
X140690476Y-90554819D02*
X141309523Y-90554819D01*
X142214285Y-89554819D02*
X141738095Y-89554819D01*
X141738095Y-89554819D02*
X141690476Y-90031009D01*
X141690476Y-90031009D02*
X141738095Y-89983390D01*
X141738095Y-89983390D02*
X141833333Y-89935771D01*
X141833333Y-89935771D02*
X142071428Y-89935771D01*
X142071428Y-89935771D02*
X142166666Y-89983390D01*
X142166666Y-89983390D02*
X142214285Y-90031009D01*
X142214285Y-90031009D02*
X142261904Y-90126247D01*
X142261904Y-90126247D02*
X142261904Y-90364342D01*
X142261904Y-90364342D02*
X142214285Y-90459580D01*
X142214285Y-90459580D02*
X142166666Y-90507200D01*
X142166666Y-90507200D02*
X142071428Y-90554819D01*
X142071428Y-90554819D02*
X141833333Y-90554819D01*
X141833333Y-90554819D02*
X141738095Y-90507200D01*
X141738095Y-90507200D02*
X141690476Y-90459580D01*
D14*
X148576667Y-51304318D02*
X148576667Y-52211461D01*
X148576667Y-52211461D02*
X148516190Y-52392889D01*
X148516190Y-52392889D02*
X148395238Y-52513842D01*
X148395238Y-52513842D02*
X148213809Y-52574318D01*
X148213809Y-52574318D02*
X148092857Y-52574318D01*
X149725714Y-51304318D02*
X149483809Y-51304318D01*
X149483809Y-51304318D02*
X149362857Y-51364794D01*
X149362857Y-51364794D02*
X149302381Y-51425270D01*
X149302381Y-51425270D02*
X149181428Y-51606699D01*
X149181428Y-51606699D02*
X149120952Y-51848603D01*
X149120952Y-51848603D02*
X149120952Y-52332413D01*
X149120952Y-52332413D02*
X149181428Y-52453365D01*
X149181428Y-52453365D02*
X149241905Y-52513842D01*
X149241905Y-52513842D02*
X149362857Y-52574318D01*
X149362857Y-52574318D02*
X149604762Y-52574318D01*
X149604762Y-52574318D02*
X149725714Y-52513842D01*
X149725714Y-52513842D02*
X149786190Y-52453365D01*
X149786190Y-52453365D02*
X149846667Y-52332413D01*
X149846667Y-52332413D02*
X149846667Y-52030032D01*
X149846667Y-52030032D02*
X149786190Y-51909080D01*
X149786190Y-51909080D02*
X149725714Y-51848603D01*
X149725714Y-51848603D02*
X149604762Y-51788127D01*
X149604762Y-51788127D02*
X149362857Y-51788127D01*
X149362857Y-51788127D02*
X149241905Y-51848603D01*
X149241905Y-51848603D02*
X149181428Y-51909080D01*
X149181428Y-51909080D02*
X149120952Y-52030032D01*
D17*
%TO.C,TP8*%
X204745000Y-54985000D02*
X204745000Y-54860000D01*
X204685565Y-54985000D02*
X204745000Y-54985000D01*
X203255000Y-54985000D02*
X204745000Y-54985000D01*
X203255000Y-54985000D02*
X203314435Y-54985000D01*
X203255000Y-54985000D02*
X203255000Y-54860000D01*
X203255000Y-54250000D02*
X203255000Y-53515000D01*
X203255000Y-53515000D02*
X204000000Y-53515000D01*
%TO.C,R23*%
X218677064Y-92890000D02*
X217222936Y-92890000D01*
X218677064Y-94710000D02*
X217222936Y-94710000D01*
%TO.C,C1*%
X186711252Y-62090000D02*
X185288748Y-62090000D01*
X186711252Y-63910000D02*
X185288748Y-63910000D01*
D18*
%TO.C,C17*%
X193800000Y-90450000D02*
X192700000Y-90450000D01*
X193800000Y-92050000D02*
X192700000Y-92050000D01*
D17*
%TO.C,C18*%
X171590000Y-92288748D02*
X171590000Y-93711252D01*
X173410000Y-92288748D02*
X173410000Y-93711252D01*
%TO.C,J2*%
X221512500Y-59880000D02*
X228252500Y-59880000D01*
X221512500Y-61450000D02*
X221512500Y-59880000D01*
X221512500Y-67120000D02*
X221512500Y-62050000D01*
X223132500Y-59880000D02*
X223132500Y-67120000D01*
X228252500Y-59880000D02*
X228252500Y-67120000D01*
X228252500Y-67120000D02*
X221512500Y-67120000D01*
X221512500Y-61750000D02*
X220902500Y-62190000D01*
X220902500Y-61310000D01*
X221512500Y-61750000D01*
G36*
X221512500Y-61750000D02*
G01*
X220902500Y-62190000D01*
X220902500Y-61310000D01*
X221512500Y-61750000D01*
G37*
%TO.C,C21*%
X193788748Y-52090000D02*
X195211252Y-52090000D01*
X193788748Y-53910000D02*
X195211252Y-53910000D01*
D19*
%TO.C,IC6*%
X169652000Y-73048000D02*
X172848000Y-73048000D01*
X169652000Y-77952000D02*
X169652000Y-73048000D01*
X172848000Y-73048000D02*
X172848000Y-77952000D01*
X172848000Y-77952000D02*
X169652000Y-77952000D01*
X174725000Y-78080000D02*
X173198000Y-78080000D01*
D17*
%TO.C,C22*%
X134090000Y-74038748D02*
X134090000Y-75461252D01*
X135910000Y-74038748D02*
X135910000Y-75461252D01*
%TO.C,C19*%
X184090000Y-92038748D02*
X184090000Y-93461252D01*
X185910000Y-92038748D02*
X185910000Y-93461252D01*
%TO.C,R2*%
X156022936Y-92340000D02*
X157477064Y-92340000D01*
X156022936Y-94160000D02*
X157477064Y-94160000D01*
D20*
%TO.C,U3*%
X159129100Y-82004200D02*
X159129100Y-83131960D01*
X159129100Y-89868040D02*
X159129100Y-90995800D01*
X159129100Y-90995800D02*
X163370900Y-90995800D01*
X163370900Y-82004200D02*
X159129100Y-82004200D01*
X163370900Y-83131960D02*
X163370900Y-82004200D01*
X163370900Y-90995800D02*
X163370900Y-89868040D01*
D21*
G36*
X157541600Y-89548000D02*
G01*
X157287601Y-89548000D01*
X157287600Y-89167000D01*
X157541600Y-89167000D01*
X157541600Y-89548000D01*
G37*
G36*
X165212400Y-83833000D02*
G01*
X164958400Y-83833000D01*
X164958400Y-83452000D01*
X165212399Y-83452000D01*
X165212400Y-83833000D01*
G37*
D20*
%TO.C,U0*%
X136874400Y-73522100D02*
X136874400Y-75477900D01*
X140125600Y-75477900D02*
X140125600Y-73522100D01*
D17*
%TO.C,D5*%
X210402500Y-62200000D02*
X210402500Y-61400000D01*
X210402500Y-62200000D02*
X210402500Y-63000000D01*
X213522500Y-62200000D02*
X213522500Y-61400000D01*
X213522500Y-62200000D02*
X213522500Y-63000000D01*
X213802500Y-61140000D02*
X213472500Y-60900000D01*
X213802500Y-60660000D01*
X213802500Y-61140000D01*
G36*
X213802500Y-61140000D02*
G01*
X213472500Y-60900000D01*
X213802500Y-60660000D01*
X213802500Y-61140000D01*
G37*
%TO.C,R10*%
X217322936Y-57240000D02*
X218777064Y-57240000D01*
X217322936Y-59060000D02*
X218777064Y-59060000D01*
%TO.C,TP10*%
X213255000Y-53515000D02*
X214000000Y-53515000D01*
X213255000Y-54250000D02*
X213255000Y-53515000D01*
X213255000Y-54985000D02*
X213255000Y-54860000D01*
X213255000Y-54985000D02*
X213314435Y-54985000D01*
X213255000Y-54985000D02*
X214745000Y-54985000D01*
X214685565Y-54985000D02*
X214745000Y-54985000D01*
X214745000Y-54985000D02*
X214745000Y-54860000D01*
%TO.C,D6*%
X210390000Y-58000000D02*
X210390000Y-57200000D01*
X210390000Y-58000000D02*
X210390000Y-58800000D01*
X213510000Y-58000000D02*
X213510000Y-57200000D01*
X213510000Y-58000000D02*
X213510000Y-58800000D01*
X213790000Y-56940000D02*
X213460000Y-56700000D01*
X213790000Y-56460000D01*
X213790000Y-56940000D01*
G36*
X213790000Y-56940000D02*
G01*
X213460000Y-56700000D01*
X213790000Y-56460000D01*
X213790000Y-56940000D01*
G37*
%TO.C,C23*%
X138590000Y-79788748D02*
X138590000Y-81211252D01*
X140410000Y-79788748D02*
X140410000Y-81211252D01*
%TO.C,D3*%
X206502500Y-88400000D02*
X206502500Y-87600000D01*
X206502500Y-88400000D02*
X206502500Y-89200000D01*
X209622500Y-88400000D02*
X209622500Y-87600000D01*
X209622500Y-88400000D02*
X209622500Y-89200000D01*
X209902500Y-87340000D02*
X209572500Y-87100000D01*
X209902500Y-86860000D01*
X209902500Y-87340000D01*
G36*
X209902500Y-87340000D02*
G01*
X209572500Y-87100000D01*
X209902500Y-86860000D01*
X209902500Y-87340000D01*
G37*
%TO.C,D2*%
X206502500Y-82950000D02*
X206502500Y-82150000D01*
X206502500Y-82950000D02*
X206502500Y-83750000D01*
X209622500Y-82950000D02*
X209622500Y-82150000D01*
X209622500Y-82950000D02*
X209622500Y-83750000D01*
X209902500Y-81890000D02*
X209572500Y-81650000D01*
X209902500Y-81410000D01*
X209902500Y-81890000D01*
G36*
X209902500Y-81890000D02*
G01*
X209572500Y-81650000D01*
X209902500Y-81410000D01*
X209902500Y-81890000D01*
G37*
%TO.C,J5*%
X130747500Y-78630000D02*
X137487500Y-78630000D01*
X130747500Y-85870000D02*
X130747500Y-78630000D01*
X135867500Y-85870000D02*
X135867500Y-78630000D01*
X137487500Y-78630000D02*
X137487500Y-83700000D01*
X137487500Y-84300000D02*
X137487500Y-85870000D01*
X137487500Y-85870000D02*
X130747500Y-85870000D01*
X138097500Y-84440000D02*
X137487500Y-84000000D01*
X138097500Y-83560000D01*
X138097500Y-84440000D01*
G36*
X138097500Y-84440000D02*
G01*
X137487500Y-84000000D01*
X138097500Y-83560000D01*
X138097500Y-84440000D01*
G37*
%TO.C,J4*%
X221512500Y-75880000D02*
X228252500Y-75880000D01*
X221512500Y-77450000D02*
X221512500Y-75880000D01*
X221512500Y-83120000D02*
X221512500Y-78050000D01*
X223132500Y-75880000D02*
X223132500Y-83120000D01*
X228252500Y-75880000D02*
X228252500Y-83120000D01*
X228252500Y-83120000D02*
X221512500Y-83120000D01*
X221512500Y-77750000D02*
X220902500Y-78190000D01*
X220902500Y-77310000D01*
X221512500Y-77750000D01*
G36*
X221512500Y-77750000D02*
G01*
X220902500Y-78190000D01*
X220902500Y-77310000D01*
X221512500Y-77750000D01*
G37*
D18*
%TO.C,C4*%
X177700000Y-80700000D02*
X177700000Y-81800000D01*
X179300000Y-80700000D02*
X179300000Y-81800000D01*
D17*
%TO.C,C9*%
X154090000Y-85288748D02*
X154090000Y-86711252D01*
X155910000Y-85288748D02*
X155910000Y-86711252D01*
%TO.C,D7*%
X210302500Y-72550000D02*
X210302500Y-71750000D01*
X210302500Y-72550000D02*
X210302500Y-73350000D01*
X213422500Y-72550000D02*
X213422500Y-71750000D01*
X213422500Y-72550000D02*
X213422500Y-73350000D01*
X213702500Y-71490000D02*
X213372500Y-71250000D01*
X213702500Y-71010000D01*
X213702500Y-71490000D01*
G36*
X213702500Y-71490000D02*
G01*
X213372500Y-71250000D01*
X213702500Y-71010000D01*
X213702500Y-71490000D01*
G37*
D20*
%TO.C,U9*%
X167917200Y-68578100D02*
X172082800Y-68578100D01*
X172082800Y-63421900D02*
X167917200Y-63421900D01*
D17*
%TO.C,C10*%
X141840000Y-75461252D02*
X141840000Y-74038748D01*
X143660000Y-75461252D02*
X143660000Y-74038748D01*
%TO.C,D4*%
X206502500Y-94000000D02*
X206502500Y-93200000D01*
X206502500Y-94000000D02*
X206502500Y-94800000D01*
X209622500Y-94000000D02*
X209622500Y-93200000D01*
X209622500Y-94000000D02*
X209622500Y-94800000D01*
X209902500Y-92940000D02*
X209572500Y-92700000D01*
X209902500Y-92460000D01*
X209902500Y-92940000D01*
G36*
X209902500Y-92940000D02*
G01*
X209572500Y-92700000D01*
X209902500Y-92460000D01*
X209902500Y-92940000D01*
G37*
%TO.C,R20*%
X217222936Y-88990000D02*
X218677064Y-88990000D01*
X217222936Y-90810000D02*
X218677064Y-90810000D01*
D20*
%TO.C,U8*%
X177654597Y-95201500D02*
X180401903Y-95201500D01*
X180401903Y-90197700D02*
X177654597Y-90197700D01*
X179333050Y-90197700D02*
G75*
G02*
X178723450Y-90197700I-304800J0D01*
G01*
D17*
%TO.C,C26*%
X203711252Y-87590000D02*
X202288748Y-87590000D01*
X203711252Y-89410000D02*
X202288748Y-89410000D01*
%TO.C,R6*%
X218577064Y-81890000D02*
X217122936Y-81890000D01*
X218577064Y-83710000D02*
X217122936Y-83710000D01*
%TO.C,TP5*%
X208255000Y-53515000D02*
X209000000Y-53515000D01*
X208255000Y-54250000D02*
X208255000Y-53515000D01*
X208255000Y-54985000D02*
X208255000Y-54860000D01*
X208255000Y-54985000D02*
X208314435Y-54985000D01*
X208255000Y-54985000D02*
X209745000Y-54985000D01*
X209685565Y-54985000D02*
X209745000Y-54985000D01*
X209745000Y-54985000D02*
X209745000Y-54860000D01*
%TO.C,R21*%
X211840000Y-89377064D02*
X211840000Y-87922936D01*
X213660000Y-89377064D02*
X213660000Y-87922936D01*
%TO.C,C20*%
X207461252Y-57340000D02*
X206038748Y-57340000D01*
X207461252Y-59160000D02*
X206038748Y-59160000D01*
%TO.C,TP2*%
X210755000Y-53515000D02*
X211500000Y-53515000D01*
X210755000Y-54250000D02*
X210755000Y-53515000D01*
X210755000Y-54985000D02*
X210755000Y-54860000D01*
X210755000Y-54985000D02*
X210814435Y-54985000D01*
X210755000Y-54985000D02*
X212245000Y-54985000D01*
X212185565Y-54985000D02*
X212245000Y-54985000D01*
X212245000Y-54985000D02*
X212245000Y-54860000D01*
%TO.C,TP7*%
X215755000Y-53515000D02*
X216500000Y-53515000D01*
X215755000Y-54250000D02*
X215755000Y-53515000D01*
X215755000Y-54985000D02*
X215755000Y-54860000D01*
X215755000Y-54985000D02*
X215814435Y-54985000D01*
X215755000Y-54985000D02*
X217245000Y-54985000D01*
X217185565Y-54985000D02*
X217245000Y-54985000D01*
X217245000Y-54985000D02*
X217245000Y-54860000D01*
%TO.C,R22*%
X211890000Y-94677064D02*
X211890000Y-93222936D01*
X213710000Y-94677064D02*
X213710000Y-93222936D01*
D19*
%TO.C,IC7*%
X156152000Y-69548000D02*
X159348000Y-69548000D01*
X156152000Y-74452000D02*
X156152000Y-69548000D01*
X159348000Y-69548000D02*
X159348000Y-74452000D01*
X159348000Y-74452000D02*
X156152000Y-74452000D01*
X161225000Y-74580000D02*
X159698000Y-74580000D01*
D17*
%TO.C,C13*%
X141840000Y-81211252D02*
X141840000Y-79788748D01*
X143660000Y-81211252D02*
X143660000Y-79788748D01*
%TO.C,SW1*%
X168020000Y-81770000D02*
X174480000Y-81770000D01*
X168020000Y-81800000D02*
X168020000Y-81770000D01*
X168020000Y-83700000D02*
X168020000Y-86300000D01*
X168020000Y-88230000D02*
X168020000Y-88200000D01*
X168020000Y-88230000D02*
X174480000Y-88230000D01*
X174480000Y-81770000D02*
X174480000Y-81800000D01*
X174480000Y-83700000D02*
X174480000Y-86300000D01*
X174480000Y-88230000D02*
X174480000Y-88200000D01*
%TO.C,J1*%
X221512500Y-67880000D02*
X228252500Y-67880000D01*
X221512500Y-69450000D02*
X221512500Y-67880000D01*
X221512500Y-75120000D02*
X221512500Y-70050000D01*
X223132500Y-67880000D02*
X223132500Y-75120000D01*
X228252500Y-67880000D02*
X228252500Y-75120000D01*
X228252500Y-75120000D02*
X221512500Y-75120000D01*
X221512500Y-69750000D02*
X220902500Y-70190000D01*
X220902500Y-69310000D01*
X221512500Y-69750000D01*
G36*
X221512500Y-69750000D02*
G01*
X220902500Y-70190000D01*
X220902500Y-69310000D01*
X221512500Y-69750000D01*
G37*
%TO.C,R1*%
X177590000Y-85972935D02*
X177590000Y-87427063D01*
X179410000Y-85972935D02*
X179410000Y-87427063D01*
%TO.C,C15*%
X206038748Y-61840000D02*
X207461252Y-61840000D01*
X206038748Y-63660000D02*
X207461252Y-63660000D01*
%TO.C,R3*%
X161772936Y-92340000D02*
X163227064Y-92340000D01*
X161772936Y-94160000D02*
X163227064Y-94160000D01*
%TO.C,J16*%
X144740000Y-95340000D02*
X145160000Y-95340000D01*
X144740000Y-97320000D02*
X144740000Y-95340000D01*
X144740000Y-99690000D02*
X144740000Y-99290000D01*
X146740000Y-95110000D02*
X146740000Y-94660000D01*
X147190000Y-94660000D02*
X146740000Y-94660000D01*
X152260000Y-95340000D02*
X151840000Y-95340000D01*
X152260000Y-97320000D02*
X152260000Y-95340000D01*
X152260000Y-99290000D02*
X152260000Y-99690000D01*
%TO.C,C29*%
X203711252Y-77090000D02*
X202288748Y-77090000D01*
X203711252Y-78910000D02*
X202288748Y-78910000D01*
%TO.C,R4*%
X211940000Y-78427064D02*
X211940000Y-76972936D01*
X213760000Y-78427064D02*
X213760000Y-76972936D01*
%TO.C,L1*%
X139750000Y-84140000D02*
X142250000Y-84140000D01*
X142250000Y-86360000D02*
X139750000Y-86360000D01*
%TO.C,TP4*%
X194255000Y-95265000D02*
X195000000Y-95265000D01*
X194255000Y-96000000D02*
X194255000Y-95265000D01*
X194255000Y-96735000D02*
X194255000Y-96610000D01*
X194255000Y-96735000D02*
X194314435Y-96735000D01*
X194255000Y-96735000D02*
X195745000Y-96735000D01*
X195685565Y-96735000D02*
X195745000Y-96735000D01*
X195745000Y-96735000D02*
X195745000Y-96610000D01*
%TO.C,R24*%
X160622936Y-78590000D02*
X162077064Y-78590000D01*
X160622936Y-80410000D02*
X162077064Y-80410000D01*
%TO.C,C3*%
X150090000Y-72211252D02*
X150090000Y-70788748D01*
X151910000Y-72211252D02*
X151910000Y-70788748D01*
%TO.C,C28*%
X202288748Y-93090000D02*
X203711252Y-93090000D01*
X202288748Y-94910000D02*
X203711252Y-94910000D01*
%TO.C,C12*%
X150090000Y-83211252D02*
X150090000Y-81788748D01*
X151910000Y-83211252D02*
X151910000Y-81788748D01*
%TO.C,R9*%
X188590000Y-70772936D02*
X188590000Y-72227064D01*
X190410000Y-70772936D02*
X190410000Y-72227064D01*
D18*
%TO.C,C31*%
X165200000Y-74450000D02*
X165200000Y-75550000D01*
X166800000Y-74450000D02*
X166800000Y-75550000D01*
D19*
%TO.C,IC5*%
X180750000Y-82675000D02*
X180750000Y-81250000D01*
X180950000Y-78600000D02*
X186050000Y-78600000D01*
X180950000Y-80900000D02*
X180950000Y-78600000D01*
X186050000Y-78600000D02*
X186050000Y-80900000D01*
X186050000Y-80900000D02*
X180950000Y-80900000D01*
D17*
%TO.C,C5*%
X182788748Y-87340000D02*
X184211252Y-87340000D01*
X182788748Y-89160000D02*
X184211252Y-89160000D01*
%TO.C,J3*%
X221512500Y-83880000D02*
X228252500Y-83880000D01*
X221512500Y-85450000D02*
X221512500Y-83880000D01*
X221512500Y-91120000D02*
X221512500Y-86050000D01*
X223132500Y-83880000D02*
X223132500Y-91120000D01*
X228252500Y-83880000D02*
X228252500Y-91120000D01*
X228252500Y-91120000D02*
X221512500Y-91120000D01*
X221512500Y-85750000D02*
X220902500Y-86190000D01*
X220902500Y-85310000D01*
X221512500Y-85750000D01*
G36*
X221512500Y-85750000D02*
G01*
X220902500Y-86190000D01*
X220902500Y-85310000D01*
X221512500Y-85750000D01*
G37*
%TO.C,C16*%
X207523752Y-71340000D02*
X206101248Y-71340000D01*
X207523752Y-73160000D02*
X206101248Y-73160000D01*
D19*
%TO.C,U7*%
X191222700Y-82722700D02*
X191222700Y-82922700D01*
X191222700Y-87577300D02*
X191222700Y-87777300D01*
X191422700Y-82722700D02*
X191222700Y-82722700D01*
X191422700Y-87777300D02*
X191222700Y-87777300D01*
X196277300Y-82722700D02*
X196077300Y-82722700D01*
X196277300Y-82722700D02*
X196277300Y-82922700D01*
X196277300Y-87400001D02*
X196277300Y-87777300D01*
X196277300Y-87777300D02*
X196077300Y-87777300D01*
X197350000Y-87400001D02*
X196277300Y-87400001D01*
D18*
%TO.C,C32*%
X175700000Y-74700000D02*
X175700000Y-75800000D01*
X177300000Y-74700000D02*
X177300000Y-75800000D01*
D17*
%TO.C,C24*%
X144090000Y-87523752D02*
X144090000Y-86101248D01*
X145910000Y-87523752D02*
X145910000Y-86101248D01*
%TO.C,C8*%
X182788748Y-84590000D02*
X184211252Y-84590000D01*
X182788748Y-86410000D02*
X184211252Y-86410000D01*
%TO.C,IC4*%
X145140000Y-79600000D02*
X145140000Y-81400000D01*
X148360000Y-80600000D02*
X148360000Y-79800000D01*
X148360000Y-80600000D02*
X148360000Y-81400000D01*
X148640000Y-79540000D02*
X148310000Y-79299999D01*
X148640000Y-79060000D01*
X148640000Y-79540000D01*
G36*
X148640000Y-79540000D02*
G01*
X148310000Y-79299999D01*
X148640000Y-79060000D01*
X148640000Y-79540000D01*
G37*
%TO.C,C35*%
X169840000Y-55211252D02*
X169840000Y-53788748D01*
X171660000Y-55211252D02*
X171660000Y-53788748D01*
%TO.C,D8*%
X210302500Y-68200000D02*
X210302500Y-67400000D01*
X210302500Y-68200000D02*
X210302500Y-69000000D01*
X213422500Y-68200000D02*
X213422500Y-67400000D01*
X213422500Y-68200000D02*
X213422500Y-69000000D01*
X213702500Y-67140000D02*
X213372500Y-66900000D01*
X213702500Y-66660000D01*
X213702500Y-67140000D01*
G36*
X213702500Y-67140000D02*
G01*
X213372500Y-66900000D01*
X213702500Y-66660000D01*
X213702500Y-67140000D01*
G37*
%TO.C,IC3*%
X145140000Y-73850000D02*
X145140000Y-75650000D01*
X148360000Y-74850000D02*
X148360000Y-74050000D01*
X148360000Y-74850000D02*
X148360000Y-75650000D01*
X148640000Y-73790000D02*
X148310000Y-73549999D01*
X148640000Y-73310000D01*
X148640000Y-73790000D01*
G36*
X148640000Y-73790000D02*
G01*
X148310000Y-73549999D01*
X148640000Y-73310000D01*
X148640000Y-73790000D01*
G37*
D18*
%TO.C,C34*%
X157050000Y-75450000D02*
X155950000Y-75450000D01*
X157050000Y-77050000D02*
X155950000Y-77050000D01*
D17*
%TO.C,R12*%
X217122936Y-70890000D02*
X218577064Y-70890000D01*
X217122936Y-72710000D02*
X218577064Y-72710000D01*
%TO.C,TP3*%
X191755000Y-95265000D02*
X192500000Y-95265000D01*
X191755000Y-96000000D02*
X191755000Y-95265000D01*
X191755000Y-96735000D02*
X191755000Y-96610000D01*
X191755000Y-96735000D02*
X191814435Y-96735000D01*
X191755000Y-96735000D02*
X193245000Y-96735000D01*
X193185565Y-96735000D02*
X193245000Y-96735000D01*
X193245000Y-96735000D02*
X193245000Y-96610000D01*
%TO.C,R7*%
X211840000Y-83777064D02*
X211840000Y-82322936D01*
X213660000Y-83777064D02*
X213660000Y-82322936D01*
%TO.C,D1*%
X206590000Y-78050000D02*
X206590000Y-77250000D01*
X206590000Y-78050000D02*
X206590000Y-78850000D01*
X209710000Y-78050000D02*
X209710000Y-77250000D01*
X209710000Y-78050000D02*
X209710000Y-78850000D01*
X209990000Y-76990000D02*
X209660000Y-76750000D01*
X209990000Y-76510000D01*
X209990000Y-76990000D01*
G36*
X209990000Y-76990000D02*
G01*
X209660000Y-76750000D01*
X209990000Y-76510000D01*
X209990000Y-76990000D01*
G37*
D16*
%TO.C,Y1*%
X173750000Y-55750000D02*
X173750000Y-55750000D01*
X173850000Y-55750000D02*
X173850000Y-55750000D01*
D19*
X176100000Y-53400000D02*
X187400000Y-53400000D01*
X176100000Y-54350000D02*
X176100000Y-53400000D01*
X176100000Y-57150000D02*
X176100000Y-58100000D01*
X176100000Y-58100000D02*
X187400000Y-58100000D01*
X187400000Y-53400000D02*
X187400000Y-54350000D01*
X187400000Y-58100000D02*
X187400000Y-57150000D01*
D16*
X173750000Y-55750000D02*
G75*
G02*
X173850000Y-55750000I50000J0D01*
G01*
X173850000Y-55750000D02*
G75*
G02*
X173750000Y-55750000I-50000J0D01*
G01*
D17*
%TO.C,C14*%
X207461252Y-66840000D02*
X206038748Y-66840000D01*
X207461252Y-68660000D02*
X206038748Y-68660000D01*
%TO.C,TP9*%
X205755000Y-53515000D02*
X206500000Y-53515000D01*
X205755000Y-54250000D02*
X205755000Y-53515000D01*
X205755000Y-54985000D02*
X205755000Y-54860000D01*
X205755000Y-54985000D02*
X205814435Y-54985000D01*
X205755000Y-54985000D02*
X207245000Y-54985000D01*
X207185565Y-54985000D02*
X207245000Y-54985000D01*
X207245000Y-54985000D02*
X207245000Y-54860000D01*
%TO.C,TP6*%
X218255000Y-53515000D02*
X219000000Y-53515000D01*
X218255000Y-54250000D02*
X218255000Y-53515000D01*
X218255000Y-54985000D02*
X218255000Y-54860000D01*
X218255000Y-54985000D02*
X218314435Y-54985000D01*
X218255000Y-54985000D02*
X219745000Y-54985000D01*
X219685565Y-54985000D02*
X219745000Y-54985000D01*
X219745000Y-54985000D02*
X219745000Y-54860000D01*
%TO.C,C7*%
X194711252Y-78090000D02*
X193288748Y-78090000D01*
X194711252Y-79910000D02*
X193288748Y-79910000D01*
D19*
%TO.C,IC2*%
X139900000Y-70000000D02*
X142635000Y-70010000D01*
X142635000Y-60000000D02*
X139900000Y-60000000D01*
X142635000Y-70010000D02*
X142635000Y-60000000D01*
D16*
X147700000Y-67540000D02*
X147700000Y-67540000D01*
X147800000Y-67540000D02*
X147800000Y-67540000D01*
X147700000Y-67540000D02*
G75*
G02*
X147800000Y-67540000I50000J0D01*
G01*
X147800000Y-67540000D02*
G75*
G02*
X147700000Y-67540000I-50000J0D01*
G01*
D17*
%TO.C,R8*%
X217272936Y-60890000D02*
X218727064Y-60890000D01*
X217272936Y-62710000D02*
X218727064Y-62710000D01*
%TO.C,R14*%
X217172936Y-67290000D02*
X218627064Y-67290000D01*
X217172936Y-69110000D02*
X218627064Y-69110000D01*
%TO.C,C6*%
X150090000Y-65288748D02*
X150090000Y-66711252D01*
X151910000Y-65288748D02*
X151910000Y-66711252D01*
%TO.C,C30*%
X184840000Y-70788748D02*
X184840000Y-72211252D01*
X186660000Y-70788748D02*
X186660000Y-72211252D01*
%TO.C,C2*%
X162840000Y-66711252D02*
X162840000Y-65288748D01*
X164660000Y-66711252D02*
X164660000Y-65288748D01*
%TO.C,C11*%
X150090000Y-76538748D02*
X150090000Y-77961252D01*
X151910000Y-76538748D02*
X151910000Y-77961252D01*
%TO.C,TP1*%
X200755000Y-53465000D02*
X201500000Y-53465000D01*
X200755000Y-54200000D02*
X200755000Y-53465000D01*
X200755000Y-54935000D02*
X200755000Y-54810000D01*
X200755000Y-54935000D02*
X200814435Y-54935000D01*
X200755000Y-54935000D02*
X202245000Y-54935000D01*
X202185565Y-54935000D02*
X202245000Y-54935000D01*
X202245000Y-54935000D02*
X202245000Y-54810000D01*
D19*
%TO.C,IC1*%
X175550000Y-62265000D02*
X177050000Y-62265000D01*
X177400000Y-62425000D02*
X180600000Y-62425000D01*
X177400000Y-71075000D02*
X177400000Y-62425000D01*
X180600000Y-62425000D02*
X180600000Y-71075000D01*
X180600000Y-71075000D02*
X177400000Y-71075000D01*
D18*
%TO.C,C33*%
X162550000Y-75450000D02*
X161450000Y-75450000D01*
X162550000Y-77050000D02*
X161450000Y-77050000D01*
D17*
%TO.C,R5*%
X217122936Y-78090000D02*
X218577064Y-78090000D01*
X217122936Y-79910000D02*
X218577064Y-79910000D01*
%TO.C,C27*%
X202226248Y-81840000D02*
X203648752Y-81840000D01*
X202226248Y-83660000D02*
X203648752Y-83660000D01*
D20*
%TO.C,U10*%
X193067000Y-55530500D02*
X193067000Y-56805439D01*
X193067000Y-58954561D02*
X193067000Y-59345439D01*
X193067000Y-61494561D02*
X193067000Y-61885439D01*
X193067000Y-64034561D02*
X193067000Y-64425439D01*
X193067000Y-66574561D02*
X193067000Y-66965439D01*
X193067000Y-69114561D02*
X193067000Y-69505439D01*
X193067000Y-71654561D02*
X193067000Y-72045439D01*
X193067000Y-74194561D02*
X193067000Y-75469500D01*
X193067000Y-75469500D02*
X200433000Y-75469500D01*
X200433000Y-55530500D02*
X193067000Y-55530500D01*
X200433000Y-56805439D02*
X200433000Y-55530500D01*
X200433000Y-59345439D02*
X200433000Y-58954561D01*
X200433000Y-61885439D02*
X200433000Y-61494561D01*
X200433000Y-64425439D02*
X200433000Y-64034561D01*
X200433000Y-66965439D02*
X200433000Y-66574561D01*
X200433000Y-69505439D02*
X200433000Y-69114561D01*
X200433000Y-72037960D02*
X200433000Y-71654561D01*
X200433000Y-75469500D02*
X200433000Y-74202040D01*
D17*
%TO.C,C25*%
X141711252Y-87340000D02*
X140288748Y-87340000D01*
X141711252Y-89160000D02*
X140288748Y-89160000D01*
D18*
%TO.C,J6*%
X148950000Y-58600400D02*
X149950000Y-59100400D01*
X148950000Y-59600400D02*
X148950000Y-58600400D01*
X149950000Y-59100400D02*
X148950000Y-59600400D01*
X150325000Y-49690400D02*
X165975000Y-49690400D01*
X150325000Y-59590400D02*
X150325000Y-49690400D01*
X165975000Y-49690400D02*
X165975000Y-59590400D01*
%TD*%
M02*
