M48
; DRILL file {KiCad 9.0.4} date 2025-11-21T01:19:34-0600
; FORMAT={-:-/ absolute / metric / decimal}
; #@! TF.CreationDate,2025-11-21T01:19:34-06:00
; #@! TF.GenerationSoftware,Kicad,Pcbnew,9.0.4
; #@! TF.FileFunction,Plated,1,2,PTH
FMAT,2
METRIC
; #@! TA.AperFunction,Plated,PTH,ViaDrill
T1C0.300
; #@! TA.AperFunction,Plated,PTH,ComponentDrill
T2C0.500
; #@! TA.AperFunction,Plated,PTH,ComponentDrill
T3C0.550
; #@! TA.AperFunction,Plated,PTH,ComponentDrill
T4C0.750
; #@! TA.AperFunction,Plated,PTH,ComponentDrill
T5C0.991
; #@! TA.AperFunction,Plated,PTH,ComponentDrill
T6C1.020
; #@! TA.AperFunction,Plated,PTH,ComponentDrill
T7C1.200
%
G90
G05
T1
X151.5Y-73.562
X154.0Y-73.25
X161.5Y-90.5
X162.25Y-76.75
X162.612Y-81.5
X164.95Y-90.55
X165.45Y-74.888
X169.9Y-86.5
X171.903Y-89.745
X178.05Y-76.4
X178.85Y-74.15
X179.25Y-71.037
X179.25Y-79.25
X181.8Y-74.85
X182.25Y-80.5
X182.75Y-74.85
X183.297Y-54.15
X183.35Y-79.208
X183.534Y-72.358
X183.55Y-75.05
X184.25Y-72.0
X184.95Y-79.132
X186.75Y-60.0
X187.25Y-79.165
X190.797Y-81.1
X190.85Y-73.05
X191.964Y-58.585
X192.886Y-94.235
X192.9Y-84.897
X193.0Y-75.6
X193.1Y-73.25
X194.197Y-54.3
X195.1Y-63.51
X195.7Y-82.012
X197.814Y-94.235
X200.635Y-80.575
X203.75Y-93.55
X206.4Y-82.4
X207.111Y-91.9
X207.112Y-87.263
X207.15Y-77.25
X209.012Y-92.862
X209.05Y-81.8
X209.65Y-87.25
X212.812Y-67.062
X213.75Y-56.75
X213.75Y-56.75
X214.0Y-61.0
T4
X188.35Y-93.2
X188.35Y-95.2
X201.05Y-94.15
X203.05Y-94.15
T5
X199.19Y-55.93
X199.19Y-58.47
X199.19Y-61.01
X199.19Y-63.55
X199.19Y-66.09
X199.19Y-68.63
X199.19Y-71.17
X206.81Y-55.93
X206.81Y-58.47
X206.81Y-61.01
X206.81Y-63.55
X206.81Y-66.09
X206.81Y-68.63
X206.81Y-71.17
T6
X168.322Y-61.65
X171.322Y-61.65
X174.322Y-61.65
X177.322Y-61.65
T7
X153.417Y-63.25
X153.417Y-66.75
X225.332Y-61.75
X225.332Y-65.25
X225.332Y-69.75
X225.332Y-73.25
X225.332Y-77.75
X225.332Y-81.25
X225.332Y-85.75
X225.332Y-89.25
T2
G00X176.35Y-97.525
M15
G01X176.35Y-98.175
M16
G05
G00X183.35Y-97.525
M15
G01X183.35Y-98.175
M16
G05
T3
G00X177.2Y-95.15
M15
G01X177.5Y-95.15
M16
G05
G00X182.2Y-95.15
M15
G01X182.5Y-95.15
M16
G05
M30
