%TF.GenerationSoftware,KiCad,Pcbnew,9.0.4*%
%TF.CreationDate,2025-11-21T01:18:50-06:00*%
%TF.ProjectId,LV Sensor,4c562053-656e-4736-9f72-2e6b69636164,rev?*%
%TF.SameCoordinates,Original*%
%TF.FileFunction,Copper,L2,Bot*%
%TF.FilePolarity,Positive*%
%FSLAX46Y46*%
G04 Gerber Fmt 4.6, Leading zero omitted, Abs format (unit mm)*
G04 Created by KiCad (PCBNEW 9.0.4) date 2025-11-21 01:18:50*
%MOMM*%
%LPD*%
G01*
G04 APERTURE LIST*
G04 Aperture macros list*
%AMRoundRect*
0 Rectangle with rounded corners*
0 $1 Rounding radius*
0 $2 $3 $4 $5 $6 $7 $8 $9 X,Y pos of 4 corners*
0 Add a 4 corners polygon primitive as box body*
4,1,4,$2,$3,$4,$5,$6,$7,$8,$9,$2,$3,0*
0 Add four circle primitives for the rounded corners*
1,1,$1+$1,$2,$3*
1,1,$1+$1,$4,$5*
1,1,$1+$1,$6,$7*
1,1,$1+$1,$8,$9*
0 Add four rect primitives between the rounded corners*
20,1,$1+$1,$2,$3,$4,$5,0*
20,1,$1+$1,$4,$5,$6,$7,0*
20,1,$1+$1,$6,$7,$8,$9,0*
20,1,$1+$1,$8,$9,$2,$3,0*%
G04 Aperture macros list end*
%TA.AperFunction,SMDPad,CuDef*%
%ADD10C,3.000000*%
%TD*%
%TA.AperFunction,ComponentPad*%
%ADD11C,2.300000*%
%TD*%
%TA.AperFunction,ComponentPad*%
%ADD12RoundRect,0.250001X-0.899999X0.899999X-0.899999X-0.899999X0.899999X-0.899999X0.899999X0.899999X0*%
%TD*%
%TA.AperFunction,ComponentPad*%
%ADD13R,1.520000X1.520000*%
%TD*%
%TA.AperFunction,ComponentPad*%
%ADD14C,1.520000*%
%TD*%
%TA.AperFunction,ComponentPad*%
%ADD15C,1.250000*%
%TD*%
%TA.AperFunction,ComponentPad*%
%ADD16RoundRect,0.250001X0.899999X-0.899999X0.899999X0.899999X-0.899999X0.899999X-0.899999X-0.899999X0*%
%TD*%
%TA.AperFunction,ComponentPad*%
%ADD17R,1.498600X1.498600*%
%TD*%
%TA.AperFunction,ComponentPad*%
%ADD18C,1.498600*%
%TD*%
%TA.AperFunction,HeatsinkPad*%
%ADD19O,0.890000X1.550000*%
%TD*%
%TA.AperFunction,HeatsinkPad*%
%ADD20O,1.250000X0.950000*%
%TD*%
%TA.AperFunction,ViaPad*%
%ADD21C,0.600000*%
%TD*%
%TA.AperFunction,Conductor*%
%ADD22C,0.200000*%
%TD*%
G04 APERTURE END LIST*
D10*
%TO.P,TP2,1,1*%
%TO.N,Net-(IC5-PA19_{slash}_SWDIO)*%
X180000000Y-67000000D03*
%TD*%
%TO.P,TP1,1,1*%
%TO.N,Net-(IC5-PA20_{slash}_A6_{slash}_SWCLK)*%
X174500000Y-73750000D03*
%TD*%
D11*
%TO.P,J2,2,Pin_2*%
%TO.N,Net-(J2-Pin_2)*%
X225332500Y-65250000D03*
D12*
%TO.P,J2,1,Pin_1*%
%TO.N,Net-(J2-Pin_1)*%
X225332500Y-61750000D03*
%TD*%
%TO.P,J4,1,Pin_1*%
%TO.N,Net-(J4-Pin_1)*%
X225332500Y-77750000D03*
D11*
%TO.P,J4,2,Pin_2*%
%TO.N,Net-(J4-Pin_2)*%
X225332500Y-81250000D03*
%TD*%
%TO.P,J1,2,Pin_2*%
%TO.N,Net-(J1-Pin_2)*%
X225332500Y-73250000D03*
D12*
%TO.P,J1,1,Pin_1*%
%TO.N,Net-(J1-Pin_1)*%
X225332500Y-69750000D03*
%TD*%
D11*
%TO.P,J3,2,Pin_2*%
%TO.N,Net-(J3-Pin_2)*%
X225332500Y-89250000D03*
D12*
%TO.P,J3,1,Pin_1*%
%TO.N,Net-(J3-Pin_1)*%
X225332500Y-85750000D03*
%TD*%
D13*
%TO.P,J6,1,1*%
%TO.N,+12V*%
X168321750Y-61650400D03*
D14*
%TO.P,J6,2,2*%
%TO.N,GND*%
X171321750Y-61650400D03*
%TO.P,J6,3,3*%
%TO.N,CAN_H*%
X174321750Y-61650400D03*
%TO.P,J6,4,4*%
%TO.N,CAN_L*%
X177321750Y-61650400D03*
%TD*%
D15*
%TO.P,C18,1*%
%TO.N,Net-(U8-C1+)*%
X188350000Y-93200000D03*
%TO.P,C18,2*%
%TO.N,Net-(U8-C1-)*%
X188350000Y-95200000D03*
%TD*%
D16*
%TO.P,J5,1,Pin_1*%
%TO.N,/5V out*%
X153417500Y-66750000D03*
D11*
%TO.P,J5,2,Pin_2*%
%TO.N,GND*%
X153417500Y-63250000D03*
%TD*%
D17*
%TO.P,U10,1,CH0*%
%TO.N,Net-(D8-COM)*%
X206810000Y-71170000D03*
D18*
%TO.P,U10,2,CH1*%
%TO.N,Net-(D7-COM)*%
X206810000Y-68630000D03*
%TO.P,U10,3,CH2*%
%TO.N,Net-(D6-COM)*%
X206810000Y-66090000D03*
%TO.P,U10,4,CH3*%
%TO.N,Net-(D5-COM)*%
X206810000Y-63550000D03*
%TO.P,U10,5,NC*%
%TO.N,unconnected-(U10-NC-Pad5)*%
X206810000Y-61010000D03*
%TO.P,U10,6,NC*%
%TO.N,unconnected-(U10-NC-Pad6)*%
X206810000Y-58470000D03*
%TO.P,U10,7,DGND*%
%TO.N,Net-(U10-DGND)*%
X206810000Y-55930000D03*
%TO.P,U10,8,CS/SHDN*%
%TO.N,CS_ADC4*%
X199190000Y-55930000D03*
%TO.P,U10,9,DIN*%
%TO.N,Net-(IC1-SDI)*%
X199190000Y-58470000D03*
%TO.P,U10,10,DOUT*%
%TO.N,Net-(IC1-SDO)*%
X199190000Y-61010000D03*
%TO.P,U10,11,CLK*%
%TO.N,Net-(IC1-SCK)*%
X199190000Y-63550000D03*
%TO.P,U10,12,AGND*%
%TO.N,GND*%
X199190000Y-66090000D03*
%TO.P,U10,13,VREF*%
%TO.N,+5V*%
X199190000Y-68630000D03*
%TO.P,U10,14,VDD*%
X199190000Y-71170000D03*
%TD*%
D15*
%TO.P,C19,1*%
%TO.N,-2V5*%
X203050000Y-94150000D03*
%TO.P,C19,2*%
%TO.N,GND*%
X201050000Y-94150000D03*
%TD*%
D19*
%TO.P,J16,6,Shield*%
%TO.N,unconnected-(J16-Shield-Pad6)_7*%
X176350000Y-97850000D03*
D20*
%TO.N,unconnected-(J16-Shield-Pad6)_3*%
X177350000Y-95150000D03*
%TO.N,unconnected-(J16-Shield-Pad6)_4*%
X182350000Y-95150000D03*
D19*
%TO.N,unconnected-(J16-Shield-Pad6)_2*%
X183350000Y-97850000D03*
%TD*%
D21*
%TO.N,GND*%
X212812500Y-67062500D03*
X213750000Y-56750000D03*
X162250000Y-76750000D03*
X165450000Y-74887500D03*
X179250000Y-71037500D03*
X194197000Y-54300000D03*
X214000000Y-61000000D03*
X151500000Y-73562500D03*
X179250000Y-79250000D03*
X213750000Y-56750000D03*
X154000000Y-73250000D03*
X191963800Y-58585000D03*
X183297000Y-54150000D03*
X186750000Y-60000000D03*
X162612500Y-81500000D03*
X161500000Y-90500000D03*
X182250000Y-80500000D03*
X184950001Y-79131575D03*
X190797000Y-81100000D03*
X195700001Y-82012191D03*
X192886200Y-94235000D03*
X197813800Y-94235000D03*
%TO.N,Net-(IC5-PA20_{slash}_A6_{slash}_SWCLK)*%
X183534456Y-72357772D03*
%TO.N,Net-(IC5-PA19_{slash}_SWDIO)*%
X184250000Y-72000000D03*
%TO.N,+2V5*%
X164950000Y-90550000D03*
X192900000Y-84897000D03*
%TO.N,+3V3*%
X178050000Y-76400000D03*
X178850000Y-74150000D03*
%TO.N,CS_CAN*%
X195100000Y-63510000D03*
X183350000Y-79207512D03*
%TO.N,CS_ADC8*%
X200634874Y-80574582D03*
X187250000Y-79165000D03*
%TO.N,CS_ADC4*%
X181800000Y-74850000D03*
%TO.N,UART0_CTS*%
X171902915Y-89744864D03*
X182750000Y-74850000D03*
%TO.N,UART0_RX*%
X169900000Y-86500000D03*
X183550000Y-75050000D03*
%TO.N,Net-(IC1-SDO)*%
X193000000Y-75600000D03*
%TO.N,Net-(IC1-SDI)*%
X193100000Y-73250000D03*
%TO.N,Net-(IC1-SCK)*%
X190850000Y-73050000D03*
%TO.N,-2V5*%
X203750000Y-93550000D03*
X209012500Y-92862500D03*
%TO.N,+2V5*%
X207150000Y-77250000D03*
X206400000Y-82400000D03*
X207112500Y-87262500D03*
X207111500Y-91900000D03*
%TO.N,-2V5*%
X209650000Y-87250000D03*
X209050000Y-81800000D03*
%TD*%
D22*
%TO.N,GND*%
X214000000Y-65875000D02*
X212812500Y-67062500D01*
X214000000Y-61000000D02*
X214000000Y-65875000D01*
X211300000Y-54300000D02*
X194197000Y-54300000D01*
X213750000Y-56750000D02*
X211300000Y-54300000D01*
X162250000Y-76750000D02*
X162250000Y-76850000D01*
X164112500Y-74887500D02*
X162250000Y-76750000D01*
X165450000Y-74887500D02*
X164112500Y-74887500D01*
X184453001Y-60000000D02*
X186750000Y-60000000D01*
X178199000Y-66254001D02*
X184453001Y-60000000D01*
X178199000Y-69986500D02*
X178199000Y-66254001D01*
X179250000Y-71037500D02*
X178199000Y-69986500D01*
X165450000Y-74950000D02*
X165450000Y-74887500D01*
X165500000Y-75000000D02*
X165450000Y-74950000D01*
X169462500Y-71037500D02*
X165500000Y-75000000D01*
X179250000Y-71037500D02*
X169462500Y-71037500D01*
X194197000Y-54803000D02*
X194197000Y-54300000D01*
X191963800Y-57036200D02*
X194197000Y-54803000D01*
X191963800Y-58585000D02*
X191963800Y-57036200D01*
X179250000Y-79250000D02*
X179250000Y-80250000D01*
X179250000Y-80250000D02*
X179500000Y-80500000D01*
X179500000Y-80500000D02*
X182250000Y-80500000D01*
%TO.N,UART0_CTS*%
X177750000Y-83897779D02*
X171902915Y-89744864D01*
X181099000Y-76401000D02*
X177750000Y-79750000D01*
X184151000Y-76099000D02*
X183849000Y-76401000D01*
X184151000Y-74801057D02*
X184151000Y-76099000D01*
X183849000Y-76401000D02*
X181099000Y-76401000D01*
X183151000Y-74449000D02*
X183798943Y-74449000D01*
X177750000Y-79750000D02*
X177750000Y-83897779D01*
X182750000Y-74850000D02*
X183151000Y-74449000D01*
X183798943Y-74449000D02*
X184151000Y-74801057D01*
%TO.N,GND*%
X213750000Y-60750000D02*
X213750000Y-56750000D01*
X214000000Y-61000000D02*
X213750000Y-60750000D01*
X191963800Y-58585000D02*
X188165000Y-58585000D01*
X188165000Y-58585000D02*
X186750000Y-60000000D01*
X172382750Y-60589400D02*
X171321750Y-61650400D01*
X189959400Y-60589400D02*
X172382750Y-60589400D01*
X191963800Y-58585000D02*
X189959400Y-60589400D01*
X186750000Y-57603000D02*
X186750000Y-60000000D01*
X183297000Y-54150000D02*
X186750000Y-57603000D01*
X183297000Y-54150000D02*
X183100000Y-54150000D01*
%TO.N,UART0_RX*%
X180750000Y-76000000D02*
X182600000Y-76000000D01*
X172750000Y-84000000D02*
X180750000Y-76000000D01*
X172750000Y-86000000D02*
X172750000Y-84000000D01*
X172200000Y-86550000D02*
X172750000Y-86000000D01*
X169950000Y-86550000D02*
X172200000Y-86550000D01*
X182600000Y-76000000D02*
X183550000Y-75050000D01*
X169900000Y-86500000D02*
X169950000Y-86550000D01*
%TO.N,GND*%
X154000000Y-73250000D02*
X151812500Y-73250000D01*
X151812500Y-73250000D02*
X151500000Y-73562500D01*
X161500000Y-82612500D02*
X162612500Y-81500000D01*
X161500000Y-90500000D02*
X161500000Y-82612500D01*
X183581576Y-80500000D02*
X182250000Y-80500000D01*
X184950001Y-79131575D02*
X183581576Y-80500000D01*
%TO.N,CS_ADC8*%
X199225292Y-79165000D02*
X200634874Y-80574582D01*
X187250000Y-79165000D02*
X199225292Y-79165000D01*
%TO.N,GND*%
X191697000Y-82000000D02*
X190797000Y-81100000D01*
X195750000Y-82000000D02*
X191697000Y-82000000D01*
X195737809Y-82012191D02*
X195750000Y-82000000D01*
X195700001Y-82012191D02*
X195737809Y-82012191D01*
X197813800Y-94235000D02*
X192886200Y-94235000D01*
X197898800Y-94150000D02*
X197813800Y-94235000D01*
X201050000Y-94150000D02*
X197898800Y-94150000D01*
%TO.N,CS_ADC4*%
X184851000Y-70269000D02*
X199190000Y-55930000D01*
X184851000Y-72248943D02*
X184851000Y-70269000D01*
X183051943Y-74048000D02*
X184851000Y-72248943D01*
X182602000Y-74048000D02*
X183051943Y-74048000D01*
X181800000Y-74850000D02*
X182602000Y-74048000D01*
%TO.N,Net-(IC5-PA20_{slash}_A6_{slash}_SWCLK)*%
X178000000Y-77250000D02*
X174500000Y-73750000D01*
X178750000Y-77250000D02*
X178000000Y-77250000D01*
X180000000Y-76000000D02*
X178750000Y-77250000D01*
X180000000Y-75800057D02*
X180000000Y-76000000D01*
X183442285Y-72357772D02*
X180000000Y-75800057D01*
X183534456Y-72357772D02*
X183442285Y-72357772D01*
%TO.N,Net-(IC5-PA19_{slash}_SWDIO)*%
X184000000Y-71000000D02*
X180000000Y-67000000D01*
X184250000Y-72000000D02*
X184000000Y-71750000D01*
X184000000Y-71750000D02*
X184000000Y-71000000D01*
%TO.N,+2V5*%
X187247000Y-90550000D02*
X192900000Y-84897000D01*
X164950000Y-90550000D02*
X187247000Y-90550000D01*
%TO.N,+3V3*%
X178050000Y-74950000D02*
X178850000Y-74150000D01*
X178050000Y-76400000D02*
X178050000Y-74950000D01*
%TO.N,CS_CAN*%
X195190000Y-63510000D02*
X195100000Y-63510000D01*
X198740300Y-59959700D02*
X195190000Y-63510000D01*
X199625049Y-59959700D02*
X198740300Y-59959700D01*
X200641300Y-60975951D02*
X199625049Y-59959700D01*
X200641300Y-66124049D02*
X200641300Y-60975951D01*
X198754951Y-67140300D02*
X199625049Y-67140300D01*
X195049972Y-70845279D02*
X198754951Y-67140300D01*
X195049972Y-74399971D02*
X195049972Y-70845279D01*
X193248943Y-76201000D02*
X195049972Y-74399971D01*
X186356512Y-76201000D02*
X193248943Y-76201000D01*
X183350000Y-79207512D02*
X186356512Y-76201000D01*
X199625049Y-67140300D02*
X200641300Y-66124049D01*
%TO.N,Net-(IC1-SDO)*%
X200240300Y-62060300D02*
X199190000Y-61010000D01*
X200240300Y-63985049D02*
X200240300Y-62060300D01*
X199625049Y-64600300D02*
X200240300Y-63985049D01*
X198754951Y-64600300D02*
X199625049Y-64600300D01*
X193701000Y-69654251D02*
X198754951Y-64600300D01*
X193000000Y-75600000D02*
X193701000Y-74899000D01*
X193701000Y-74899000D02*
X193701000Y-69654251D01*
%TO.N,Net-(IC1-SDI)*%
X190249000Y-67411000D02*
X199190000Y-58470000D01*
X190249000Y-73298943D02*
X190249000Y-67411000D01*
X190601057Y-73651000D02*
X190249000Y-73298943D01*
X192699000Y-73651000D02*
X190601057Y-73651000D01*
X193100000Y-73250000D02*
X192699000Y-73651000D01*
%TO.N,Net-(IC1-SCK)*%
X190850000Y-71890000D02*
X199190000Y-63550000D01*
X190850000Y-73050000D02*
X190850000Y-71890000D01*
%TO.N,-2V5*%
X203750000Y-93550000D02*
X208325000Y-93550000D01*
X208325000Y-93550000D02*
X209012500Y-92862500D01*
%TO.N,+2V5*%
X207150000Y-77250000D02*
X207150000Y-77200000D01*
X207150000Y-81650000D02*
X207150000Y-77250000D01*
X206400000Y-82400000D02*
X207150000Y-81650000D01*
X207111500Y-91900000D02*
X207111500Y-87263500D01*
X207111500Y-87263500D02*
X207112500Y-87262500D01*
%TO.N,-2V5*%
X209050000Y-86650000D02*
X209050000Y-81800000D01*
X209650000Y-87250000D02*
X209050000Y-86650000D01*
%TD*%
M02*
