%TF.GenerationSoftware,KiCad,Pcbnew,9.0.4*%
%TF.CreationDate,2025-11-21T01:18:50-06:00*%
%TF.ProjectId,LV Sensor,4c562053-656e-4736-9f72-2e6b69636164,rev?*%
%TF.SameCoordinates,Original*%
%TF.FileFunction,Paste,Top*%
%TF.FilePolarity,Positive*%
%FSLAX46Y46*%
G04 Gerber Fmt 4.6, Leading zero omitted, Abs format (unit mm)*
G04 Created by KiCad (PCBNEW 9.0.4) date 2025-11-21 01:18:50*
%MOMM*%
%LPD*%
G01*
G04 APERTURE LIST*
G04 Aperture macros list*
%AMRoundRect*
0 Rectangle with rounded corners*
0 $1 Rounding radius*
0 $2 $3 $4 $5 $6 $7 $8 $9 X,Y pos of 4 corners*
0 Add a 4 corners polygon primitive as box body*
4,1,4,$2,$3,$4,$5,$6,$7,$8,$9,$2,$3,0*
0 Add four circle primitives for the rounded corners*
1,1,$1+$1,$2,$3*
1,1,$1+$1,$4,$5*
1,1,$1+$1,$6,$7*
1,1,$1+$1,$8,$9*
0 Add four rect primitives between the rounded corners*
20,1,$1+$1,$2,$3,$4,$5,0*
20,1,$1+$1,$4,$5,$6,$7,0*
20,1,$1+$1,$6,$7,$8,$9,0*
20,1,$1+$1,$8,$9,$2,$3,0*%
%AMFreePoly0*
4,1,9,5.362500,-0.866500,1.237500,-0.866500,1.237500,-0.450000,-1.237500,-0.450000,-1.237500,0.450000,1.237500,0.450000,1.237500,0.866500,5.362500,0.866500,5.362500,-0.866500,5.362500,-0.866500,$1*%
G04 Aperture macros list end*
%ADD10O,1.400000X0.299999*%
%ADD11O,0.299999X1.400000*%
%ADD12RoundRect,0.250000X-0.525000X-0.400000X0.525000X-0.400000X0.525000X0.400000X-0.525000X0.400000X0*%
%ADD13RoundRect,0.150000X-0.150000X0.512500X-0.150000X-0.512500X0.150000X-0.512500X0.150000X0.512500X0*%
%ADD14RoundRect,0.250000X-0.400000X-0.625000X0.400000X-0.625000X0.400000X0.625000X-0.400000X0.625000X0*%
%ADD15R,0.300000X1.425000*%
%ADD16RoundRect,0.145000X-0.740000X0.435000X-0.740000X-0.435000X0.740000X-0.435000X0.740000X0.435000X0*%
%ADD17RoundRect,0.145000X0.740000X-0.435000X0.740000X0.435000X-0.740000X0.435000X-0.740000X-0.435000X0*%
%ADD18RoundRect,0.225000X0.925000X0.225000X-0.925000X0.225000X-0.925000X-0.225000X0.925000X-0.225000X0*%
%ADD19FreePoly0,180.000000*%
%ADD20RoundRect,0.250000X-0.650000X0.412500X-0.650000X-0.412500X0.650000X-0.412500X0.650000X0.412500X0*%
%ADD21RoundRect,0.250000X0.625000X-0.400000X0.625000X0.400000X-0.625000X0.400000X-0.625000X-0.400000X0*%
%ADD22R,1.460500X0.355600*%
%ADD23R,0.508000X0.901700*%
%ADD24RoundRect,0.145000X-0.435000X-0.740000X0.435000X-0.740000X0.435000X0.740000X-0.435000X0.740000X0*%
%ADD25R,1.981200X0.558800*%
%ADD26RoundRect,0.250000X0.412500X0.650000X-0.412500X0.650000X-0.412500X-0.650000X0.412500X-0.650000X0*%
%ADD27R,1.000000X1.500000*%
%ADD28RoundRect,0.249999X-0.450001X-1.075001X0.450001X-1.075001X0.450001X1.075001X-0.450001X1.075001X0*%
%ADD29RoundRect,0.250000X-0.412500X-0.650000X0.412500X-0.650000X0.412500X0.650000X-0.412500X0.650000X0*%
%ADD30RoundRect,0.250000X0.650000X-0.412500X0.650000X0.412500X-0.650000X0.412500X-0.650000X-0.412500X0*%
%ADD31R,0.599200X0.954800*%
%ADD32RoundRect,0.162500X-0.162500X0.617500X-0.162500X-0.617500X0.162500X-0.617500X0.162500X0.617500X0*%
%ADD33RoundRect,0.162500X0.617500X0.162500X-0.617500X0.162500X-0.617500X-0.162500X0.617500X-0.162500X0*%
%ADD34RoundRect,0.249999X-1.075001X0.450001X-1.075001X-0.450001X1.075001X-0.450001X1.075001X0.450001X0*%
%ADD35R,1.500000X0.650000*%
%ADD36RoundRect,0.250000X0.400000X0.625000X-0.400000X0.625000X-0.400000X-0.625000X0.400000X-0.625000X0*%
%ADD37O,0.890000X1.550000*%
%ADD38O,1.250000X0.950000*%
%ADD39RoundRect,0.100000X-0.100000X-0.575000X0.100000X-0.575000X0.100000X0.575000X-0.100000X0.575000X0*%
%ADD40RoundRect,0.250000X-0.475000X-0.525000X0.475000X-0.525000X0.475000X0.525000X-0.475000X0.525000X0*%
%ADD41RoundRect,0.250000X-0.500000X-0.525000X0.500000X-0.525000X0.500000X0.525000X-0.500000X0.525000X0*%
G04 APERTURE END LIST*
D10*
%TO.C,U7*%
X202100001Y-86700002D03*
X202100001Y-86200000D03*
X202100001Y-85700001D03*
X202100001Y-85200002D03*
X202100001Y-84700000D03*
X202100001Y-84200002D03*
X202100001Y-83700000D03*
X202100001Y-83200001D03*
D11*
X200650002Y-81750001D03*
X200150000Y-81750001D03*
X199650001Y-81750001D03*
X199150002Y-81750001D03*
X198650000Y-81750001D03*
X198150002Y-81750001D03*
X197650000Y-81750001D03*
X197150001Y-81750001D03*
D10*
X195700001Y-83200001D03*
X195700001Y-83700000D03*
X195700001Y-84200002D03*
X195700001Y-84700000D03*
X195700001Y-85200002D03*
X195700001Y-85700001D03*
X195700001Y-86200000D03*
X195700001Y-86700002D03*
D11*
X197150001Y-88150001D03*
X197650000Y-88150001D03*
X198150002Y-88150001D03*
X198650000Y-88150001D03*
X199150002Y-88150001D03*
X199650001Y-88150001D03*
X200150000Y-88150001D03*
X200650002Y-88150001D03*
%TD*%
D12*
%TO.C,SW1*%
X187780000Y-89250000D03*
X179820000Y-89250000D03*
X187780000Y-84750000D03*
X179820000Y-84750000D03*
%TD*%
D13*
%TO.C,D7*%
X211862500Y-73687500D03*
X210912500Y-71412500D03*
X212812500Y-71412500D03*
%TD*%
D14*
%TO.C,R12*%
X219400000Y-71800000D03*
X216300000Y-71800000D03*
%TD*%
%TO.C,R14*%
X219450000Y-68200000D03*
X216350000Y-68200000D03*
%TD*%
D13*
%TO.C,D8*%
X211862500Y-69337500D03*
X210912500Y-67062500D03*
X212812500Y-67062500D03*
%TD*%
D15*
%TO.C,IC5*%
X181950000Y-78062000D03*
X182450000Y-78062000D03*
X182950000Y-78062000D03*
X183450000Y-78062000D03*
X183950000Y-78062000D03*
X184450000Y-78062000D03*
X184950000Y-78062000D03*
X185450000Y-78062000D03*
X185950000Y-78062000D03*
X186450000Y-78062000D03*
X186450000Y-73638000D03*
X185950000Y-73638000D03*
X185450000Y-73638000D03*
X184950000Y-73638000D03*
X184450000Y-73638000D03*
X183950000Y-73638000D03*
X183450000Y-73638000D03*
X182950000Y-73638000D03*
X182450000Y-73638000D03*
X181950000Y-73638000D03*
%TD*%
D16*
%TO.C,C1*%
X195650000Y-56847000D03*
X195650000Y-59753000D03*
%TD*%
D17*
%TO.C,C17*%
X192900000Y-84897000D03*
X192900000Y-87803000D03*
%TD*%
D18*
%TO.C,IC2*%
X164250000Y-69362500D03*
D19*
X164162500Y-67862500D03*
D18*
X164250000Y-66362500D03*
%TD*%
D20*
%TO.C,C22*%
X151500000Y-70437500D03*
X151500000Y-73562500D03*
%TD*%
D21*
%TO.C,R2*%
X170050000Y-96550001D03*
X170050000Y-93449999D03*
%TD*%
D22*
%TO.C,U3*%
X170925850Y-84642499D03*
X170925850Y-85277500D03*
X170925850Y-85912500D03*
X170925850Y-86547500D03*
X170925850Y-87182501D03*
X170925850Y-87817499D03*
X170925850Y-88452500D03*
X170925850Y-89087500D03*
X170925850Y-89722500D03*
X170925850Y-90357501D03*
X176374150Y-90357501D03*
X176374150Y-89722500D03*
X176374150Y-89087500D03*
X176374150Y-88452500D03*
X176374150Y-87817499D03*
X176374150Y-87182501D03*
X176374150Y-86547500D03*
X176374150Y-85912500D03*
X176374150Y-85277500D03*
X176374150Y-84642499D03*
%TD*%
D23*
%TO.C,U0*%
X155850001Y-70498250D03*
X154900000Y-70498250D03*
X153949999Y-70498250D03*
X153949999Y-73101750D03*
X154900000Y-73101750D03*
X155850001Y-73101750D03*
%TD*%
D13*
%TO.C,D5*%
X212912500Y-61062500D03*
X211012500Y-61062500D03*
X211962500Y-63337500D03*
%TD*%
%TO.C,D6*%
X212900000Y-56862500D03*
X211000000Y-56862500D03*
X211950000Y-59137500D03*
%TD*%
D20*
%TO.C,C23*%
X155000000Y-75787500D03*
X155000000Y-78912500D03*
%TD*%
D24*
%TO.C,C4*%
X182247000Y-80550000D03*
X185153000Y-80550000D03*
%TD*%
D16*
%TO.C,C9*%
X168200000Y-85947000D03*
X168200000Y-88853000D03*
%TD*%
D25*
%TO.C,U9*%
X191963800Y-59855000D03*
X191963800Y-58585000D03*
X191963800Y-57315000D03*
X191963800Y-56045000D03*
X187036200Y-56045000D03*
X187036200Y-57315000D03*
X187036200Y-58585000D03*
X187036200Y-59855000D03*
%TD*%
D20*
%TO.C,C10*%
X165450000Y-74887500D03*
X165450000Y-78012500D03*
%TD*%
D25*
%TO.C,U8*%
X192886200Y-91695000D03*
X192886200Y-92965000D03*
X192886200Y-94235000D03*
X192886200Y-95505000D03*
X197813800Y-95505000D03*
X197813800Y-94235000D03*
X197813800Y-92965000D03*
X197813800Y-91695000D03*
%TD*%
D26*
%TO.C,C13*%
X163162500Y-90600000D03*
X160037500Y-90600000D03*
%TD*%
D14*
%TO.C,R1*%
X189699999Y-78250000D03*
X192800001Y-78250000D03*
%TD*%
D21*
%TO.C,R3*%
X173900000Y-96600001D03*
X173900000Y-93499999D03*
%TD*%
D27*
%TO.C,L1*%
X152000000Y-81900000D03*
X154500000Y-81900000D03*
%TD*%
D28*
%TO.C,R24*%
X170500000Y-79950000D03*
X175300000Y-79950000D03*
%TD*%
D29*
%TO.C,C3*%
X158837500Y-63850000D03*
X161962500Y-63850000D03*
%TD*%
D30*
%TO.C,C12*%
X165150000Y-85012500D03*
X165150000Y-81887500D03*
%TD*%
%TO.C,C5*%
X179300000Y-74212500D03*
X179300000Y-71087500D03*
%TD*%
D31*
%TO.C,U6*%
X185425000Y-69903000D03*
X187075000Y-69903000D03*
X187075000Y-68248200D03*
X185425000Y-68248200D03*
%TD*%
D20*
%TO.C,C24*%
X151750000Y-75737500D03*
X151750000Y-78862500D03*
%TD*%
D16*
%TO.C,C8*%
X179300000Y-76397000D03*
X179300000Y-79303000D03*
%TD*%
D32*
%TO.C,IC4*%
X162000000Y-85100000D03*
X161050000Y-85100000D03*
X160100000Y-85100000D03*
X160100000Y-87800000D03*
X162000000Y-87800000D03*
%TD*%
D33*
%TO.C,IC3*%
X162250000Y-77800000D03*
X162250000Y-76850000D03*
X162250000Y-75900000D03*
X159550000Y-75900000D03*
X159550000Y-77800000D03*
%TD*%
D24*
%TO.C,C7*%
X190797000Y-81100000D03*
X193703000Y-81100000D03*
%TD*%
D14*
%TO.C,R8*%
X216450000Y-61800000D03*
X219550000Y-61800000D03*
%TD*%
D29*
%TO.C,C6*%
X159437500Y-72100000D03*
X162562500Y-72100000D03*
%TD*%
D24*
%TO.C,C2*%
X183297000Y-54150000D03*
X186203000Y-54150000D03*
%TD*%
D29*
%TO.C,C11*%
X159487500Y-81500000D03*
X162612500Y-81500000D03*
%TD*%
D34*
%TO.C,R9*%
X168400000Y-65750000D03*
X168400000Y-70550000D03*
%TD*%
D24*
%TO.C,C21*%
X197103000Y-54300000D03*
X194197000Y-54300000D03*
%TD*%
D35*
%TO.C,IC1*%
X189700000Y-62240000D03*
X189700000Y-63510000D03*
X189700000Y-64780000D03*
X189700000Y-66050000D03*
X189700000Y-67320000D03*
X189700000Y-68590000D03*
X189700000Y-69860000D03*
X195100000Y-69860000D03*
X195100000Y-68590000D03*
X195100000Y-67320000D03*
X195100000Y-66050000D03*
X195100000Y-64780000D03*
X195100000Y-63510000D03*
X195100000Y-62240000D03*
%TD*%
D26*
%TO.C,C25*%
X155012500Y-86000000D03*
X151887500Y-86000000D03*
%TD*%
D14*
%TO.C,R10*%
X216500000Y-58150000D03*
X219600000Y-58150000D03*
%TD*%
D21*
%TO.C,R7*%
X212750000Y-84600000D03*
X212750000Y-81500000D03*
%TD*%
%TO.C,R4*%
X212850000Y-79250000D03*
X212850000Y-76150000D03*
%TD*%
D14*
%TO.C,R5*%
X216300000Y-79000000D03*
X219400000Y-79000000D03*
%TD*%
D21*
%TO.C,R22*%
X212800000Y-92400000D03*
X212800000Y-95500000D03*
%TD*%
%TO.C,R21*%
X212750000Y-87100000D03*
X212750000Y-90200000D03*
%TD*%
D14*
%TO.C,R20*%
X216400000Y-89900000D03*
X219500000Y-89900000D03*
%TD*%
D13*
%TO.C,D4*%
X209012500Y-92862500D03*
X207112500Y-92862500D03*
X208062500Y-95137500D03*
%TD*%
D36*
%TO.C,R23*%
X216400000Y-93800000D03*
X219500000Y-93800000D03*
%TD*%
%TO.C,R6*%
X219400000Y-82800000D03*
X216300000Y-82800000D03*
%TD*%
D13*
%TO.C,D1*%
X209100000Y-76912500D03*
X207200000Y-76912500D03*
X208150000Y-79187500D03*
%TD*%
%TO.C,D3*%
X208062500Y-89537500D03*
X207112500Y-87262500D03*
X209012500Y-87262500D03*
%TD*%
%TO.C,D2*%
X209012500Y-81812500D03*
X207112500Y-81812500D03*
X208062500Y-84087500D03*
%TD*%
D37*
%TO.C,J16*%
X176350000Y-97850000D03*
D38*
X177350000Y-95150000D03*
X182350000Y-95150000D03*
D37*
X183350000Y-97850000D03*
D39*
X178550000Y-95150000D03*
X179200000Y-95150000D03*
X179850000Y-95150000D03*
X180500000Y-95150000D03*
X181150000Y-95150000D03*
D40*
X176825000Y-97850000D03*
D41*
X178850000Y-97850000D03*
X180850000Y-97850000D03*
D40*
X182875000Y-97850000D03*
%TD*%
M02*
