%TF.GenerationSoftware,KiCad,Pcbnew,9.0.4*%
%TF.CreationDate,2025-11-21T01:18:50-06:00*%
%TF.ProjectId,LV Sensor,4c562053-656e-4736-9f72-2e6b69636164,rev?*%
%TF.SameCoordinates,Original*%
%TF.FileFunction,Legend,Bot*%
%TF.FilePolarity,Positive*%
%FSLAX46Y46*%
G04 Gerber Fmt 4.6, Leading zero omitted, Abs format (unit mm)*
G04 Created by KiCad (PCBNEW 9.0.4) date 2025-11-21 01:18:50*
%MOMM*%
%LPD*%
G01*
G04 APERTURE LIST*
%ADD10C,0.150000*%
%ADD11C,0.120000*%
G04 APERTURE END LIST*
D10*
X159738866Y-64836779D02*
X159738866Y-65598684D01*
X160119819Y-66836779D02*
X159119819Y-66836779D01*
X159119819Y-66836779D02*
X159834104Y-67170112D01*
X159834104Y-67170112D02*
X159119819Y-67503445D01*
X159119819Y-67503445D02*
X160119819Y-67503445D01*
X160119819Y-68408207D02*
X159596009Y-68408207D01*
X159596009Y-68408207D02*
X159500771Y-68360588D01*
X159500771Y-68360588D02*
X159453152Y-68265350D01*
X159453152Y-68265350D02*
X159453152Y-68074874D01*
X159453152Y-68074874D02*
X159500771Y-67979636D01*
X160072200Y-68408207D02*
X160119819Y-68312969D01*
X160119819Y-68312969D02*
X160119819Y-68074874D01*
X160119819Y-68074874D02*
X160072200Y-67979636D01*
X160072200Y-67979636D02*
X159976961Y-67932017D01*
X159976961Y-67932017D02*
X159881723Y-67932017D01*
X159881723Y-67932017D02*
X159786485Y-67979636D01*
X159786485Y-67979636D02*
X159738866Y-68074874D01*
X159738866Y-68074874D02*
X159738866Y-68312969D01*
X159738866Y-68312969D02*
X159691247Y-68408207D01*
X159453152Y-68884398D02*
X160119819Y-68884398D01*
X159548390Y-68884398D02*
X159500771Y-68932017D01*
X159500771Y-68932017D02*
X159453152Y-69027255D01*
X159453152Y-69027255D02*
X159453152Y-69170112D01*
X159453152Y-69170112D02*
X159500771Y-69265350D01*
X159500771Y-69265350D02*
X159596009Y-69312969D01*
X159596009Y-69312969D02*
X160119819Y-69312969D01*
X160119819Y-69789160D02*
X159453152Y-69789160D01*
X159119819Y-69789160D02*
X159167438Y-69741541D01*
X159167438Y-69741541D02*
X159215057Y-69789160D01*
X159215057Y-69789160D02*
X159167438Y-69836779D01*
X159167438Y-69836779D02*
X159119819Y-69789160D01*
X159119819Y-69789160D02*
X159215057Y-69789160D01*
X160072200Y-70217731D02*
X160119819Y-70312969D01*
X160119819Y-70312969D02*
X160119819Y-70503445D01*
X160119819Y-70503445D02*
X160072200Y-70598683D01*
X160072200Y-70598683D02*
X159976961Y-70646302D01*
X159976961Y-70646302D02*
X159929342Y-70646302D01*
X159929342Y-70646302D02*
X159834104Y-70598683D01*
X159834104Y-70598683D02*
X159786485Y-70503445D01*
X159786485Y-70503445D02*
X159786485Y-70360588D01*
X159786485Y-70360588D02*
X159738866Y-70265350D01*
X159738866Y-70265350D02*
X159643628Y-70217731D01*
X159643628Y-70217731D02*
X159596009Y-70217731D01*
X159596009Y-70217731D02*
X159500771Y-70265350D01*
X159500771Y-70265350D02*
X159453152Y-70360588D01*
X159453152Y-70360588D02*
X159453152Y-70503445D01*
X159453152Y-70503445D02*
X159500771Y-70598683D01*
X160119819Y-71074874D02*
X159119819Y-71074874D01*
X160119819Y-71503445D02*
X159596009Y-71503445D01*
X159596009Y-71503445D02*
X159500771Y-71455826D01*
X159500771Y-71455826D02*
X159453152Y-71360588D01*
X159453152Y-71360588D02*
X159453152Y-71217731D01*
X159453152Y-71217731D02*
X159500771Y-71122493D01*
X159500771Y-71122493D02*
X159548390Y-71074874D01*
X160072200Y-72693922D02*
X160119819Y-72836779D01*
X160119819Y-72836779D02*
X160119819Y-73074874D01*
X160119819Y-73074874D02*
X160072200Y-73170112D01*
X160072200Y-73170112D02*
X160024580Y-73217731D01*
X160024580Y-73217731D02*
X159929342Y-73265350D01*
X159929342Y-73265350D02*
X159834104Y-73265350D01*
X159834104Y-73265350D02*
X159738866Y-73217731D01*
X159738866Y-73217731D02*
X159691247Y-73170112D01*
X159691247Y-73170112D02*
X159643628Y-73074874D01*
X159643628Y-73074874D02*
X159596009Y-72884398D01*
X159596009Y-72884398D02*
X159548390Y-72789160D01*
X159548390Y-72789160D02*
X159500771Y-72741541D01*
X159500771Y-72741541D02*
X159405533Y-72693922D01*
X159405533Y-72693922D02*
X159310295Y-72693922D01*
X159310295Y-72693922D02*
X159215057Y-72741541D01*
X159215057Y-72741541D02*
X159167438Y-72789160D01*
X159167438Y-72789160D02*
X159119819Y-72884398D01*
X159119819Y-72884398D02*
X159119819Y-73122493D01*
X159119819Y-73122493D02*
X159167438Y-73265350D01*
X160119819Y-73693922D02*
X159119819Y-73693922D01*
X160119819Y-74122493D02*
X159596009Y-74122493D01*
X159596009Y-74122493D02*
X159500771Y-74074874D01*
X159500771Y-74074874D02*
X159453152Y-73979636D01*
X159453152Y-73979636D02*
X159453152Y-73836779D01*
X159453152Y-73836779D02*
X159500771Y-73741541D01*
X159500771Y-73741541D02*
X159548390Y-73693922D01*
X160119819Y-74598684D02*
X159453152Y-74598684D01*
X159643628Y-74598684D02*
X159548390Y-74646303D01*
X159548390Y-74646303D02*
X159500771Y-74693922D01*
X159500771Y-74693922D02*
X159453152Y-74789160D01*
X159453152Y-74789160D02*
X159453152Y-74884398D01*
X160072200Y-75598684D02*
X160119819Y-75503446D01*
X160119819Y-75503446D02*
X160119819Y-75312970D01*
X160119819Y-75312970D02*
X160072200Y-75217732D01*
X160072200Y-75217732D02*
X159976961Y-75170113D01*
X159976961Y-75170113D02*
X159596009Y-75170113D01*
X159596009Y-75170113D02*
X159500771Y-75217732D01*
X159500771Y-75217732D02*
X159453152Y-75312970D01*
X159453152Y-75312970D02*
X159453152Y-75503446D01*
X159453152Y-75503446D02*
X159500771Y-75598684D01*
X159500771Y-75598684D02*
X159596009Y-75646303D01*
X159596009Y-75646303D02*
X159691247Y-75646303D01*
X159691247Y-75646303D02*
X159786485Y-75170113D01*
X160072200Y-76027256D02*
X160119819Y-76122494D01*
X160119819Y-76122494D02*
X160119819Y-76312970D01*
X160119819Y-76312970D02*
X160072200Y-76408208D01*
X160072200Y-76408208D02*
X159976961Y-76455827D01*
X159976961Y-76455827D02*
X159929342Y-76455827D01*
X159929342Y-76455827D02*
X159834104Y-76408208D01*
X159834104Y-76408208D02*
X159786485Y-76312970D01*
X159786485Y-76312970D02*
X159786485Y-76170113D01*
X159786485Y-76170113D02*
X159738866Y-76074875D01*
X159738866Y-76074875D02*
X159643628Y-76027256D01*
X159643628Y-76027256D02*
X159596009Y-76027256D01*
X159596009Y-76027256D02*
X159500771Y-76074875D01*
X159500771Y-76074875D02*
X159453152Y-76170113D01*
X159453152Y-76170113D02*
X159453152Y-76312970D01*
X159453152Y-76312970D02*
X159500771Y-76408208D01*
X159453152Y-76741542D02*
X159453152Y-77122494D01*
X159119819Y-76884399D02*
X159976961Y-76884399D01*
X159976961Y-76884399D02*
X160072200Y-76932018D01*
X160072200Y-76932018D02*
X160119819Y-77027256D01*
X160119819Y-77027256D02*
X160119819Y-77122494D01*
X160119819Y-77455828D02*
X159119819Y-77455828D01*
X160119819Y-77884399D02*
X159596009Y-77884399D01*
X159596009Y-77884399D02*
X159500771Y-77836780D01*
X159500771Y-77836780D02*
X159453152Y-77741542D01*
X159453152Y-77741542D02*
X159453152Y-77598685D01*
X159453152Y-77598685D02*
X159500771Y-77503447D01*
X159500771Y-77503447D02*
X159548390Y-77455828D01*
X160119819Y-78789161D02*
X159596009Y-78789161D01*
X159596009Y-78789161D02*
X159500771Y-78741542D01*
X159500771Y-78741542D02*
X159453152Y-78646304D01*
X159453152Y-78646304D02*
X159453152Y-78455828D01*
X159453152Y-78455828D02*
X159500771Y-78360590D01*
X160072200Y-78789161D02*
X160119819Y-78693923D01*
X160119819Y-78693923D02*
X160119819Y-78455828D01*
X160119819Y-78455828D02*
X160072200Y-78360590D01*
X160072200Y-78360590D02*
X159976961Y-78312971D01*
X159976961Y-78312971D02*
X159881723Y-78312971D01*
X159881723Y-78312971D02*
X159786485Y-78360590D01*
X159786485Y-78360590D02*
X159738866Y-78455828D01*
X159738866Y-78455828D02*
X159738866Y-78693923D01*
X159738866Y-78693923D02*
X159691247Y-78789161D01*
X159072200Y-80741542D02*
X160357914Y-79884400D01*
X160119819Y-81836781D02*
X159119819Y-81836781D01*
X159119819Y-81836781D02*
X160119819Y-82408209D01*
X160119819Y-82408209D02*
X159119819Y-82408209D01*
X160119819Y-83027257D02*
X160072200Y-82932019D01*
X160072200Y-82932019D02*
X160024580Y-82884400D01*
X160024580Y-82884400D02*
X159929342Y-82836781D01*
X159929342Y-82836781D02*
X159643628Y-82836781D01*
X159643628Y-82836781D02*
X159548390Y-82884400D01*
X159548390Y-82884400D02*
X159500771Y-82932019D01*
X159500771Y-82932019D02*
X159453152Y-83027257D01*
X159453152Y-83027257D02*
X159453152Y-83170114D01*
X159453152Y-83170114D02*
X159500771Y-83265352D01*
X159500771Y-83265352D02*
X159548390Y-83312971D01*
X159548390Y-83312971D02*
X159643628Y-83360590D01*
X159643628Y-83360590D02*
X159929342Y-83360590D01*
X159929342Y-83360590D02*
X160024580Y-83312971D01*
X160024580Y-83312971D02*
X160072200Y-83265352D01*
X160072200Y-83265352D02*
X160119819Y-83170114D01*
X160119819Y-83170114D02*
X160119819Y-83027257D01*
X159453152Y-83693924D02*
X160119819Y-83932019D01*
X160119819Y-83932019D02*
X159453152Y-84170114D01*
X159215057Y-85265353D02*
X159167438Y-85312972D01*
X159167438Y-85312972D02*
X159119819Y-85408210D01*
X159119819Y-85408210D02*
X159119819Y-85646305D01*
X159119819Y-85646305D02*
X159167438Y-85741543D01*
X159167438Y-85741543D02*
X159215057Y-85789162D01*
X159215057Y-85789162D02*
X159310295Y-85836781D01*
X159310295Y-85836781D02*
X159405533Y-85836781D01*
X159405533Y-85836781D02*
X159548390Y-85789162D01*
X159548390Y-85789162D02*
X160119819Y-85217734D01*
X160119819Y-85217734D02*
X160119819Y-85836781D01*
X159119819Y-86455829D02*
X159119819Y-86551067D01*
X159119819Y-86551067D02*
X159167438Y-86646305D01*
X159167438Y-86646305D02*
X159215057Y-86693924D01*
X159215057Y-86693924D02*
X159310295Y-86741543D01*
X159310295Y-86741543D02*
X159500771Y-86789162D01*
X159500771Y-86789162D02*
X159738866Y-86789162D01*
X159738866Y-86789162D02*
X159929342Y-86741543D01*
X159929342Y-86741543D02*
X160024580Y-86693924D01*
X160024580Y-86693924D02*
X160072200Y-86646305D01*
X160072200Y-86646305D02*
X160119819Y-86551067D01*
X160119819Y-86551067D02*
X160119819Y-86455829D01*
X160119819Y-86455829D02*
X160072200Y-86360591D01*
X160072200Y-86360591D02*
X160024580Y-86312972D01*
X160024580Y-86312972D02*
X159929342Y-86265353D01*
X159929342Y-86265353D02*
X159738866Y-86217734D01*
X159738866Y-86217734D02*
X159500771Y-86217734D01*
X159500771Y-86217734D02*
X159310295Y-86265353D01*
X159310295Y-86265353D02*
X159215057Y-86312972D01*
X159215057Y-86312972D02*
X159167438Y-86360591D01*
X159167438Y-86360591D02*
X159119819Y-86455829D01*
X159215057Y-87170115D02*
X159167438Y-87217734D01*
X159167438Y-87217734D02*
X159119819Y-87312972D01*
X159119819Y-87312972D02*
X159119819Y-87551067D01*
X159119819Y-87551067D02*
X159167438Y-87646305D01*
X159167438Y-87646305D02*
X159215057Y-87693924D01*
X159215057Y-87693924D02*
X159310295Y-87741543D01*
X159310295Y-87741543D02*
X159405533Y-87741543D01*
X159405533Y-87741543D02*
X159548390Y-87693924D01*
X159548390Y-87693924D02*
X160119819Y-87122496D01*
X160119819Y-87122496D02*
X160119819Y-87741543D01*
X159119819Y-88646305D02*
X159119819Y-88170115D01*
X159119819Y-88170115D02*
X159596009Y-88122496D01*
X159596009Y-88122496D02*
X159548390Y-88170115D01*
X159548390Y-88170115D02*
X159500771Y-88265353D01*
X159500771Y-88265353D02*
X159500771Y-88503448D01*
X159500771Y-88503448D02*
X159548390Y-88598686D01*
X159548390Y-88598686D02*
X159596009Y-88646305D01*
X159596009Y-88646305D02*
X159691247Y-88693924D01*
X159691247Y-88693924D02*
X159929342Y-88693924D01*
X159929342Y-88693924D02*
X160024580Y-88646305D01*
X160024580Y-88646305D02*
X160072200Y-88598686D01*
X160072200Y-88598686D02*
X160119819Y-88503448D01*
X160119819Y-88503448D02*
X160119819Y-88265353D01*
X160119819Y-88265353D02*
X160072200Y-88170115D01*
X160072200Y-88170115D02*
X160024580Y-88122496D01*
X181261904Y-64056819D02*
X180690476Y-64056819D01*
X180976190Y-65056819D02*
X180976190Y-64056819D01*
X180357142Y-65056819D02*
X180357142Y-64056819D01*
X180357142Y-64056819D02*
X179976190Y-64056819D01*
X179976190Y-64056819D02*
X179880952Y-64104438D01*
X179880952Y-64104438D02*
X179833333Y-64152057D01*
X179833333Y-64152057D02*
X179785714Y-64247295D01*
X179785714Y-64247295D02*
X179785714Y-64390152D01*
X179785714Y-64390152D02*
X179833333Y-64485390D01*
X179833333Y-64485390D02*
X179880952Y-64533009D01*
X179880952Y-64533009D02*
X179976190Y-64580628D01*
X179976190Y-64580628D02*
X180357142Y-64580628D01*
X179404761Y-64152057D02*
X179357142Y-64104438D01*
X179357142Y-64104438D02*
X179261904Y-64056819D01*
X179261904Y-64056819D02*
X179023809Y-64056819D01*
X179023809Y-64056819D02*
X178928571Y-64104438D01*
X178928571Y-64104438D02*
X178880952Y-64152057D01*
X178880952Y-64152057D02*
X178833333Y-64247295D01*
X178833333Y-64247295D02*
X178833333Y-64342533D01*
X178833333Y-64342533D02*
X178880952Y-64485390D01*
X178880952Y-64485390D02*
X179452380Y-65056819D01*
X179452380Y-65056819D02*
X178833333Y-65056819D01*
X175761904Y-70806819D02*
X175190476Y-70806819D01*
X175476190Y-71806819D02*
X175476190Y-70806819D01*
X174857142Y-71806819D02*
X174857142Y-70806819D01*
X174857142Y-70806819D02*
X174476190Y-70806819D01*
X174476190Y-70806819D02*
X174380952Y-70854438D01*
X174380952Y-70854438D02*
X174333333Y-70902057D01*
X174333333Y-70902057D02*
X174285714Y-70997295D01*
X174285714Y-70997295D02*
X174285714Y-71140152D01*
X174285714Y-71140152D02*
X174333333Y-71235390D01*
X174333333Y-71235390D02*
X174380952Y-71283009D01*
X174380952Y-71283009D02*
X174476190Y-71330628D01*
X174476190Y-71330628D02*
X174857142Y-71330628D01*
X173333333Y-71806819D02*
X173904761Y-71806819D01*
X173619047Y-71806819D02*
X173619047Y-70806819D01*
X173619047Y-70806819D02*
X173714285Y-70949676D01*
X173714285Y-70949676D02*
X173809523Y-71044914D01*
X173809523Y-71044914D02*
X173904761Y-71092533D01*
D11*
%TO.C,TP2*%
X181750000Y-67000000D02*
G75*
G02*
X178250000Y-67000000I-1750000J0D01*
G01*
X178250000Y-67000000D02*
G75*
G02*
X181750000Y-67000000I1750000J0D01*
G01*
%TO.C,TP1*%
X176250000Y-73750000D02*
G75*
G02*
X172750000Y-73750000I-1750000J0D01*
G01*
X172750000Y-73750000D02*
G75*
G02*
X176250000Y-73750000I1750000J0D01*
G01*
%TD*%
M02*
